<svg width="55" height="30" viewBox="0 0 55 30" fill="none" xmlns="http://www.w3.org/2000/svg">
<g clip-path="url(#clip0_574_106)">
<path d="M54.9957 10.6697C55.0015 10.628 55.0015 10.5858 54.9957 10.5441C55.0011 10.5101 55.0011 10.4755 54.9957 10.4414L54.5883 7.50877C54.5295 7.15792 54.3723 6.82999 54.1344 6.56166L54.0645 6.48178L53.9365 6.35625L46.8829 0.399675L47.0808 0.593678C46.9189 0.403795 46.7157 0.251914 46.4861 0.149222C46.2565 0.0465303 46.0062 -0.00436252 45.7539 0.000298064H43.6122C43.2639 -0.0064666 42.9236 0.102086 42.6461 0.308402C42.3547 0.103328 42.0038 -0.00466859 41.6451 0.000298064H39.5034C39.2225 -0.00416973 38.9454 0.0641735 38.7001 0.198428C38.4549 0.332683 38.2501 0.528082 38.1067 0.764835C37.8855 1.10299 37.8023 1.51041 37.8738 1.90595L38.1416 3.75453C37.9642 3.65597 37.7635 3.60482 37.5596 3.6062H27.1887C26.8166 3.60849 26.4531 3.71541 26.1411 3.91429C25.8395 4.0994 25.5973 4.36447 25.4428 4.67882L24.6396 4.00558C24.3235 3.71884 23.9063 3.56343 23.4757 3.57196H7.20353C6.83012 3.57863 6.46501 3.6809 6.14436 3.86865C5.70569 4.12036 5.38421 4.52965 5.24809 5.00975L0.0801166 21.9552C-0.0164452 22.2344 -0.0259442 22.5355 0.0528362 22.8201C0.131617 23.1046 0.295109 23.3597 0.522426 23.5528C0.581658 23.602 0.643851 23.6477 0.708664 23.6897C0.708664 23.6897 0.603891 23.6212 0.545692 23.5642L7.59931 29.5322C7.89769 29.8015 8.28781 29.952 8.69336 29.9543H25.0936C25.4681 29.9448 25.8335 29.8385 26.1528 29.6462C26.3334 29.5495 26.495 29.422 26.63 29.2696L26.6882 29.1898L26.7813 29.0757L26.8512 28.9502L27.6194 29.6006C27.9135 29.8592 28.2951 30.0015 28.6902 30H45.1253C45.4994 29.9878 45.8641 29.8817 46.1845 29.6919C46.361 29.5892 46.5217 29.4624 46.6618 29.3153L46.7199 29.2354L46.813 29.1214C46.8625 29.0491 46.9055 28.9728 46.941 28.8931C46.9791 28.8239 47.0103 28.7513 47.0342 28.6763L51.7482 13.2029V13.066C51.754 13.0129 51.754 12.9593 51.7482 12.9062V12.8035C51.7539 12.7695 51.7539 12.7349 51.7482 12.7008C51.7535 12.6287 51.7535 12.5562 51.7482 12.484H53.2614C53.393 12.4958 53.5255 12.4958 53.6571 12.484H53.7619C53.8471 12.4591 53.9291 12.4246 54.0063 12.3813H54.1228L54.3322 12.2216L54.4253 12.1531L54.5883 11.9476V11.8792L54.7047 11.6852C54.6982 11.6475 54.6982 11.6089 54.7047 11.5711C54.6985 11.5526 54.6985 11.5326 54.7047 11.5141C54.7294 11.4472 54.7489 11.3785 54.7629 11.3087C54.7575 11.2862 54.7575 11.2627 54.7629 11.2402C54.7572 11.2062 54.7572 11.1715 54.7629 11.1375C54.7629 11.1375 54.9957 10.6925 54.9957 10.6697Z" fill="black"/>
<path d="M23.9532 4.87388C24.015 4.92866 24.0581 5.00069 24.0768 5.08027C24.0956 5.15984 24.089 5.24313 24.058 5.31891L18.9017 22.2529C18.8367 22.4378 18.7039 22.5924 18.5292 22.6866C18.387 22.7798 18.2225 22.8349 18.0519 22.8463H1.66341C1.52345 22.8397 1.39085 22.7829 1.29094 22.6866C1.2315 22.6327 1.18978 22.5626 1.17112 22.4854C1.15246 22.4082 1.15771 22.3273 1.18618 22.2529L6.35416 5.31891C6.4137 5.1317 6.54237 4.973 6.71498 4.87388C6.85949 4.78735 7.02324 4.73645 7.19221 4.72553H23.5807C23.7196 4.72685 23.8527 4.77989 23.9532 4.87388ZM15.3981 18.841L18.4826 8.73081H9.84606L6.77317 18.841H15.3981ZM39.5968 5.04504C39.6527 5.10875 39.7226 5.15927 39.8012 5.19285C39.8798 5.22644 39.965 5.24222 40.0508 5.23903H42.1808C42.2619 5.23981 42.3418 5.22031 42.4132 5.18237C42.4844 5.14444 42.5446 5.08931 42.5882 5.02222C42.626 4.96981 42.6527 4.91048 42.6667 4.84775C42.6807 4.78502 42.6817 4.72019 42.6696 4.65707L42.2506 1.64455C42.2107 1.50512 42.1391 1.37638 42.0411 1.26798C41.9852 1.20428 41.9153 1.15376 41.8367 1.12017C41.7581 1.08659 41.6728 1.07081 41.5872 1.07399H39.4571C39.376 1.07322 39.296 1.09272 39.2248 1.13066C39.1535 1.16859 39.0932 1.22371 39.0498 1.29081C38.9683 1.45056 38.9333 1.55326 38.9683 1.64455L39.3989 4.65707C39.421 4.80376 39.4904 4.93968 39.5968 5.04504ZM46.3594 1.62173C46.3195 1.48229 46.2478 1.35355 46.1499 1.24516C46.0963 1.18169 46.0285 1.13118 45.9518 1.09754C45.8751 1.0639 45.7915 1.04803 45.7076 1.05117H43.5659C43.4861 1.04894 43.4072 1.06792 43.3375 1.10609C43.2679 1.14425 43.2101 1.2002 43.1702 1.26798C43.0927 1.36922 43.0592 1.49638 43.0771 1.62173L43.5077 4.63424C43.5347 4.77938 43.6033 4.91396 43.7056 5.02222C43.7625 5.08468 43.8325 5.13435 43.9109 5.16783C43.9893 5.20131 44.074 5.21781 44.1595 5.2162H46.3012C46.3808 5.21723 46.4592 5.19776 46.5286 5.1597C46.5981 5.12165 46.6562 5.06638 46.697 4.9994C46.7375 4.94835 46.7657 4.88904 46.7799 4.82586C46.794 4.76268 46.7935 4.69721 46.7784 4.63424L46.3594 1.62173ZM37.7228 6.18615L37.5133 4.70271H27.189C27.0269 4.71147 26.8701 4.7627 26.735 4.85105C26.6493 4.89689 26.5747 4.96041 26.5164 5.03724C26.4582 5.11408 26.4176 5.20238 26.3975 5.29609L25.5362 8.12601C25.5018 8.19674 25.49 8.27609 25.5025 8.35349C25.515 8.43089 25.5511 8.50274 25.606 8.55966C25.7042 8.65011 25.8323 8.70284 25.9669 8.70801H38.5143L35.4298 18.8182H22.9173C22.7559 18.8218 22.5988 18.8692 22.4634 18.9551C22.2987 19.0576 22.1785 19.2161 22.1258 19.4002L21.2528 22.2301C21.2243 22.3027 21.2168 22.3816 21.2312 22.4581C21.2456 22.5347 21.2812 22.6058 21.3343 22.6637C21.4294 22.7602 21.5585 22.8174 21.6951 22.8235H38.1302C38.3002 22.8091 38.464 22.7543 38.6074 22.6637C38.7793 22.5691 38.9082 22.4142 38.9683 22.2301L43.6939 6.75671H38.3746C38.2902 6.75833 38.2064 6.74297 38.1284 6.71157C38.0503 6.68017 37.9796 6.63338 37.9207 6.57412C37.8245 6.47064 37.7564 6.34506 37.7228 6.20897V6.18615Z" fill="white"/>
</g>
<defs>
<clipPath id="clip0_574_106">
<rect width="55" height="30" fill="white"/>
</clipPath>
</defs>
</svg>
