<svg width="52" height="20" viewBox="0 0 52 20" fill="none" xmlns="http://www.w3.org/2000/svg">
<g clip-path="url(#clip0_574_130)">
<path d="M12.3431 0C10.3124 0 8.36487 0.8067 6.92893 2.24264L2.24264 6.92893C0.8067 8.36487 0 10.3124 0 12.3431C0 16.5719 3.42809 20 7.65687 20C9.6876 20 11.6351 19.1933 13.0711 17.7573L16.3126 14.5158C16.3127 14.5159 16.3126 14.5157 16.3126 14.5158L25.7573 5.07107C26.4431 4.38527 27.3733 4 28.3431 4C29.9669 4 31.3435 5.05827 31.8207 6.52271L34.8015 3.54197C33.4417 1.41223 31.0573 0 28.3431 0C26.3124 0 24.3649 0.8067 22.9289 2.24264L10.2427 14.9289C9.55687 15.6147 8.62673 16 7.65687 16C5.63723 16 4 14.3628 4 12.3431C4 11.3733 4.38527 10.4431 5.07107 9.75733L9.75733 5.07107C10.4431 4.38527 11.3733 4 12.3431 4C13.9669 4 15.3435 5.05832 15.8207 6.52281L18.8015 3.54205C17.4417 1.41227 15.0574 0 12.3431 0Z" fill="#394149"/>
<path d="M26.2431 14.9289C25.5573 15.6147 24.6272 16 23.6573 16C22.0338 16 20.6573 14.942 20.1799 13.4778L17.1992 16.4585C18.5591 18.5879 20.9433 20 23.6573 20C25.688 20 27.6356 19.1933 29.0715 17.7573L41.7578 5.07107C42.4435 4.38527 43.3737 4 44.3436 4C46.3632 4 48.0004 5.63723 48.0004 7.65687C48.0004 8.62673 47.6151 9.55687 46.9294 10.2427L42.2431 14.9289C41.5573 15.6147 40.6271 16 39.6573 16C38.0336 16 36.6571 14.9418 36.1798 13.4775L33.1991 16.4582C34.5589 18.5879 36.9431 20 39.6573 20C41.688 20 43.6355 19.1933 45.0715 17.7573L49.7577 13.0711C51.1937 11.6351 52.0004 9.6876 52.0004 7.65687C52.0004 3.42809 48.5723 0 44.3436 0C42.3128 0 40.3653 0.8067 38.9294 2.24264L26.2431 14.9289Z" fill="#394149"/>
</g>
<defs>
<clipPath id="clip0_574_130">
<rect width="52" height="20" fill="white"/>
</clipPath>
</defs>
</svg>
