<svg width="47" height="29" viewBox="0 0 47 29" fill="none" xmlns="http://www.w3.org/2000/svg">
<g clip-path="url(#clip0_574_110)">
<path d="M43.9963 3.56336C43.9963 3.59718 43.9963 3.63944 43.9875 3.6648C43.9434 3.99449 43.9434 4.32417 43.9698 4.66231C43.9875 4.74685 44.0051 4.83138 44.0756 4.89901C44.19 5.02581 44.3662 5.00045 44.4367 4.84829C44.4719 4.77221 44.4719 4.69612 44.4543 4.62005C44.3662 4.29881 44.3486 3.96068 44.3398 3.63099C44.3398 3.61408 44.3398 3.58872 44.3398 3.56336C44.4367 3.55491 44.5248 3.54645 44.604 3.54645C44.6657 3.538 44.7185 3.52955 44.7626 3.50418C44.8946 3.43656 44.8946 3.29285 44.7537 3.22522C44.7009 3.19986 44.6304 3.19141 44.5688 3.19141C44.3486 3.19986 44.1284 3.19986 43.9082 3.19986C43.829 3.19986 43.7497 3.20832 43.6704 3.21677C43.6263 3.22522 43.5735 3.22522 43.5383 3.25059C43.4766 3.27594 43.4414 3.31821 43.4414 3.37738C43.4502 3.43656 43.4766 3.47037 43.5383 3.49573C43.5735 3.5211 43.6175 3.52955 43.6616 3.52955C43.7672 3.538 43.8818 3.55491 43.9963 3.56336ZM46.4184 3.95222C46.4184 3.96068 46.4272 3.96913 46.4272 3.96913C46.4624 4.19737 46.4977 4.41716 46.5241 4.63695C46.5329 4.71303 46.5417 4.78066 46.5946 4.83983C46.709 4.98354 46.8852 4.96663 46.9645 4.81448C46.9997 4.73839 47.0085 4.66231 46.9909 4.57778C46.9381 4.32417 46.9116 4.07057 46.8588 3.82542C46.8235 3.67325 46.7795 3.52955 46.7355 3.39429C46.709 3.30976 46.6474 3.25058 46.5417 3.24213C46.436 3.22522 46.3567 3.27594 46.3127 3.35203C46.2599 3.41965 46.2158 3.48728 46.1806 3.56336C46.1189 3.69862 46.0661 3.83387 45.9957 3.96068C45.9868 3.99449 45.978 4.01985 45.9604 4.04521C45.9516 4.0283 45.9428 4.01985 45.9428 4.01985C45.8283 3.80851 45.7226 3.59718 45.6081 3.39429C45.5904 3.37738 45.5817 3.36048 45.5729 3.34357C45.52 3.26749 45.4584 3.22522 45.3615 3.22522C45.2734 3.23367 45.2029 3.2844 45.1589 3.36048C45.1413 3.39429 45.1413 3.41965 45.1325 3.45347C45.0972 3.72398 45.0532 3.99449 45.018 4.265C45.0003 4.41716 44.9915 4.56932 44.9915 4.72149C44.9827 4.7553 44.9915 4.79756 45.0091 4.83138C45.0268 4.89901 45.0796 4.94128 45.1501 4.94973C45.2381 4.95818 45.2998 4.93282 45.3262 4.86519C45.3526 4.81448 45.3615 4.77221 45.3703 4.72994C45.4055 4.57778 45.4319 4.43407 45.4584 4.29036C45.476 4.20583 45.4848 4.1382 45.5112 4.04521C45.5288 4.07902 45.5464 4.10439 45.5641 4.12974C45.6433 4.23119 45.7226 4.33263 45.8195 4.41716C45.9164 4.48479 45.9957 4.47634 46.0749 4.40025C46.0925 4.38335 46.1013 4.3749 46.1189 4.35798C46.1982 4.23964 46.2951 4.12129 46.3743 4.00294C46.392 3.98603 46.4008 3.96913 46.4184 3.95222Z" fill="#3A3B7B"/>
<path d="M26.1237 3.73019C26.0625 3.89084 26.0508 4.00659 26.0791 4.10279C26.1103 4.2336 26.1913 4.27643 26.3013 4.24316C27.3358 3.99763 29.6044 4.69455 30.4443 4.88879C30.6424 4.92958 30.8035 4.68417 30.6683 4.46413C30.4711 4.25105 28.2035 3.33876 27.3383 3.28902C26.9992 3.27062 26.3929 3.18715 26.1237 3.73019Z" fill="#3A3B7B"/>
<path d="M34.9906 0.776454C35.1008 0.837531 35.1625 0.895795 35.1929 0.960894C35.2382 1.04629 35.2143 1.10537 35.1382 1.13551C34.4543 1.45584 33.5443 2.83493 33.177 3.31057C33.088 3.41998 32.8826 3.3564 32.8516 3.17647C32.8579 2.97302 33.6646 1.4764 34.1148 1.06877C34.2917 0.909623 34.584 0.597351 34.9906 0.776454Z" fill="#3A3B7B"/>
<path d="M29.5449 0.0987292C29.6774 0.00291244 29.8151 -0.0306646 29.8854 0.0316042C30.9171 0.878502 31.4643 2.21964 31.8031 3.44742C31.8159 3.47603 31.8167 3.51707 31.8065 3.5599C31.8022 3.59649 31.7744 3.63516 31.7301 3.66507C31.6828 3.6981 31.6422 3.70816 31.623 3.6797C31.1708 3.08937 28.588 0.792504 29.5449 0.0987292Z" fill="#3A3B7B"/>
<path d="M7.69524 14.7808C7.94253 14.6041 8.21137 14.457 8.49586 14.3429C8.7935 14.2612 9.11075 14.2747 9.39967 14.3815C9.68851 14.4883 9.93338 14.6824 10.0971 14.9345C10.2435 15.186 10.3008 15.4764 10.2604 15.7619C10.2199 16.0474 10.084 16.3126 9.87289 16.5175C9.70926 16.6836 9.52348 16.8282 9.3205 16.9478C8.41582 17.5087 7.50308 18.0389 6.59039 18.5999C6.40363 18.7402 6.20551 18.8662 5.99793 18.9764C5.68217 19.1275 5.32132 19.168 4.97776 19.0908C4.6342 19.0137 4.32955 18.8237 4.11648 18.5538C3.95719 18.3627 3.82277 18.1537 3.71616 17.9313C2.8515 16.1871 1.95481 14.4504 1.12217 12.6754C0.737866 11.907 0.425627 11.0233 0.121393 10.1704C-0.010233 9.92253 -0.0359366 9.63524 0.0497553 9.36949C0.135447 9.10375 0.325774 8.88058 0.580249 8.74744C0.834727 8.6143 1.13327 8.58175 1.4124 8.65662C1.69152 8.73149 1.92921 8.90793 2.0749 9.14837C2.52271 9.71953 2.91911 10.3262 3.25981 10.9619C4.12448 12.4987 4.94912 14.0355 5.78176 15.5262C5.83024 15.6086 5.8837 15.6881 5.94188 15.7644C6.56859 15.5115 7.15803 15.1808 7.69524 14.7808Z" fill="#3A3B7B"/>
<path d="M16.6362 14.2476C14.6587 16.4683 11.3441 15.9073 9.67887 13.0489C8.49393 11.0203 8.28579 7.66996 10.8638 5.55683C11.4143 5.11443 12.0726 4.81306 12.7772 4.68084C13.6412 4.56196 14.5223 4.70825 15.2944 5.09881C16.0666 5.48938 16.6903 6.10421 17.0766 6.85546C18.4857 9.3144 18.2855 12.4495 16.6362 14.2476ZM15.8356 9.06849C15.6255 8.46423 15.2041 7.94836 14.6427 7.60847C14.325 7.39117 13.939 7.28552 13.5497 7.30931C13.1604 7.3331 12.7915 7.48489 12.505 7.7391C11.3602 8.71502 11.12 11.028 11.9526 12.4034C12.0587 12.6277 12.2146 12.827 12.4094 12.9874C12.6041 13.1479 12.8331 13.2655 13.0802 13.3321C13.3273 13.3987 13.5865 13.4127 13.8398 13.3731C14.0932 13.3334 14.3344 13.2411 14.5467 13.1027C15.1673 12.6408 15.6226 12.0049 15.8492 11.2834C16.076 10.5617 16.0628 9.79026 15.8116 9.0762L15.8356 9.06849Z" fill="#3A3B7B"/>
<path d="M24.706 10.0358C24.5036 10.0776 24.2944 10.0801 24.0909 10.0431C23.8875 10.0061 23.6937 9.93052 23.5212 9.82065C23.3702 9.73773 23.2402 9.62378 23.1405 9.48688C23.041 9.34999 22.9742 9.19365 22.9451 9.02901C22.916 8.86444 22.9253 8.69571 22.9723 8.53496C23.0193 8.37421 23.1029 8.22545 23.2169 8.09936C23.4157 7.84601 23.6978 7.66463 24.0175 7.58455C24.8523 7.35202 25.7117 7.21025 26.5795 7.16194C26.7702 7.14065 26.9634 7.15614 27.1477 7.20748C27.332 7.25889 27.5038 7.34503 27.653 7.46103C27.8021 7.57697 27.9257 7.72039 28.0163 7.88279C28.1069 8.04519 28.1628 8.22334 28.1807 8.40676C28.4309 9.30774 28.4583 10.2524 28.2608 11.1654C27.5403 14.1161 25.0583 15.1303 22.2722 14.1852C21.4901 13.9325 20.8044 13.4617 20.3027 12.8328C19.6335 12.0755 19.1591 11.178 18.9176 10.2125C18.7219 9.35276 18.7433 8.46061 18.9801 7.61045C19.2169 6.76029 19.6621 5.9768 20.2786 5.32542C20.8637 4.61744 21.6231 4.06026 22.4884 3.70406C23.0351 3.41482 23.6749 3.33258 24.2818 3.47354C24.4194 3.5101 24.5443 3.58135 24.6436 3.67989C24.743 3.77844 24.813 3.90068 24.8465 4.03395C24.88 4.16722 24.8757 4.30667 24.8341 4.43782C24.7925 4.56898 24.7152 4.68707 24.61 4.77984C24.4101 4.95354 24.1929 5.10797 23.9615 5.24089C23.2497 5.67593 22.6303 6.23652 22.1361 6.89296C21.8121 7.31775 21.589 7.80554 21.4825 8.32194C21.3759 8.83834 21.3886 9.37088 21.5196 9.88214C21.7012 10.5792 22.1041 11.2049 22.6725 11.6725C24.4338 13.2094 26.7236 11.7263 26.3233 9.62852C25.7389 9.76686 25.2265 9.91285 24.706 10.0358Z" fill="#3A3B7B"/>
<path d="M35.4656 14.3674C32.8637 15.9043 29.9014 14.3674 29.2528 11.1401C28.7805 8.83489 29.6772 5.60753 32.8156 4.37807C33.4834 4.12211 34.2077 4.03224 34.9212 4.1168C35.7786 4.26744 36.5651 4.67254 37.1698 5.27499C37.7745 5.87744 38.167 6.64684 38.2918 7.47479C38.8202 10.218 37.6193 13.1457 35.4656 14.3674ZM36.3704 9.196C36.3696 8.55767 36.1343 7.93997 35.7059 7.45172C35.4769 7.14972 35.1458 6.93334 34.7691 6.83942C34.3924 6.74557 33.9935 6.77997 33.6402 6.9369C32.2312 7.52086 31.2384 9.64168 31.5987 11.2016C31.6262 11.4464 31.7091 11.6825 31.8415 11.8933C31.974 12.1042 32.1529 12.2847 32.3657 12.4223C32.5784 12.5599 32.8199 12.6512 33.0732 12.6899C33.3266 12.7285 33.5857 12.7136 33.8324 12.6462C34.5772 12.3965 35.2221 11.9298 35.6771 11.3112C36.1321 10.6927 36.3745 9.95316 36.3704 9.196Z" fill="#3A3B7B"/>
<path d="M40.9227 15.0152C40.8834 15.2964 40.7294 15.5512 40.4944 15.7234C40.2594 15.8956 39.9627 15.9712 39.6697 15.9335C39.3767 15.8958 39.1113 15.7479 38.9319 15.5223C38.7524 15.2968 38.6737 15.0121 38.713 14.7309C38.7523 14.4496 38.9064 14.1949 39.1413 14.0227C39.3763 13.8505 39.673 13.7749 39.966 13.8126C40.259 13.8503 40.5244 13.9982 40.7039 14.2237C40.8833 14.4493 40.962 14.734 40.9227 15.0152ZM40.2261 4.64927C40.3784 4.42607 40.6018 4.2561 40.863 4.1647C41.1241 4.07331 41.4091 4.06538 41.6753 4.14212C41.9459 4.20712 42.185 4.35937 42.3527 4.5734C42.5203 4.78743 42.6062 5.05023 42.596 5.3178C42.5607 5.74698 42.4938 6.17323 42.3959 6.59335C42.1317 8.01494 41.8754 9.43647 41.5953 10.8427C41.4671 11.4037 41.299 11.9415 41.1148 12.5101C41.0508 12.6879 40.9438 12.8485 40.8026 12.9789C40.7149 13.077 40.6028 13.1522 40.4767 13.1976C40.3506 13.243 40.2147 13.2572 40.0814 13.2388C39.9481 13.2204 39.8217 13.1701 39.7141 13.0924C39.6065 13.0147 39.521 12.9123 39.4656 12.7945C39.3704 12.5832 39.3187 12.3561 39.3135 12.126C39.3135 11.1731 39.3135 10.2126 39.3775 9.25205C39.4864 7.88128 39.7004 6.52004 40.018 5.17948C40.0554 4.99988 40.1258 4.82812 40.2261 4.67233V4.64927Z" fill="#3A3B7B"/>
<path fill-rule="evenodd" clip-rule="evenodd" d="M4.31337 21.1899C4.21884 21.3925 4.19291 21.6183 4.23911 21.8356C4.26984 22.122 4.33734 22.4038 4.44006 22.6744C4.56832 23.0058 4.71184 23.3335 4.8888 23.7374C4.9295 23.8303 4.97202 23.9273 5.01653 24.0294C5.25516 24.5766 5.5546 25.2759 5.95399 26.2879C6.06704 26.5754 6.16743 26.8653 6.26852 27.1571C6.30935 27.275 6.35034 27.3933 6.39229 27.5119C6.54266 27.9335 6.8014 28.3122 7.14437 28.6123C7.29 28.7773 7.48317 28.8975 7.69978 28.9576C7.92061 29.0189 8.15547 29.015 8.37396 28.9465C8.59244 28.8779 8.78433 28.7478 8.92473 28.5731C9.06237 28.4018 9.14422 28.1953 9.16013 27.9797C9.24943 27.5596 9.21895 27.124 9.07177 26.719C8.83818 26.0465 8.5721 25.373 8.26525 24.7143L8.26384 24.7114C7.75906 23.6809 7.24596 22.6575 6.70857 21.6336L6.70455 21.6264C6.54724 21.3597 6.34279 21.1212 6.10041 20.9218C5.94305 20.7438 5.726 20.6237 5.4863 20.5823C5.24149 20.5401 4.989 20.5826 4.77392 20.7025C4.57045 20.814 4.40916 20.9847 4.31337 21.1899Z" fill="#3A3B7B"/>
<path fill-rule="evenodd" clip-rule="evenodd" d="M12.0233 18.6528C11.2319 18.456 10.4053 18.4274 9.60116 18.5688C8.97834 18.6277 8.3658 18.7656 7.94045 19.0387C7.72411 19.1777 7.54921 19.3562 7.45192 19.583C7.35409 19.8111 7.3416 20.072 7.42177 20.3627C7.56814 20.8951 7.75822 21.4127 7.94763 21.9287L7.97832 22.0123L7.97906 22.0142C8.54937 23.5132 9.12512 25.0071 9.70611 26.496C9.77385 26.7306 9.86967 26.9569 9.9916 27.1704L9.99388 27.1744C10.155 27.4396 10.3616 27.6768 10.6049 27.876C10.7267 27.9856 10.8772 28.0614 11.0404 28.0953C11.2053 28.1294 11.3767 28.1195 11.536 28.0665C11.6954 28.0136 11.8365 27.9197 11.9441 27.795C12.0499 27.6723 12.1192 27.5245 12.1447 27.3673C12.2497 26.9401 12.216 26.4922 12.0482 26.0838C11.9958 25.9464 11.9547 25.806 11.9114 25.6581C11.897 25.6088 11.8823 25.5587 11.8669 25.5076C13.1968 25.0087 14.6118 24.3378 15.1094 22.777C15.3043 22.2377 15.3205 21.6537 15.1559 21.1051C14.9911 20.5558 14.6531 20.069 14.1883 19.7117C13.5557 19.2114 12.8168 18.85 12.0233 18.6528ZM9.82945 20.5671C9.85563 20.5599 9.88202 20.5531 9.90847 20.5469C10.7743 20.4162 11.6601 20.5903 12.4028 21.0369C12.7302 21.2554 12.8642 21.4981 12.8873 21.7317C12.911 21.9722 12.8199 22.2328 12.6369 22.4834C12.291 22.9566 11.6599 23.3354 11.0898 23.406C10.6742 22.4873 10.2521 21.5315 9.82945 20.5671Z" fill="#3A3B7B"/>
<path d="M17.2998 16.9682C18.2424 16.5504 19.4099 16.4782 20.3235 16.772C20.5536 16.8363 20.7533 16.9754 20.8883 17.1656C21.0224 17.3545 21.0843 17.5822 21.0637 17.8099C21.0623 17.9577 21.0245 18.1031 20.9534 18.2342C20.881 18.3677 20.7762 18.4826 20.6478 18.569C20.5195 18.6554 20.3713 18.711 20.2158 18.7308C20.0603 18.7507 19.9022 18.7344 19.7547 18.6832L19.7435 18.6793L19.733 18.674C19.6575 18.6361 19.5773 18.6075 19.4944 18.5889L19.4892 18.5878C18.8465 18.424 18.2402 18.6954 18.0188 19.029C17.9132 19.188 17.9001 19.3486 17.988 19.4947C18.0822 19.6511 18.3133 19.8266 18.7808 19.9517C18.9094 19.9855 19.0412 20.0182 19.1749 20.0515C19.5446 20.1433 19.9287 20.2388 20.3002 20.371L20.3017 20.3716C22.0155 20.9974 22.6537 22.2937 22.4353 23.5129C22.2191 24.7185 21.17 25.8158 19.5924 26.0746C19.0183 26.1968 18.4209 26.173 17.8592 26.0056C17.2961 25.8377 16.7886 25.5315 16.387 25.117L16.3766 25.1062C16.2498 24.9501 16.1645 24.7667 16.1267 24.572C16.0919 24.3964 16.1103 24.2149 16.1794 24.0488C16.2482 23.8838 16.3645 23.741 16.5145 23.6369C16.6731 23.5189 16.8641 23.4481 17.0642 23.4334C17.2635 23.4187 17.463 23.4603 17.638 23.5529C17.8129 23.634 17.9755 23.7374 18.1215 23.8604L18.1242 23.8626C18.3824 24.0893 18.6949 24.1484 18.9945 24.0937C19.2984 24.0382 19.5842 23.8655 19.7681 23.6365C19.9507 23.4089 20.024 23.1386 19.937 22.8761C19.8494 22.6118 19.5862 22.3156 19.0077 22.0679C18.8565 22.0063 18.6998 21.9566 18.5367 21.9082C18.4927 21.8952 18.448 21.8822 18.4027 21.869C18.2821 21.8339 18.1581 21.7977 18.0364 21.7578C17.9526 21.7304 17.8695 21.7045 17.7872 21.6787C17.5622 21.6084 17.3428 21.5398 17.1317 21.4479C16.6722 21.2977 16.2753 21.0094 15.9999 20.6257C15.7235 20.2404 15.5843 19.7796 15.6033 19.3122C15.6047 18.173 16.3522 17.3883 17.2998 16.9682Z" fill="#3A3B7B"/>
<path d="M29.2479 16.8498C29.0651 16.7641 28.863 16.7235 28.6599 16.7315C28.4566 16.7395 28.2587 16.7959 28.0839 16.8958C27.9102 16.9949 27.7648 17.1337 27.6606 17.2999C27.565 17.4398 27.4989 17.5962 27.4659 17.7606C27.433 17.9247 27.4338 18.0935 27.4682 18.2572C27.5023 18.4678 27.54 18.6725 27.5773 18.8744C27.639 19.2084 27.699 19.535 27.7386 19.868L27.7401 19.8764C27.8302 20.3986 27.8774 20.9268 27.8817 21.456L27.8821 21.4635C27.9129 22.0351 27.71 22.5955 27.3169 23.0259L27.3106 23.0335C27.1827 23.1909 27.0117 23.311 26.8167 23.3804C26.6217 23.4498 26.4104 23.4657 26.2065 23.4264C26.0026 23.3871 25.8141 23.2942 25.6621 23.158C25.5101 23.0217 25.4005 22.8471 25.3458 22.6546C25.2289 22.2488 25.1613 21.8314 25.1441 21.4107L25.3437 18.3616C25.3466 18.3218 25.35 18.2809 25.3534 18.2396C25.361 18.147 25.3688 18.0527 25.372 17.9647C25.3767 17.8353 25.3727 17.7022 25.3413 17.5761C25.3091 17.4474 25.2479 17.3248 25.1394 17.2205C25.032 17.1172 24.887 17.041 24.7045 16.9892C24.3745 16.8975 24.0954 16.9004 23.8629 16.9951C23.6303 17.0898 23.4709 17.2656 23.3581 17.4688C23.2461 17.6702 23.1742 17.9087 23.1198 18.1475C23.0795 18.3247 23.0471 18.5108 23.0162 18.6879C23.0056 18.7489 22.9952 18.8088 22.9846 18.867L22.9843 18.8688C22.8194 19.84 22.7704 20.8261 22.838 21.808C22.8507 22.3387 22.9659 22.8624 23.1781 23.3526C23.4175 23.9851 23.851 24.533 24.4215 24.9242C24.9933 25.3162 25.6755 25.5322 26.3779 25.5436C27.0804 25.555 27.7699 25.3613 28.3551 24.9881C28.9394 24.6156 29.3922 24.0816 29.6536 23.4568C30.0194 22.661 30.1911 21.7954 30.1557 20.9262C30.1342 20.2917 30.0982 19.6522 30.0624 19.016C30.0448 18.7039 30.0273 18.3925 30.0116 18.083C30.0037 17.7726 29.897 17.472 29.7059 17.2215C29.5877 17.0631 29.4303 16.9354 29.2479 16.8498Z" fill="#3A3B7B"/>
<path d="M35.7175 21.6291C35.699 21.6517 35.6794 21.6751 35.659 21.6994C35.5104 20.8763 35.3726 20.0535 35.2346 19.2295C35.1851 18.9338 35.1354 18.6369 35.0853 18.3408L35.0797 18.3078L35.0614 18.2793C35.027 18.2255 35.0236 18.1729 35.0236 18.0606V18.0476L35.0215 18.0347C34.9842 17.8028 34.8748 17.587 34.7079 17.4155C34.5413 17.2444 34.3251 17.1254 34.0872 17.0737C33.8497 17.0175 33.6001 17.0299 33.3699 17.1094C33.1403 17.1887 32.9401 17.3312 32.7944 17.519C32.6733 17.6631 32.574 17.823 32.4996 17.9939C32.3307 18.3619 32.1604 18.7309 31.9896 19.1008L31.9866 19.1072C31.5602 20.0308 31.1309 20.9606 30.7141 21.8977L30.7128 21.9007C30.4569 22.5083 30.2457 23.1486 30.0352 23.7868C29.9932 23.9142 29.9511 24.0416 29.9088 24.1686C29.8328 24.37 29.7995 24.5839 29.8109 24.7978C29.7971 24.9893 29.8448 25.1803 29.9478 25.345C30.0528 25.513 30.2102 25.6453 30.3976 25.7231C30.5962 25.8067 30.8182 25.8244 31.0286 25.7735C31.2385 25.7227 31.4248 25.6064 31.5584 25.443C31.7289 25.2416 31.8756 25.022 31.9953 24.7894C32.3484 24.0961 32.6859 23.3945 33.0218 22.6958C33.1518 22.4256 33.2781 22.1836 33.4217 21.92C33.4316 21.9525 33.4417 21.9842 33.4521 22.016C33.6027 22.6523 33.8569 23.2619 34.2053 23.8222C34.2712 23.9409 34.3631 24.0447 34.4745 24.1263C34.5873 24.209 34.7175 24.267 34.856 24.2964C34.9946 24.3259 35.1381 24.326 35.2767 24.2968C35.4151 24.2677 35.5457 24.2096 35.6585 24.1274L35.8819 23.9669L37.6158 22.5652L37.5132 23.1923C37.3725 24.0543 37.2328 24.9092 37.0844 25.7642C36.9874 26.1432 36.9875 26.5391 37.0849 26.9179C37.127 27.1311 37.2344 27.3274 37.3934 27.4818C37.5538 27.6374 37.7591 27.7431 37.9828 27.7853C38.2065 27.8274 38.4383 27.804 38.648 27.7182C38.8547 27.6336 39.0305 27.4922 39.1533 27.3119C39.4392 26.9715 39.6171 26.5594 39.666 26.1246C39.7396 25.5105 39.8227 24.8882 39.9059 24.266C40.0017 23.5488 40.0976 22.8319 40.1785 22.1287L40.1787 22.1265C40.2566 21.3568 40.2943 20.5838 40.2917 19.8105C40.3087 19.5661 40.2453 19.3226 40.1102 19.1145C39.9747 18.9057 39.7739 18.7434 39.5366 18.6505C39.2898 18.5428 39.0135 18.514 38.7484 18.5685C38.485 18.6225 38.2466 18.7558 38.0677 18.9488C37.7479 19.2327 37.4479 19.5365 37.1696 19.8582L37.1677 19.8604C36.8639 20.2237 36.5621 20.5942 36.2624 20.9623C36.0801 21.186 35.8983 21.4093 35.7175 21.6291Z" fill="#3A3B7B"/>
</g>
<defs>
<clipPath id="clip0_574_110">
<rect width="47" height="29" fill="white"/>
</clipPath>
</defs>
</svg>
