<svg width="155" height="24" viewBox="0 0 155 24" fill="none" xmlns="http://www.w3.org/2000/svg">
<path d="M18.7866 13.1338L13.3956 22.3667L8.00473 13.1338H18.7866ZM20.2308 12.3086H6.55469L13.3956 23.9998L20.2308 12.3086Z" fill="#263238"/>
<path d="M28.1593 1.65038L33.5502 10.8833H22.7684L28.1593 1.65038ZM28.1593 0L21.3184 11.6912H35.0003L28.1593 0Z" fill="#263238"/>
<path d="M0 0L5.7359 10.3409L12.0038 0.259661L0 0Z" fill="#4CAF4F"/>
<path d="M13.3954 0.90625L19.412 11.1894H7.36719L13.3954 0.90625Z" fill="#4CAF4F"/>
<path d="M20.9612 13.4336L26.9836 23.9995H14.6523L20.7741 13.4336H20.9612Z" fill="#4CAF4F"/>
<path d="M22.2656 12.793L28.1594 23.1973L34.135 12.793H22.2656Z" fill="#4CAF4F"/>
<path d="M60.0327 1.66797V22.0316H56.3139L47.4545 9.21484H47.3054V22.0316H43V1.66797H46.7784L55.5682 14.4748H55.7472V1.66797H60.0327Z" fill="#263238"/>
<path d="M70.4705 22.3299C68.8995 22.3299 67.5472 22.0117 66.4137 21.3754C65.2868 20.7324 64.4184 19.8242 63.8086 18.6509C63.1987 17.471 62.8938 16.0756 62.8938 14.4648C62.8938 12.8938 63.1987 11.515 63.8086 10.3285C64.4184 9.14193 65.2769 8.21721 66.3839 7.55433C67.4975 6.89145 68.8034 6.56001 70.3015 6.56001C71.3091 6.56001 72.247 6.72242 73.1154 7.04723C73.9904 7.36541 74.7527 7.846 75.4023 8.48899C76.0586 9.13198 76.569 9.9407 76.9336 10.9151C77.2982 11.8829 77.4805 13.0165 77.4805 14.3157V15.479H64.5842V12.854H73.4933C73.4933 12.2442 73.3607 11.704 73.0955 11.2333C72.8304 10.7627 72.4625 10.3948 71.9918 10.1296C71.5278 9.85784 70.9876 9.72195 70.3711 9.72195C69.7281 9.72195 69.158 9.87109 68.6609 10.1694C68.1703 10.4611 67.7859 10.8555 67.5075 11.3526C67.229 11.8432 67.0865 12.39 67.0799 12.9933V15.489C67.0799 16.2447 67.2191 16.8976 67.4975 17.4478C67.7826 17.998 68.1836 18.4222 68.7006 18.7205C69.2177 19.0188 69.8308 19.168 70.5401 19.168C71.0108 19.168 71.4416 19.1017 71.8327 18.9691C72.2238 18.8365 72.5586 18.6377 72.837 18.3725C73.1154 18.1074 73.3275 17.7826 73.4734 17.3981L77.391 17.6566C77.1921 18.5979 76.7844 19.4199 76.168 20.1225C75.5581 20.8185 74.7693 21.3621 73.8015 21.7532C72.8403 22.1377 71.73 22.3299 70.4705 22.3299Z" fill="#263238"/>
<path d="M83.511 6.75888L86.315 12.0984L89.1886 6.75888H93.5337L89.109 14.3952L93.6531 22.0316H89.3278L86.315 16.7518L83.3519 22.0316H78.9769L83.511 14.3952L79.136 6.75888H83.511Z" fill="#263238"/>
<path d="M102.403 22.3299C100.839 22.3299 99.493 21.9985 98.3661 21.3356C97.2459 20.6661 96.3841 19.738 95.7809 18.5515C95.1843 17.3649 94.886 15.9994 94.886 14.4549C94.886 12.8905 95.1876 11.5183 95.7908 10.3384C96.4007 9.15187 97.2657 8.22715 98.386 7.56427C99.5063 6.89477 100.839 6.56001 102.383 6.56001C103.716 6.56001 104.882 6.80197 105.883 7.28587C106.884 7.76977 107.676 8.44922 108.26 9.32422C108.843 10.1992 109.164 11.2267 109.224 12.4066H105.227C105.114 11.6443 104.816 11.0311 104.332 10.5671C103.855 10.0965 103.228 9.86115 102.453 9.86115C101.797 9.86115 101.223 10.0401 100.733 10.3981C100.249 10.7494 99.8709 11.2631 99.5991 11.9393C99.3273 12.6154 99.1914 13.4341 99.1914 14.3952C99.1914 15.3697 99.324 16.1983 99.5891 16.881C99.8609 17.5638 100.242 18.0842 100.733 18.4421C101.223 18.8001 101.797 18.979 102.453 18.979C102.937 18.979 103.371 18.8796 103.755 18.6808C104.146 18.4819 104.468 18.1935 104.72 17.8157C104.978 17.4312 105.147 16.9705 105.227 16.4336H109.224C109.158 17.6003 108.84 18.6277 108.27 19.516C107.706 20.3976 106.927 21.087 105.933 21.5842C104.939 22.0813 103.762 22.3299 102.403 22.3299Z" fill="#263238"/>
<path d="M118.896 22.3299C117.325 22.3299 115.973 22.0117 114.839 21.3754C113.713 20.7324 112.844 19.8242 112.234 18.6509C111.625 17.471 111.32 16.0756 111.32 14.4648C111.32 12.8938 111.625 11.515 112.234 10.3285C112.844 9.14193 113.703 8.21721 114.81 7.55433C115.923 6.89145 117.229 6.56001 118.727 6.56001C119.735 6.56001 120.673 6.72242 121.541 7.04723C122.416 7.36541 123.179 7.846 123.828 8.48899C124.484 9.13198 124.995 9.9407 125.359 10.9151C125.724 11.8829 125.906 13.0165 125.906 14.3157V15.479H113.01V12.854H121.919C121.919 12.2442 121.786 11.704 121.521 11.2333C121.256 10.7627 120.888 10.3948 120.418 10.1296C119.954 9.85784 119.413 9.72195 118.797 9.72195C118.154 9.72195 117.584 9.87109 117.087 10.1694C116.596 10.4611 116.212 10.8555 115.933 11.3526C115.655 11.8432 115.512 12.39 115.506 12.9933V15.489C115.506 16.2447 115.645 16.8976 115.923 17.4478C116.208 17.998 116.609 18.4222 117.126 18.7205C117.643 19.0188 118.257 19.168 118.966 19.168C119.437 19.168 119.867 19.1017 120.259 18.9691C120.65 18.8365 120.984 18.6377 121.263 18.3725C121.541 18.1074 121.753 17.7826 121.899 17.3981L125.817 17.6566C125.618 18.5979 125.21 19.4199 124.594 20.1225C123.984 20.8185 123.195 21.3621 122.227 21.7532C121.266 22.1377 120.156 22.3299 118.896 22.3299Z" fill="#263238"/>
<path d="M132.906 13.2021V22.0316H128.67V6.75888H132.707V9.45348H132.886C133.224 8.56522 133.791 7.86257 134.587 7.34552C135.382 6.82185 136.347 6.56001 137.48 6.56001C138.541 6.56001 139.465 6.79202 140.254 7.25604C141.043 7.72005 141.656 8.38293 142.094 9.24467C142.531 10.0998 142.75 11.1206 142.75 12.3072V22.0316H138.514V13.0629C138.521 12.1282 138.282 11.399 137.798 10.8754C137.314 10.3451 136.648 10.0799 135.8 10.0799C135.23 10.0799 134.726 10.2025 134.288 10.4478C133.857 10.6931 133.519 11.051 133.274 11.5217C133.036 11.9857 132.913 12.5458 132.906 13.2021Z" fill="#263238"/>
<path d="M154.212 6.75888V9.9407H145.015V6.75888H154.212ZM147.103 3.09979H151.338V17.3384C151.338 17.7295 151.398 18.0344 151.517 18.2532C151.637 18.4653 151.802 18.6145 152.015 18.7006C152.233 18.7868 152.485 18.8299 152.77 18.8299C152.969 18.8299 153.168 18.8133 153.367 18.7802C153.566 18.7404 153.718 18.7106 153.824 18.6907L154.49 21.8427C154.278 21.909 153.98 21.9852 153.596 22.0714C153.211 22.1642 152.744 22.2205 152.194 22.2404C151.173 22.2802 150.278 22.1443 149.509 21.8327C148.747 21.5212 148.153 21.0373 147.729 20.381C147.305 19.7248 147.096 18.8962 147.103 17.8952V3.09979Z" fill="#263238"/>
</svg>
