<svg width="65" height="56" viewBox="0 0 65 56" fill="none" xmlns="http://www.w3.org/2000/svg">
<path d="M65 38C65 47.9411 56.9411 56 47 56L20 56C17.2386 56 15 53.7614 15 51L15 17C15 11.4772 19.4772 7 25 7L60 7C62.7614 7 65 9.23858 65 12L65 38Z" fill="#E8F5E9"/>
<path d="M26.9172 19.0106C26.6052 19.0106 26.3516 18.7574 26.3516 18.445V17.4836C26.3516 17.1716 26.6048 16.918 26.9172 16.918C27.2293 16.918 27.4829 17.1712 27.4829 17.4836V18.445C27.4829 18.7574 27.2293 19.0106 26.9172 19.0106Z" fill="#103E13"/>
<path d="M24.5383 19.0106C24.2263 19.0106 23.9727 18.7574 23.9727 18.445V17.4836C23.9727 17.1716 24.2259 16.918 24.5383 16.918C24.8504 16.918 25.104 17.1712 25.104 17.4836V18.445C25.1036 18.7574 24.8508 19.0106 24.5383 19.0106Z" fill="#103E13"/>
<path d="M22.1594 19.0106C21.8474 19.0106 21.5938 18.7574 21.5938 18.445V17.4836C21.5938 17.1716 21.847 16.918 22.1594 16.918C22.4714 16.918 22.7251 17.1712 22.7251 17.4836V18.445C22.7251 18.7574 22.4719 19.0106 22.1594 19.0106Z" fill="#103E13"/>
<path d="M26.9172 22.9438C26.6052 22.9438 26.3516 22.6906 26.3516 22.3782V21.4172C26.3516 21.1052 26.6048 20.8516 26.9172 20.8516C27.2293 20.8516 27.4829 21.1048 27.4829 21.4172V22.3782C27.4829 22.6906 27.2293 22.9438 26.9172 22.9438Z" fill="#103E13"/>
<path d="M24.5383 22.9438C24.2263 22.9438 23.9727 22.6906 23.9727 22.3782V21.4172C23.9727 21.1052 24.2259 20.8516 24.5383 20.8516C24.8504 20.8516 25.104 21.1048 25.104 21.4172V22.3782C25.1036 22.6906 24.8508 22.9438 24.5383 22.9438Z" fill="#103E13"/>
<path d="M22.1594 22.9438C21.8474 22.9438 21.5938 22.6906 21.5938 22.3782V21.4172C21.5938 21.1052 21.847 20.8516 22.1594 20.8516C22.4714 20.8516 22.7251 21.1048 22.7251 21.4172V22.3782C22.7251 22.6906 22.4719 22.9438 22.1594 22.9438Z" fill="#103E13"/>
<path d="M26.9172 26.8739C26.6052 26.8739 26.3516 26.6207 26.3516 26.3082V25.3469C26.3516 25.0349 26.6048 24.7812 26.9172 24.7812C27.2293 24.7812 27.4829 25.0345 27.4829 25.3469V26.3082C27.4829 26.6207 27.2293 26.8739 26.9172 26.8739Z" fill="#103E13"/>
<path d="M24.5383 26.8739C24.2263 26.8739 23.9727 26.6207 23.9727 26.3082V25.3469C23.9727 25.0349 24.2259 24.7812 24.5383 24.7812C24.8504 24.7812 25.104 25.0345 25.104 25.3469V26.3082C25.1036 26.6207 24.8508 26.8739 24.5383 26.8739Z" fill="#103E13"/>
<path d="M22.1594 26.8739C21.8474 26.8739 21.5938 26.6207 21.5938 26.3082V25.3469C21.5938 25.0349 21.847 24.7812 22.1594 24.7812C22.4714 24.7812 22.7251 25.0345 22.7251 25.3469V26.3082C22.7251 26.6207 22.4719 26.8739 22.1594 26.8739Z" fill="#103E13"/>
<path d="M26.9172 30.8036C26.6052 30.8036 26.3516 30.5504 26.3516 30.2379V29.2766C26.3516 28.9646 26.6048 28.7109 26.9172 28.7109C27.2293 28.7109 27.4829 28.9642 27.4829 29.2766V30.2379C27.4829 30.5504 27.2293 30.8036 26.9172 30.8036Z" fill="#103E13"/>
<path d="M24.5383 30.8036C24.2263 30.8036 23.9727 30.5504 23.9727 30.2379V29.2766C23.9727 28.9646 24.2259 28.7109 24.5383 28.7109C24.8504 28.7109 25.104 28.9642 25.104 29.2766V30.2379C25.1036 30.5504 24.8508 30.8036 24.5383 30.8036Z" fill="#103E13"/>
<path d="M22.1594 30.8036C21.8474 30.8036 21.5938 30.5504 21.5938 30.2379V29.2766C21.5938 28.9646 21.847 28.7109 22.1594 28.7109C22.4714 28.7109 22.7251 28.9642 22.7251 29.2766V30.2379C22.7251 30.5504 22.4719 30.8036 22.1594 30.8036Z" fill="#103E13"/>
<path d="M26.9172 34.7368C26.6052 34.7368 26.3516 34.4836 26.3516 34.1711V33.2102C26.3516 32.8982 26.6048 32.6445 26.9172 32.6445C27.2293 32.6445 27.4829 32.8978 27.4829 33.2102V34.1711C27.4829 34.4832 27.2293 34.7368 26.9172 34.7368Z" fill="#103E13"/>
<path d="M24.5383 34.7368C24.2263 34.7368 23.9727 34.4836 23.9727 34.1711V33.2102C23.9727 32.8982 24.2259 32.6445 24.5383 32.6445C24.8504 32.6445 25.104 32.8978 25.104 33.2102V34.1711C25.1036 34.4832 24.8508 34.7368 24.5383 34.7368Z" fill="#103E13"/>
<path d="M22.1594 34.7368C21.8474 34.7368 21.5938 34.4836 21.5938 34.1711L21.5941 33.2102C21.5941 32.8982 21.8474 32.6445 22.1598 32.6445C22.4718 32.6445 22.7255 32.8978 22.7255 33.2102V34.1711C22.7251 34.4832 22.4719 34.7368 22.1594 34.7368V34.7368Z" fill="#103E13"/>
<path d="M6.00047 38.6471C6.00047 38.9592 6.25372 39.2128 6.56615 39.2128H41.0139C41.3259 39.2128 41.5796 38.9596 41.5796 38.6471C41.5796 38.3351 41.3263 38.0815 41.0139 38.0815H39.9682V21.8402C39.9682 21.5281 39.715 21.2745 39.4025 21.2745L30.1668 21.2749V9.56576C30.1668 9.36774 30.0635 9.18471 29.8946 9.08214C29.7262 8.97919 29.5156 8.97287 29.3404 9.06399L18.8401 14.531C18.6527 14.6284 18.5359 14.8217 18.5359 15.0327V25.2604H8.37388C8.06186 25.2604 7.8082 25.5137 7.8082 25.8261V38.0816H6.56489C6.25287 38.0812 6 38.3344 6 38.6468L6.00047 38.6471ZM30.167 29.8422H38.8374V38.0819L30.167 38.0815V29.8422ZM30.167 25.9113H38.8374V28.7113L30.167 28.7109V25.9113ZM30.167 22.4056H38.8374V24.7808H30.167V22.4056ZM19.6667 15.3762L29.0353 10.4982V38.081H19.6667V15.3762ZM11.7359 33.5635C11.7359 32.3895 12.666 31.4341 13.8096 31.4341C14.9531 31.4341 15.8837 32.3891 15.8837 33.5635V38.0817H11.7359V33.5635ZM8.93952 26.3916H18.5358V38.0815H17.015V33.5633C17.015 31.7657 15.5776 30.303 13.8096 30.303C12.0424 30.303 10.605 31.7653 10.605 33.5633V38.0815H8.93952V26.3916Z" fill="#103E13"/>
</svg>
