<svg width="47" height="32" viewBox="0 0 47 32" fill="none" xmlns="http://www.w3.org/2000/svg">
<path d="M22.542 21.3111L23.1493 20.8002C24.9544 19.2817 26.2488 17.2449 26.8571 14.9659C27.4655 12.687 27.3583 10.276 26.5502 8.05998C25.742 5.84395 24.272 3.93002 22.3394 2.57768C20.4067 1.22534 18.105 0.5 15.7462 0.5C13.3874 0.5 11.0857 1.22534 9.15303 2.57768C7.2204 3.93002 5.75036 5.84395 4.94221 8.05998C4.13406 10.276 4.0269 12.687 4.63525 14.9659C5.2436 17.2449 6.53804 19.2817 8.34307 20.8002L8.95042 21.3111L8.22734 21.6384C5.25417 22.9838 2.69569 25.1011 0.817879 27.7702L22.542 21.3111ZM22.542 21.3111L23.2651 21.6384M22.542 21.3111L23.2651 21.6384M23.2651 21.6384C26.2384 22.9839 28.7969 25.1013 30.6748 27.7705L30.6819 27.7807L30.6896 27.7905C30.8354 27.9774 30.9418 28.1919 31.0023 28.4212C31.0627 28.6504 31.0759 28.8896 31.0411 29.1241C31.0063 29.3586 30.9242 29.5836 30.7999 29.7854C30.6755 29.9873 30.5114 30.1617 30.3175 30.2982C30.1237 30.4347 29.9041 30.5304 29.6722 30.5794C29.4402 30.6285 29.2007 30.6299 28.9682 30.5836C28.7357 30.5373 28.515 30.4442 28.3196 30.31C28.1241 30.1758 27.958 30.0033 27.8312 29.803L27.8248 29.7928L27.8179 29.783C26.4572 27.845 24.6498 26.263 22.5487 25.1709C20.4475 24.0788 18.1142 23.5087 15.7462 23.5087C13.3782 23.5087 11.0449 24.0788 8.94374 25.1709C6.84256 26.263 5.03521 27.845 3.67449 29.783L3.67337 29.7846C3.51341 30.0143 3.30014 30.2019 3.05182 30.3311C2.80351 30.4603 2.52756 30.5274 2.24764 30.5266L2.24457 30.5266C1.88557 30.5278 1.53527 30.4161 1.2432 30.2073L1.2408 30.2056M23.2651 21.6384L1.2408 30.2056M1.2408 30.2056C0.862222 29.9384 0.605096 29.5319 0.525813 29.0753C0.446554 28.6189 0.551502 28.1497 0.817639 27.7705L1.2408 30.2056ZM45.5363 30.2031L45.5363 30.2032C45.7249 30.0724 45.8856 29.9055 46.009 29.7121C46.1325 29.5188 46.2163 29.3027 46.2556 29.0767C46.2948 28.8506 46.2887 28.619 46.2377 28.3953C46.1867 28.1716 46.0916 27.9603 45.9582 27.7736L45.956 27.7705C44.0782 25.1013 41.5196 22.9839 38.5463 21.6384L37.8212 21.3102L38.4315 20.7994C40.2414 19.2845 41.5404 17.2486 42.1517 14.9689C42.763 12.6893 42.6569 10.2766 41.8478 8.05937C41.0387 5.84218 39.5659 3.92821 37.63 2.57807C35.6941 1.22793 33.3891 0.507224 31.0289 0.514078L31.0266 0.514085C29.9763 0.512335 28.9308 0.657368 27.9206 0.944972L27.9116 0.947526L27.9116 0.947442C27.6872 1.00682 27.4769 1.11025 27.2929 1.25169C27.1088 1.39314 26.9548 1.56978 26.8397 1.77134C26.7246 1.97289 26.6507 2.19533 26.6224 2.42571C26.5941 2.65608 26.6119 2.88979 26.6747 3.11322C26.7376 3.33666 26.8443 3.54535 26.9886 3.72715L26.6101 4.02753L26.9886 3.72715C27.1329 3.90896 27.3119 4.06024 27.5152 4.17219C27.7186 4.28414 27.9421 4.35453 28.1729 4.37925C28.4037 4.40397 28.6371 4.38254 28.8595 4.31619L28.8653 4.31448L28.8653 4.31451C29.5687 4.11383 30.2969 4.0127 31.0284 4.01408M45.5363 30.2031L42.6899 30.0703L43.0986 29.7823C43.0985 29.7821 43.0984 29.7819 43.0982 29.7817C41.7347 27.8474 39.927 26.2687 37.8267 25.1781C35.7263 24.0873 33.3948 23.5167 31.028 23.5141H31.0275C30.5633 23.5141 30.1182 23.3297 29.79 23.0015C29.4618 22.6733 29.2775 22.2282 29.2775 21.7641C29.2775 21.3 29.4618 20.8548 29.79 20.5266C30.1182 20.1985 30.5633 20.0141 31.0275 20.0141C33.1492 20.0141 35.184 19.1712 36.6843 17.6709C38.1846 16.1706 39.0275 14.1358 39.0275 12.0141C39.0275 9.89235 38.1846 7.85752 36.6843 6.35723C35.1842 4.85716 33.1498 4.01433 31.0284 4.01408M45.5363 30.2031L45.5305 30.2073M45.5363 30.2031L45.5305 30.2073M31.0284 4.01408L31.0275 4.51408V4.01408C31.0278 4.01408 31.0281 4.01408 31.0284 4.01408ZM38.7524 21.1828L38.9586 20.7273C39.0274 20.7584 39.0959 20.7899 39.1642 20.8218C39.03 20.9451 38.8927 21.0655 38.7524 21.1828ZM38.7524 21.1828L39.0734 21.5662C39.1325 21.5168 39.191 21.4668 39.2491 21.4164C39.0848 21.3362 38.9193 21.2583 38.7524 21.1828ZM45.5305 30.2073C45.2385 30.4159 44.8885 30.5276 44.5297 30.5266L45.5305 30.2073ZM9.09444 7.56952C8.21539 8.88511 7.7462 10.4318 7.7462 12.0141C7.7462 14.1358 8.58905 16.1706 10.0893 17.6709C11.5896 19.1712 13.6245 20.0141 15.7462 20.0141C17.3284 20.0141 18.8752 19.5449 20.1908 18.6658C21.5064 17.7868 22.5317 16.5374 23.1372 15.0755C23.7427 13.6137 23.9012 12.0052 23.5925 10.4534C23.2838 8.90151 22.5219 7.47605 21.4031 6.35723C20.2842 5.23841 18.8588 4.47648 17.3069 4.1678C15.7551 3.85912 14.1465 4.01754 12.6847 4.62304C11.2229 5.22855 9.97349 6.25393 9.09444 7.56952Z" fill="#4CAF4F" stroke="#4CAF4F"/>
</svg>
