<svg width="442" height="329" viewBox="0 0 442 329" fill="none" xmlns="http://www.w3.org/2000/svg">
<path d="M220.766 328.997C315.327 328.997 391.984 324.521 391.984 319C391.984 313.479 315.327 309.004 220.766 309.004C126.206 309.004 49.5488 313.479 49.5488 319C49.5488 324.521 126.206 328.997 220.766 328.997Z" fill="#F5F5F5"/>
<path d="M308.411 95.751L299.651 92.2188C299.651 92.2188 288.092 113.298 284.78 114.366C280.277 115.814 270.952 119.841 265.424 120.547C264.673 121.431 263.445 124.177 263.56 125.175C270.987 127.656 287.306 124.362 290.803 121.766C298.759 115.876 308.411 95.751 308.411 95.751Z" fill="#E58A7B"/>
<path d="M311.104 90.9529C312.738 96.9842 303.89 109.118 303.89 109.118L292.295 102.618C292.295 102.618 294.467 97.6289 297.116 92.5512C301.364 84.3476 309.241 84.0738 311.104 90.9529Z" fill="#4CAF4F"/>
<path opacity="0.2" d="M311.104 90.9529C312.738 96.9842 303.89 109.118 303.89 109.118L292.295 102.618C292.295 102.618 294.467 97.6289 297.116 92.5512C301.364 84.3476 309.241 84.0738 311.104 90.9529Z" fill="black"/>
<path opacity="0.2" d="M296.895 105.215L301.46 107.776L302.264 93.7617C299.606 95.8016 297.733 101.948 296.895 105.215Z" fill="black"/>
<path d="M303.474 86.4159C303.474 86.4159 294.45 106.497 299.713 143.886H335.274C335.839 138.428 333.967 111.795 340.74 86.0803C336.839 85.3179 332.892 84.8135 328.924 84.5703C323.892 84.2787 318.847 84.2787 313.815 84.5703C310.327 84.9245 306.87 85.5414 303.474 86.4159Z" fill="#4CAF4F"/>
<path opacity="0.2" d="M303.474 86.4159C303.474 86.4159 294.45 106.497 299.713 143.886H335.274C335.839 138.428 333.967 111.795 340.74 86.0803C336.839 85.3179 332.892 84.8135 328.924 84.5703C323.892 84.2787 318.847 84.2787 313.815 84.5703C310.327 84.9245 306.87 85.5414 303.474 86.4159Z" fill="black"/>
<g style="mix-blend-mode:multiply">
<path d="M295.227 319.791C295.174 320.745 308.658 321.513 325.339 321.513C342.02 321.513 355.602 320.745 355.655 319.791C355.708 318.838 342.232 318.078 325.542 318.078C308.852 318.078 295.289 318.846 295.227 319.791Z" fill="#E8ECF1"/>
</g>
<path d="M318.963 294.734L312.656 297.176L318.089 311.211L324.396 308.769L318.963 294.734Z" fill="#E58A7B"/>
<path d="M347.089 313.001H340.439L338.002 297.609H344.651L347.089 313.001Z" fill="#E58A7B"/>
<path d="M339.98 312.234H347.451C347.58 312.235 347.706 312.281 347.804 312.365C347.903 312.449 347.968 312.566 347.989 312.694L348.952 318.601C348.972 318.75 348.96 318.9 348.917 319.044C348.874 319.187 348.8 319.319 348.702 319.431C348.603 319.544 348.481 319.633 348.344 319.694C348.208 319.755 348.059 319.786 347.91 319.785C345.305 319.74 344.051 319.581 340.766 319.581C338.744 319.581 334.584 319.793 331.776 319.793C328.968 319.793 328.783 317.038 329.939 316.782C335.132 315.661 337.145 314.133 338.876 312.649C339.181 312.381 339.574 312.234 339.98 312.234Z" fill="#263238"/>
<path d="M317.903 309.955L324.967 307.889C325.093 307.853 325.228 307.862 325.348 307.913C325.469 307.965 325.568 308.056 325.63 308.171L328.279 313.47C328.34 313.604 328.372 313.75 328.371 313.898C328.37 314.046 328.337 314.192 328.274 314.326C328.211 314.459 328.119 314.578 328.006 314.672C327.892 314.767 327.759 314.836 327.617 314.874C325.047 315.58 323.325 316.013 320.111 316.949C317.894 317.594 315.633 318.644 313.443 319.342C311.925 319.828 308.357 319.845 306.511 319.845C303.783 319.845 303.173 316.967 304.348 316.834C307.306 316.507 307.703 316.658 309.337 315.836C312.01 314.668 314.433 312.995 316.472 310.909C316.857 310.47 317.35 310.141 317.903 309.955Z" fill="#263238"/>
<path d="M266.536 120.51L259.224 117.445L256.213 125.552C259.21 126.008 262.259 126.008 265.255 125.552L266.536 120.51Z" fill="#E58A7B"/>
<path d="M253.784 117.234L253.59 122.621L256.213 125.535L259.224 117.429L253.784 117.234Z" fill="#E58A7B"/>
<path d="M319.829 295.925L313.502 298.367L316.304 305.625L322.631 303.182L319.829 295.925Z" fill="#CF6F64"/>
<path d="M344.651 297.609H338.002L339.265 305.548H345.914L344.651 297.609Z" fill="#CF6F64"/>
<path opacity="0.2" d="M298.582 133.773C298.714 135.371 298.865 137.005 299.059 138.683L325.498 130.1C329.627 128.876 333.215 126.281 335.671 122.744C335.777 120.386 335.909 117.904 336.112 115.317C336.201 114.063 336.307 112.774 336.421 111.467C336.536 110.16 336.695 108.712 336.863 107.316L298.582 133.773Z" fill="black"/>
<path d="M307.219 104.808L306.336 104.702C306.857 100.287 310.151 96.8079 313.621 96.8962V97.7792C310.583 97.7174 307.687 100.852 307.219 104.808Z" fill="white"/>
<path d="M311.926 112.96H311.775V112.077C314.813 112.192 317.665 109.022 318.133 105.074L319.017 105.18C318.549 109.498 315.361 112.96 311.926 112.96Z" fill="white"/>
<path d="M328.429 67.5547C327.184 72.4204 325.718 81.3305 328.924 84.5714C328.924 84.5714 326.681 89.5077 317.647 89.5077C309.391 89.5077 313.815 84.5714 313.815 84.5714C319.307 83.2821 319.405 79.273 318.68 75.4758L328.429 67.5547Z" fill="#E58A7B"/>
<path d="M324.456 70.7852L318.689 75.4742C318.868 76.3468 318.972 77.2331 318.999 78.1234C320.685 79.8013 324.067 75.5537 324.412 73.3814C324.587 72.5261 324.602 71.6459 324.456 70.7852Z" fill="#CF6F64"/>
<path d="M308.772 67.4915C309.173 68.1869 309.714 68.7921 310.359 69.2692C311.005 69.7463 311.742 70.0851 312.525 70.2643C314.644 70.7323 315.704 68.7807 315.121 66.8203C314.6 65.0542 312.861 62.6788 310.706 63.085C310.244 63.18 309.812 63.3843 309.446 63.6807C309.08 63.9771 308.79 64.3569 308.6 64.7884C308.411 65.22 308.328 65.6905 308.358 66.1608C308.387 66.6311 308.53 67.0874 308.772 67.4915Z" fill="#CF6F64"/>
<path d="M312.278 51.9217C308.975 53.4318 307.81 66.5541 311.96 68.4969C316.111 70.4396 318.53 49.0518 312.278 51.9217Z" fill="#263238"/>
<path d="M329.436 60.2314C328.641 66.8191 328.553 70.6957 325.021 74.069C323.926 75.1885 322.543 75.9836 321.025 76.3668C319.507 76.7499 317.913 76.706 316.418 76.2401C314.924 75.7741 313.587 74.9042 312.555 73.7264C311.524 72.5485 310.838 71.1085 310.574 69.5654C309.505 63.6489 310.98 53.8733 317.585 51.2506C318.973 50.6385 320.499 50.4087 322.006 50.585C323.512 50.7614 324.944 51.3375 326.153 52.2537C327.362 53.1698 328.304 54.3927 328.881 55.7954C329.459 57.1981 329.65 58.7297 329.436 60.2314Z" fill="#E58A7B"/>
<path d="M318.584 55.3314C323.477 54.0863 327.071 53.2386 325.781 57.3095C324.077 62.7492 322.028 68.0122 324.775 68.2507C326.453 68.4008 333.87 65.2571 332.925 62.0692C332.104 59.2964 335.575 58.5369 336.193 57.1329C338.48 52.0464 331.936 52.7175 333.102 49.6268C334.268 46.5361 327.804 41.5556 324.271 44.037C318.523 48.0461 308.659 47.9843 313.842 41.3878C317.56 36.6811 310.928 37.6436 310.928 37.6436C310.928 37.6436 314.937 40.0191 308.191 43.6926C301.056 47.6134 307.599 58.1484 318.584 55.3314Z" fill="#263238"/>
<path d="M332.033 67.4915C331.067 68.8889 329.616 69.8773 327.962 70.2643C325.78 70.7323 324.942 68.7807 325.763 66.8203C326.496 65.0542 328.509 62.6788 330.593 63.085C332.677 63.4912 333.154 65.7606 332.033 67.4915Z" fill="#E58A7B"/>
<path d="M299.713 143.887C299.713 143.887 293.744 197.312 293.276 217.587C292.799 238.675 313.507 304.472 313.507 304.472L324.104 300.057C324.104 300.057 311.741 239.938 313.507 219.23C315.379 196.65 323.114 143.922 323.114 143.922L299.713 143.887Z" fill="#4CAF4F"/>
<path opacity="0.2" d="M314.547 158.553C309.787 168.426 312.993 187.951 315.571 199.519C316.552 191.35 317.717 182.484 318.821 174.281C318.715 161.671 317.735 151.93 314.547 158.553Z" fill="black"/>
<path d="M323.635 296.559C323.688 296.559 324.889 299.932 324.889 299.932L312.667 305.071L310.742 301.486L323.635 296.559Z" fill="#4CAF4F"/>
<path d="M312.332 143.887C312.332 143.887 316.897 194.698 319.918 213.728C323.238 234.578 336.254 304.013 336.254 304.013H348.432C348.432 304.013 341.138 236.264 339.76 215.618C338.259 193.224 335.274 143.887 335.274 143.887H312.332Z" fill="#4CAF4F"/>
<path d="M348.616 300.843C348.669 300.843 349.023 304.243 349.023 304.243H335.635L334.682 300.34L348.616 300.843Z" fill="#4CAF4F"/>
<path opacity="0.2" d="M343.955 296.814C343.927 296.814 343.9 296.804 343.879 296.786C343.858 296.769 343.844 296.744 343.84 296.716C343.769 296.098 337.19 234.902 335.954 216.357C334.612 196.241 331.91 151.62 331.883 151.169C331.882 151.155 331.884 151.14 331.889 151.126C331.893 151.112 331.901 151.1 331.911 151.089C331.921 151.078 331.933 151.069 331.946 151.064C331.96 151.058 331.974 151.055 331.989 151.055C332.018 151.055 332.046 151.065 332.067 151.085C332.089 151.105 332.102 151.132 332.104 151.161C332.104 151.611 334.833 196.197 336.175 216.349C337.411 234.893 343.99 296.045 344.052 296.708C344.054 296.722 344.054 296.737 344.05 296.751C344.046 296.766 344.04 296.779 344.031 296.791C344.022 296.803 344.01 296.812 343.997 296.819C343.984 296.826 343.969 296.83 343.955 296.831V296.814Z" fill="black"/>
<path d="M319.334 62.069C319.334 62.6077 318.999 63.0404 318.646 63.0404C318.292 63.0404 318.036 62.6077 318.072 62.069C318.107 61.5304 318.407 61.0977 318.76 61.0977C319.114 61.0977 319.37 61.5392 319.334 62.069Z" fill="#263238"/>
<path d="M313.275 62.069C313.275 62.6077 312.931 63.0404 312.587 63.0404C312.242 63.0404 311.977 62.6077 312.004 62.069C312.03 61.5304 312.348 61.0977 312.701 61.0977C313.055 61.0977 313.311 61.5392 313.275 62.069Z" fill="#263238"/>
<path d="M315.183 62.3438C314.446 63.9886 313.496 65.5295 312.357 66.9269C313.24 67.8099 314.892 67.4037 314.892 67.4037L315.183 62.3438Z" fill="#DF5753"/>
<path d="M315.342 69.6562C315.321 69.6562 315.301 69.6521 315.282 69.644C315.263 69.6359 315.246 69.624 315.232 69.6092C315.218 69.5943 315.207 69.5767 315.2 69.5574C315.193 69.5382 315.19 69.5177 315.192 69.4973C315.194 69.4543 315.213 69.4139 315.244 69.3843C315.275 69.3547 315.316 69.3382 315.359 69.3383C316.035 69.343 316.703 69.1963 317.314 68.909C317.925 68.6217 318.464 68.2011 318.892 67.6781C318.922 67.6514 318.962 67.6367 319.002 67.6367C319.043 67.6367 319.082 67.6514 319.112 67.6781C319.141 67.7078 319.157 67.7473 319.157 67.7885C319.157 67.8297 319.141 67.8693 319.112 67.8989C318.655 68.4547 318.079 68.9011 317.426 69.2052C316.774 69.5092 316.062 69.6634 315.342 69.6562Z" fill="#263238"/>
<path d="M320.412 60.4438C320.37 60.4655 320.323 60.4769 320.275 60.4769C320.228 60.4769 320.181 60.4655 320.138 60.4438C319.808 60.2303 319.432 60.0974 319.041 60.056C318.65 60.0146 318.254 60.0658 317.886 60.2054C317.851 60.2233 317.812 60.2339 317.772 60.2365C317.732 60.2391 317.691 60.2336 317.654 60.2204C317.616 60.2073 317.581 60.1867 317.551 60.1598C317.521 60.133 317.497 60.1004 317.48 60.0641C317.447 59.9855 317.447 59.8973 317.478 59.8181C317.509 59.7389 317.57 59.6751 317.648 59.6403C318.11 59.4517 318.61 59.3773 319.107 59.4234C319.603 59.4696 320.081 59.6348 320.5 59.9052C320.534 59.9282 320.563 59.9577 320.585 59.992C320.608 60.0263 320.623 60.0647 320.631 60.1049C320.638 60.1452 320.637 60.1865 320.629 60.2265C320.62 60.2665 320.603 60.3043 320.58 60.3379C320.535 60.3885 320.477 60.4253 320.412 60.4438Z" fill="#263238"/>
<path d="M310.937 58.6795C310.89 58.6681 310.847 58.6436 310.813 58.6089C310.784 58.5801 310.761 58.5457 310.745 58.5078C310.729 58.4699 310.721 58.4292 310.721 58.3881C310.721 58.347 310.729 58.3063 310.745 58.2684C310.761 58.2305 310.784 58.1961 310.813 58.1673C311.152 57.7877 311.573 57.4914 312.045 57.3015C312.517 57.1115 313.026 57.0331 313.533 57.0723C313.574 57.0786 313.613 57.0931 313.648 57.1151C313.682 57.137 313.712 57.1658 313.735 57.1997C313.759 57.2337 313.775 57.272 313.782 57.3124C313.79 57.3528 313.789 57.3943 313.781 57.4344C313.762 57.5162 313.714 57.5882 313.645 57.637C313.577 57.6858 313.493 57.7079 313.41 57.6993C313.008 57.674 312.607 57.7404 312.235 57.8934C311.863 58.0464 311.531 58.282 311.264 58.5824C311.224 58.6271 311.172 58.6598 311.114 58.6769C311.056 58.6941 310.995 58.695 310.937 58.6795Z" fill="#263238"/>
<path d="M344.157 94.7703L334.973 92.3242C334.973 92.3242 325.966 114.498 322.778 115.937C318.451 117.915 307.492 124.768 302.83 128.009C302.574 129.113 302.777 132.036 303.359 132.839C311.307 131.391 326.522 125.536 329.701 122.56C336.951 115.77 344.157 94.7703 344.157 94.7703Z" fill="#E58A7B"/>
<path d="M337.745 313.399C337.297 313.435 336.851 313.313 336.483 313.055C336.369 312.952 336.284 312.822 336.236 312.676C336.188 312.531 336.179 312.375 336.209 312.225C336.214 312.131 336.245 312.04 336.298 311.963C336.351 311.885 336.424 311.823 336.509 311.783C337.251 311.404 339.326 312.719 339.565 312.87C339.591 312.886 339.611 312.91 339.622 312.939C339.633 312.967 339.635 312.999 339.626 313.028C339.619 313.059 339.603 313.088 339.582 313.111C339.56 313.134 339.533 313.151 339.503 313.161C338.927 313.302 338.338 313.382 337.745 313.399ZM336.862 312.022C336.795 312.007 336.726 312.007 336.659 312.022C336.625 312.039 336.597 312.066 336.578 312.099C336.56 312.132 336.551 312.169 336.553 312.207C336.53 312.31 336.534 312.417 336.565 312.518C336.596 312.619 336.653 312.709 336.73 312.781C337.074 313.09 337.94 313.126 339.079 312.905C338.401 312.458 337.637 312.157 336.836 312.022H336.862Z" fill="#4CAF4F"/>
<path d="M339.46 313.16C339.437 313.167 339.412 313.167 339.389 313.16C338.727 312.789 337.482 311.332 337.667 310.59C337.695 310.473 337.761 310.368 337.856 310.293C337.95 310.217 338.067 310.176 338.188 310.175C338.307 310.159 338.427 310.169 338.541 310.204C338.656 310.24 338.761 310.299 338.85 310.378C339.583 311.005 339.627 312.93 339.627 313.028C339.632 313.057 339.626 313.086 339.612 313.112C339.597 313.137 339.575 313.157 339.548 313.169C339.518 313.175 339.488 313.172 339.46 313.16ZM338.276 310.467H338.215C338.011 310.467 337.985 310.582 337.976 310.626C337.87 311.058 338.656 312.162 339.31 312.683C339.307 311.937 339.075 311.21 338.647 310.599C338.545 310.51 338.412 310.462 338.276 310.467Z" fill="#4CAF4F"/>
<path d="M314.301 312.296C313.761 312.485 313.173 312.485 312.632 312.296C312.509 312.23 312.405 312.133 312.33 312.016C312.254 311.899 312.209 311.764 312.2 311.625C312.188 311.538 312.2 311.449 312.232 311.367C312.264 311.285 312.317 311.213 312.385 311.157C313.091 310.521 315.979 311.157 316.306 311.281C316.337 311.289 316.364 311.307 316.384 311.333C316.403 311.358 316.413 311.39 316.412 311.422C316.413 311.455 316.405 311.488 316.387 311.516C316.37 311.545 316.345 311.567 316.315 311.581C315.664 311.875 314.991 312.114 314.301 312.296ZM312.862 311.245C312.761 311.266 312.667 311.311 312.588 311.378C312.56 311.399 312.538 311.428 312.526 311.46C312.513 311.493 312.51 311.529 312.517 311.563C312.523 311.656 312.552 311.746 312.601 311.824C312.651 311.903 312.719 311.968 312.8 312.014C313.268 312.261 314.354 312.067 315.758 311.475C314.813 311.236 313.833 311.159 312.862 311.245Z" fill="#4CAF4F"/>
<path d="M316.288 311.58H316.218C315.335 311.421 313.569 310.406 313.516 309.646C313.516 309.47 313.595 309.222 314.019 309.081C314.162 309.03 314.314 309.009 314.466 309.018C314.618 309.027 314.766 309.066 314.902 309.134C315.856 309.602 316.359 311.298 316.386 311.377C316.392 311.404 316.391 311.432 316.383 311.458C316.376 311.484 316.361 311.508 316.341 311.527C316.328 311.549 316.31 311.567 316.288 311.58ZM314.196 309.346H314.107C313.834 309.443 313.834 309.558 313.834 309.593C313.834 310.053 315.114 310.891 316.006 311.174C315.8 310.465 315.366 309.844 314.77 309.408C314.592 309.318 314.388 309.296 314.196 309.346Z" fill="#4CAF4F"/>
<path d="M303.58 127.488L294.369 131.727L293.301 134.376L296.701 136.663C296.701 136.663 303.059 135.975 304.869 131.886L303.58 127.488Z" fill="#E58A7B"/>
<path d="M303.969 132.988C303.763 131.218 303.179 129.513 302.256 127.99L303.713 126.895C304.809 128.65 305.508 130.624 305.762 132.679L303.969 132.988Z" fill="#263238"/>
<path d="M305.54 128.739C305.734 129.045 305.83 129.404 305.814 129.767C305.797 130.129 305.67 130.478 305.448 130.765C305.226 131.053 304.922 131.265 304.575 131.373C304.229 131.481 303.857 131.479 303.512 131.369C303.166 131.258 302.863 131.044 302.643 130.755C302.424 130.466 302.298 130.117 302.284 129.754C302.271 129.391 302.369 129.033 302.566 128.728C302.763 128.423 303.049 128.187 303.385 128.05C303.762 127.858 304.201 127.822 304.604 127.951C305.008 128.08 305.344 128.363 305.54 128.739Z" fill="#263238"/>
<path d="M288.145 135.153L289.372 136.389L297.637 132.857L294.37 131.727L288.145 135.153Z" fill="#E58A7B"/>
<path opacity="0.2" d="M323.635 296.559C323.688 296.559 324.889 299.932 324.889 299.932L312.667 305.071L310.742 301.486L323.635 296.559Z" fill="black"/>
<path opacity="0.2" d="M348.616 300.843C348.669 300.843 349.023 304.243 349.023 304.243H335.635L334.682 300.34L348.616 300.843Z" fill="black"/>
<path d="M346.551 92.2274C348.98 100.06 339.487 110.772 339.487 110.772L326.373 105.42C327.927 100.893 329.72 96.451 331.742 92.1126C335.769 83.4321 344.096 84.324 346.551 92.2274Z" fill="#4CAF4F"/>
<path opacity="0.2" d="M346.551 92.2274C348.98 100.06 339.487 110.772 339.487 110.772L326.373 105.42C327.927 100.893 329.72 96.451 331.742 92.1126C335.769 83.4321 344.096 84.324 346.551 92.2274Z" fill="black"/>
<path d="M216.246 13.75H210.604V14.6596H216.246V13.75Z" fill="#4CAF4F"/>
<path d="M289.29 49.7506L288.607 64.9062L289.516 64.9472L290.199 49.7915L289.29 49.7506Z" fill="#4CAF4F"/>
<path d="M287.536 17.8281H183.335L173.639 234.815H277.84L287.536 17.8281Z" fill="#4CAF4F"/>
<path opacity="0.56" d="M284.427 20.8164H180.225L170.529 237.803H274.731L284.427 20.8164Z" fill="#FAFAFA"/>
<path opacity="0.07" d="M281.319 23.7891H177.117L167.412 240.776H271.614L281.319 23.7891Z" fill="#4CAF4F"/>
<path d="M269.46 118.43H180.517L179.775 135.031H268.718L269.46 118.43Z" fill="white"/>
<path d="M229.43 106.312H181.055L180.729 113.739H229.103L229.43 106.312Z" fill="#4CAF4F"/>
<path d="M267.454 163.234H178.511L177.77 179.836H266.712L267.454 163.234Z" fill="white"/>
<path opacity="0.47" d="M251.145 202.258H191.335L190.443 222.153H250.253L251.145 202.258Z" fill="#4CAF4F"/>
<path d="M247.144 225.245H187.334C187.308 225.252 187.281 225.252 187.255 225.245C187.246 225.22 187.246 225.192 187.255 225.166L188.138 205.262C188.138 205.248 188.14 205.235 188.146 205.222C188.151 205.21 188.159 205.199 188.169 205.19C188.179 205.181 188.191 205.174 188.204 205.169C188.217 205.165 188.23 205.163 188.244 205.165H248.054C248.065 205.159 248.077 205.156 248.089 205.156C248.101 205.156 248.113 205.159 248.124 205.165C248.131 205.175 248.134 205.187 248.134 205.2C248.134 205.212 248.131 205.224 248.124 205.235L247.259 225.184C247.248 225.204 247.232 225.221 247.211 225.232C247.191 225.243 247.167 225.248 247.144 225.245ZM187.44 225.034H247.038L247.921 205.341H188.323L187.44 225.034Z" fill="white"/>
<path d="M218.984 151.121H179.051L178.725 158.557H218.648L218.984 151.121Z" fill="#4CAF4F"/>
<path d="M250.005 64.8009C249.777 69.6325 248.059 74.2749 245.086 78.091C242.886 80.9734 240.055 83.3135 236.81 84.9315C233.564 86.5495 229.992 87.4025 226.365 87.425C223.435 87.4473 220.531 86.8695 217.833 85.7271C215.134 84.5847 212.698 82.9019 210.675 80.7824C208.651 78.6629 207.083 76.1515 206.067 73.403C205.05 70.6545 204.608 67.727 204.766 64.8009C205.076 58.7289 207.695 53.005 212.085 48.7996C216.476 44.5942 222.308 42.2251 228.388 42.1767C231.32 42.1494 234.227 42.7237 236.929 43.8641C239.631 45.0045 242.07 46.6869 244.096 48.8072C246.122 50.9275 247.692 53.4408 248.708 56.1917C249.724 58.9425 250.166 61.8726 250.005 64.8009Z" fill="white"/>
<path d="M252.133 46.9074C252.076 48.1921 251.619 49.4269 250.826 50.4397C250.24 51.2053 249.486 51.8268 248.623 52.2568C247.76 52.6869 246.81 52.9141 245.846 52.9211C244.912 52.9268 243.99 52.7036 243.162 52.271C242.334 51.8385 241.624 51.2097 241.095 50.4397C240.394 49.3991 240.047 48.1605 240.106 46.9074C240.191 45.2953 240.888 43.7765 242.055 42.6606C243.222 41.5448 244.77 40.9161 246.385 40.9026C247.163 40.8955 247.935 41.0479 248.653 41.3505C249.371 41.6531 250.019 42.0994 250.557 42.662C251.096 43.2246 251.514 43.8915 251.785 44.6216C252.056 45.3518 252.174 46.1297 252.133 46.9074Z" fill="#4CAF4F"/>
<path d="M190.098 126.731C190.055 127.443 189.745 128.112 189.229 128.604C188.712 129.095 188.029 129.373 187.316 129.381C186.972 129.385 186.631 129.318 186.313 129.185C185.996 129.052 185.709 128.855 185.471 128.607C185.232 128.359 185.047 128.064 184.927 127.741C184.807 127.419 184.755 127.075 184.773 126.731C184.811 126.018 185.121 125.347 185.638 124.854C186.155 124.362 186.841 124.086 187.555 124.082C187.898 124.079 188.239 124.147 188.556 124.28C188.873 124.414 189.159 124.611 189.397 124.859C189.635 125.107 189.82 125.401 189.941 125.723C190.061 126.045 190.115 126.388 190.098 126.731Z" fill="#263238"/>
<path d="M202.001 126.728C201.961 127.44 201.651 128.11 201.134 128.602C200.618 129.094 199.933 129.371 199.22 129.377C198.876 129.38 198.536 129.312 198.219 129.179C197.903 129.045 197.617 128.848 197.38 128.6C197.142 128.352 196.958 128.058 196.839 127.736C196.719 127.414 196.667 127.07 196.685 126.728C196.723 126.016 197.031 125.346 197.547 124.854C198.062 124.361 198.745 124.084 199.458 124.078C199.802 124.074 200.143 124.141 200.461 124.274C200.778 124.407 201.065 124.604 201.303 124.852C201.542 125.1 201.727 125.395 201.847 125.717C201.967 126.04 202.019 126.384 202.001 126.728Z" fill="#263238"/>
<path d="M213.914 126.728C213.873 127.44 213.563 128.11 213.047 128.602C212.53 129.094 211.846 129.371 211.132 129.377C210.788 129.38 210.448 129.312 210.131 129.179C209.814 129.045 209.528 128.848 209.29 128.6C209.051 128.352 208.867 128.058 208.746 127.736C208.626 127.414 208.572 127.071 208.589 126.728C208.629 126.015 208.939 125.345 209.456 124.853C209.973 124.361 210.657 124.084 211.371 124.078C211.715 124.074 212.056 124.141 212.374 124.274C212.691 124.407 212.978 124.604 213.216 124.852C213.455 125.1 213.639 125.395 213.759 125.717C213.879 126.04 213.932 126.384 213.914 126.728Z" fill="#263238"/>
<path d="M188.094 171.536C188.051 172.248 187.741 172.917 187.224 173.408C186.708 173.9 186.025 174.178 185.312 174.185C184.968 174.188 184.627 174.121 184.31 173.987C183.994 173.854 183.707 173.657 183.469 173.409C183.231 173.161 183.046 172.867 182.926 172.545C182.805 172.223 182.752 171.879 182.769 171.536C182.809 170.824 183.119 170.153 183.636 169.661C184.152 169.169 184.837 168.892 185.55 168.887C185.894 168.884 186.235 168.951 186.552 169.085C186.869 169.218 187.155 169.415 187.393 169.663C187.631 169.911 187.816 170.205 187.936 170.527C188.057 170.849 188.11 171.193 188.094 171.536Z" fill="#263238"/>
<path d="M199.997 171.536C199.957 172.247 199.648 172.916 199.134 173.408C198.619 173.899 197.936 174.177 197.224 174.185C196.88 174.189 196.539 174.123 196.221 173.99C195.904 173.857 195.617 173.66 195.379 173.412C195.141 173.163 194.956 172.869 194.836 172.546C194.716 172.224 194.663 171.88 194.681 171.536C194.722 170.824 195.032 170.153 195.548 169.661C196.065 169.169 196.749 168.892 197.463 168.887C197.806 168.884 198.147 168.951 198.463 169.085C198.779 169.219 199.065 169.416 199.303 169.664C199.54 169.912 199.724 170.206 199.844 170.528C199.963 170.85 200.015 171.193 199.997 171.536Z" fill="#263238"/>
<path d="M211.937 171.536C211.897 172.248 211.587 172.919 211.07 173.411C210.553 173.903 209.869 174.18 209.155 174.185C208.812 174.187 208.472 174.119 208.155 173.985C207.839 173.851 207.553 173.654 207.315 173.406C207.078 173.158 206.893 172.865 206.772 172.543C206.651 172.222 206.596 171.879 206.612 171.536C206.654 170.825 206.965 170.155 207.481 169.664C207.997 169.172 208.681 168.895 209.394 168.887C209.738 168.883 210.079 168.949 210.397 169.082C210.714 169.215 211.001 169.412 211.239 169.661C211.478 169.909 211.662 170.203 211.782 170.526C211.902 170.849 211.955 171.192 211.937 171.536Z" fill="#263238"/>
<path d="M223.822 171.536C223.779 172.248 223.469 172.917 222.952 173.408C222.436 173.9 221.753 174.178 221.04 174.185C220.697 174.187 220.356 174.118 220.04 173.985C219.724 173.851 219.438 173.654 219.2 173.406C218.962 173.158 218.777 172.865 218.656 172.543C218.536 172.222 218.481 171.879 218.497 171.536C218.539 170.824 218.85 170.155 219.366 169.664C219.882 169.172 220.566 168.894 221.278 168.887C221.622 168.884 221.963 168.951 222.28 169.085C222.597 169.218 222.883 169.415 223.121 169.663C223.359 169.911 223.544 170.205 223.665 170.527C223.785 170.849 223.838 171.193 223.822 171.536Z" fill="#263238"/>
<path d="M235.78 171.536C235.737 172.248 235.427 172.917 234.91 173.408C234.394 173.9 233.711 174.178 232.998 174.185C232.654 174.189 232.312 174.123 231.995 173.99C231.678 173.857 231.391 173.66 231.152 173.412C230.914 173.163 230.729 172.869 230.609 172.546C230.489 172.224 230.437 171.88 230.455 171.536C230.495 170.824 230.805 170.153 231.322 169.661C231.838 169.169 232.523 168.892 233.236 168.887C233.58 168.884 233.921 168.951 234.238 169.085C234.555 169.218 234.841 169.415 235.079 169.663C235.317 169.911 235.502 170.205 235.622 170.527C235.743 170.849 235.796 171.193 235.78 171.536Z" fill="#263238"/>
<path d="M233.973 63.6218C237.669 60.0073 237.865 54.2138 234.411 50.6816C230.956 47.1494 225.16 47.216 221.464 50.8305C217.768 54.4449 217.572 60.2384 221.026 63.7707C224.48 67.3029 230.276 67.2362 233.973 63.6218Z" fill="#4CAF4F"/>
<path d="M245.086 78.0919C242.886 80.9743 240.055 83.3144 236.81 84.9324C233.564 86.5504 229.992 87.4034 226.365 87.4259C222.849 87.4557 219.38 86.6199 216.263 84.9921C213.146 83.3643 210.477 80.9946 208.492 78.0919C212.784 73.8178 219.575 71.0273 227.098 71.0273C234.622 71.0273 241.174 73.8178 245.086 78.0919Z" fill="#4CAF4F"/>
<path opacity="0.1" d="M233.973 63.6218C237.669 60.0073 237.865 54.2138 234.411 50.6816C230.956 47.1494 225.16 47.216 221.464 50.8305C217.768 54.4449 217.572 60.2384 221.026 63.7707C224.48 67.3029 230.276 67.2362 233.973 63.6218Z" fill="white"/>
<path opacity="0.1" d="M245.086 78.0919C242.886 80.9743 240.055 83.3144 236.81 84.9324C233.564 86.5504 229.992 87.4034 226.365 87.4259C222.849 87.4557 219.38 86.6199 216.263 84.9921C213.146 83.3643 210.477 80.9946 208.492 78.0919C212.784 73.8178 219.575 71.0273 227.098 71.0273C234.622 71.0273 241.174 73.8178 245.086 78.0919Z" fill="white"/>
<path d="M115.161 139.03C114.323 140.866 113.439 142.889 112.671 144.849C111.903 146.809 111.117 148.832 110.437 150.845C109.049 154.813 107.991 158.889 107.276 163.031L107.081 164.329C107.063 164.552 107.084 164.776 107.143 164.992C107.352 165.724 107.68 166.416 108.115 167.04C109.249 168.657 110.564 170.139 112.035 171.456C113.587 172.899 115.214 174.257 116.91 175.527C118.605 176.834 120.389 178.105 122.147 179.306L120.495 182.406C116.299 180.577 112.316 178.294 108.618 175.597C106.645 174.158 104.864 172.473 103.32 170.582C102.404 169.456 101.69 168.18 101.209 166.811C100.929 165.955 100.786 165.061 100.785 164.162C100.785 163.95 100.785 163.641 100.785 163.49V163.058L100.873 162.175C101.38 157.574 102.347 153.036 103.761 148.628C104.45 146.456 105.183 144.293 106.022 142.182C106.861 140.072 107.726 138.005 108.795 135.859L115.161 139.03Z" fill="#E58A7B"/>
<path d="M120.9 178.759L127.144 175.598L125.528 182.45C125.528 182.45 121.245 183.651 119.258 181.567L120.9 178.759Z" fill="#E58A7B"/>
<path d="M132.859 176.719L131.199 182.388L125.529 182.45L127.145 175.598L132.859 176.719Z" fill="#E58A7B"/>
<path d="M141.67 105.969C142.004 107.193 142.469 108.377 143.056 109.501C142.885 109.696 142.664 109.84 142.416 109.92C142.169 109.999 141.905 110.01 141.652 109.951L141.67 105.969Z" fill="#DF5753"/>
<path d="M141.485 106.023C141.85 106.023 142.147 105.569 142.147 105.008C142.147 104.447 141.85 103.992 141.485 103.992C141.119 103.992 140.822 104.447 140.822 105.008C140.822 105.569 141.119 106.023 141.485 106.023Z" fill="#263238"/>
<path d="M141.291 104.028L142.633 103.648C142.633 103.648 141.98 104.69 141.291 104.028Z" fill="#263238"/>
<path d="M124.424 112.449C125.228 116.555 126.031 124.088 123.152 126.834C123.152 126.834 124.283 131.002 131.921 131.002C140.319 131.002 135.93 126.834 135.93 126.834C131.347 125.739 131.462 122.34 132.266 119.143L124.424 112.449Z" fill="#E58A7B"/>
<path d="M122.19 103.09C122.614 109.951 122.649 112.865 126.111 116.389C131.33 121.687 139.666 119.674 141.3 112.856C142.774 106.675 141.838 96.502 135.118 93.7734C133.643 93.1657 132.037 92.9444 130.453 93.1303C128.868 93.3163 127.358 93.9034 126.063 94.8361C124.769 95.7689 123.734 97.0163 123.056 98.4606C122.379 99.9048 122.08 101.498 122.19 103.09Z" fill="#E58A7B"/>
<path d="M122.87 95.3735C119.426 96.6275 114.834 95.6914 116.636 106.315C118.543 117.565 115.611 121.265 115.611 121.265C115.611 121.265 128.672 124.047 142.006 121.097C142.006 121.097 137.935 113.98 139.074 108.734C140.531 102.111 139.383 99.6652 139.383 99.6652C139.383 99.6652 127.709 93.6074 122.87 95.3735Z" fill="#263238"/>
<path d="M137.441 106.666C137.445 107.971 137.819 109.248 138.519 110.348C139.455 111.779 140.559 111.232 140.832 109.713C141.08 108.379 140.894 106.021 139.702 105.103C138.51 104.185 137.459 105.085 137.441 106.666Z" fill="#E58A7B"/>
<path d="M119.877 96.529C118.888 93.7473 123.603 89.4645 133.582 91.2306C143.561 92.9967 143.993 101.306 143.993 101.306L141.98 98.9044L142.068 101.43L131.816 103.399L119.877 96.529Z" fill="#263238"/>
<path d="M120.725 127.303C120.667 126.9 120.767 126.49 121.007 126.16C121.246 125.83 121.604 125.607 122.006 125.537C125.114 125.025 132.179 123.983 135.729 124.477C138.378 124.848 139.067 126.385 139.181 127.648C139.199 127.869 139.17 128.091 139.095 128.3C139.02 128.509 138.901 128.699 138.746 128.858C138.591 129.017 138.404 129.141 138.198 129.221C137.991 129.302 137.769 129.338 137.548 129.325L122.2 128.637C121.838 128.618 121.494 128.476 121.225 128.233C120.956 127.99 120.78 127.661 120.725 127.303Z" fill="#4CAF4F"/>
<path opacity="0.6" d="M120.725 127.303C120.667 126.9 120.767 126.49 121.007 126.16C121.246 125.83 121.604 125.607 122.006 125.537C125.114 125.025 132.179 123.983 135.729 124.477C138.378 124.848 139.067 126.385 139.181 127.648C139.199 127.869 139.17 128.091 139.095 128.3C139.02 128.509 138.901 128.699 138.746 128.858C138.591 129.017 138.404 129.141 138.198 129.221C137.991 129.302 137.769 129.338 137.548 129.325L122.2 128.637C121.838 128.618 121.494 128.476 121.225 128.233C120.956 127.99 120.78 127.661 120.725 127.303Z" fill="black"/>
<path d="M129.6 281.574L135.295 285.531L144.824 272.611L139.128 268.664L129.6 281.574Z" fill="#E58A7B"/>
<path d="M116.318 281.321L122.332 284.747L130.765 271.086L124.752 267.66L116.318 281.321Z" fill="#E58A7B"/>
<path d="M144.815 272.611L139.905 279.27L134.209 275.322L139.119 268.664L144.815 272.611Z" fill="#CF6F64"/>
<path d="M124.743 267.66L130.766 271.095L126.421 278.133L120.398 274.698L124.743 267.66Z" fill="#CF6F64"/>
<path d="M134.403 170.434C134.403 170.434 156.639 198.453 152.462 225.254C149.097 246.898 129.581 276.207 129.581 276.207L120.406 271.651C126.874 258.692 132.392 245.281 136.92 231.524C138.316 227.253 138.723 222.721 138.111 218.269C137.499 213.817 135.884 209.563 133.387 205.827C122.12 189.375 104.07 199.169 116.212 170.434H134.403Z" fill="#4CAF4F"/>
<path opacity="0.6" d="M134.403 170.434C134.403 170.434 156.639 198.453 152.462 225.254C149.097 246.898 129.581 276.207 129.581 276.207L120.406 271.651C126.874 258.692 132.392 245.281 136.92 231.524C138.316 227.253 138.723 222.721 138.111 218.269C137.499 213.817 135.884 209.563 133.387 205.827C122.12 189.375 104.07 199.169 116.212 170.434H134.403Z" fill="black"/>
<path opacity="0.4" d="M145.31 188.429L142.078 185.215C142.078 185.471 148.339 224.123 150.096 234.984C151.133 231.811 151.927 228.564 152.472 225.271C154.538 212.122 150.22 198.69 145.31 188.429Z" fill="black"/>
<path d="M144.329 170.434C144.329 170.434 171.104 205.65 171.863 226.764C172.49 244.426 142.722 278.644 142.722 278.644L134.068 273.046C134.068 273.046 151.491 248.744 155.88 228.893C154.185 209.218 118.332 170.434 118.332 170.434H144.329Z" fill="#4CAF4F"/>
<path opacity="0.6" d="M144.329 170.434C144.329 170.434 171.104 205.65 171.863 226.764C172.49 244.426 142.722 278.644 142.722 278.644L134.068 273.046C134.068 273.046 151.491 248.744 155.88 228.893C154.185 209.218 118.332 170.434 118.332 170.434H144.329Z" fill="black"/>
<path d="M111.205 128.407C108.344 129.087 105.598 139.489 105.598 139.489L116.786 146.96C116.786 146.96 120.513 138.73 119.206 135.127C117.855 131.374 114.799 127.55 111.205 128.407Z" fill="#4CAF4F"/>
<path opacity="0.2" d="M113.394 135.109L112.617 144.178L116.776 146.969C117.925 144.383 118.775 141.676 119.311 138.898L113.394 135.109Z" fill="black"/>
<path d="M147.64 128.609C147.64 128.609 150.943 129.766 144.329 170.422H116.194C116.671 158.943 116.68 151.878 111.205 128.406C115.145 127.594 119.138 127.069 123.153 126.834C127.407 126.529 131.677 126.529 135.931 126.834C141.424 127.338 147.64 128.609 147.64 128.609Z" fill="#4CAF4F"/>
<path d="M150.502 135.11C151.138 136.876 151.809 138.775 152.516 140.603C153.222 142.431 153.893 144.312 154.608 146.166L156.772 151.712L157.319 153.098L157.602 153.787L157.735 154.131C157.735 154.193 157.735 154.193 157.735 154.184C157.573 153.957 157.362 153.77 157.116 153.637C156.767 153.431 156.373 153.313 155.968 153.292C155.632 153.282 155.297 153.345 154.988 153.478C154.582 153.663 154.582 153.743 154.591 153.734C154.664 153.675 154.73 153.607 154.785 153.531C155.274 152.889 155.697 152.2 156.048 151.473C156.463 150.661 156.86 149.795 157.258 148.921C158.035 147.155 158.75 145.327 159.465 143.482C160.181 141.636 160.861 139.773 161.523 137.892L163.536 132.258L166.936 133.141C166.265 137.168 165.4 141.088 164.358 145.08C163.854 147.067 163.263 149.036 162.591 151.023C162.256 152.021 161.885 153.01 161.461 154.025C161.019 155.128 160.475 156.186 159.836 157.187C159.601 157.524 159.342 157.842 159.059 158.14C158.608 158.628 158.061 159.015 157.452 159.28C156.912 159.512 156.326 159.62 155.739 159.598C155.081 159.573 154.439 159.382 153.876 159.041C153.21 158.626 152.658 158.053 152.268 157.372C152.136 157.143 152.021 156.913 151.942 156.745L151.774 156.41L151.438 155.721L150.767 154.352C149.884 152.515 149.001 150.661 148.233 148.798C147.464 146.934 146.652 145.045 145.893 143.146C145.133 141.247 144.453 139.349 143.809 137.3L150.502 135.11Z" fill="#E58A7B"/>
<path d="M147.64 128.612C151.023 129.416 154.829 139.412 154.829 139.412L144.77 147.969C144.77 147.969 138.262 137.072 139.578 133.478C140.947 129.734 143.225 127.561 147.64 128.612Z" fill="#4CAF4F"/>
<path d="M165.133 129.098L168.666 126.148L171.121 129.972L169.31 133.16C169.31 133.16 166.432 135.809 163.888 134.458C163.485 133.551 163.388 132.537 163.613 131.569C163.837 130.602 164.371 129.734 165.133 129.098Z" fill="#E58A7B"/>
<path d="M175.043 126.157L174.778 127.12L169.188 128.056L168.641 126.148L175.043 126.157Z" fill="#E58A7B"/>
<path d="M143.411 279.094L133.326 272.577L135.136 269.434L146.466 276.401L143.411 279.094Z" fill="#4CAF4F"/>
<path d="M126.279 284.288C125.394 284.18 124.544 283.879 123.788 283.405C123.757 283.394 123.73 283.374 123.711 283.347C123.692 283.32 123.682 283.288 123.682 283.255C123.682 283.222 123.692 283.19 123.711 283.163C123.73 283.136 123.757 283.116 123.788 283.105C124.062 283.017 126.438 282.284 127.126 282.849C127.204 282.913 127.263 282.997 127.297 283.092C127.331 283.186 127.339 283.289 127.321 283.388C127.308 283.547 127.256 283.7 127.168 283.833C127.079 283.966 126.959 284.074 126.817 284.147C126.652 284.237 126.467 284.286 126.279 284.288ZM124.292 283.317C125.396 283.882 126.279 284.085 126.702 283.873C126.795 283.822 126.872 283.748 126.928 283.659C126.984 283.569 127.016 283.466 127.02 283.361C127.02 283.22 127.02 283.158 126.941 283.123C126.57 282.822 125.245 283.052 124.274 283.317H124.292Z" fill="#263238"/>
<path d="M123.851 283.466C123.804 283.465 123.76 283.446 123.727 283.413C123.714 283.389 123.707 283.361 123.707 283.334C123.707 283.306 123.714 283.279 123.727 283.254C123.727 283.175 124.301 281.258 125.202 280.826C125.317 280.773 125.442 280.746 125.568 280.746C125.695 280.746 125.82 280.773 125.935 280.826C126.059 280.865 126.166 280.944 126.24 281.052C126.313 281.159 126.349 281.288 126.341 281.417C126.279 282.212 124.663 283.307 123.921 283.493L123.851 283.466ZM125.564 281.055C125.478 281.058 125.394 281.079 125.317 281.117C124.769 281.382 124.319 282.415 124.098 283.042C124.875 282.715 125.944 281.85 125.979 281.364C125.979 281.285 125.979 281.188 125.776 281.099C125.71 281.064 125.638 281.04 125.564 281.029V281.055Z" fill="#263238"/>
<path d="M138.881 288.102C137.883 288.102 136.496 286.822 135.737 286.036C135.717 286.009 135.707 285.976 135.707 285.943C135.707 285.91 135.717 285.877 135.737 285.85C135.754 285.822 135.779 285.799 135.809 285.783C135.838 285.768 135.871 285.76 135.905 285.762C136.258 285.762 139.322 286.221 139.755 287.087C139.801 287.164 139.825 287.253 139.825 287.343C139.825 287.433 139.801 287.521 139.755 287.599C139.69 287.733 139.592 287.85 139.47 287.936C139.348 288.023 139.206 288.077 139.057 288.093L138.881 288.102ZM136.32 286.159C137.432 287.237 138.413 287.837 138.969 287.767C139.066 287.754 139.159 287.717 139.239 287.66C139.319 287.603 139.384 287.528 139.428 287.44C139.448 287.41 139.458 287.374 139.458 287.338C139.458 287.302 139.448 287.267 139.428 287.237C139.198 286.76 137.565 286.354 136.32 286.159Z" fill="#263238"/>
<path d="M136.417 286.114C136.219 286.12 136.021 286.105 135.825 286.07C135.798 286.066 135.772 286.055 135.751 286.038C135.729 286.021 135.712 285.998 135.702 285.973C135.689 285.947 135.682 285.918 135.682 285.889C135.682 285.86 135.689 285.831 135.702 285.805C135.755 285.743 136.947 284.304 138.077 284.207C138.397 284.182 138.714 284.283 138.96 284.489C139.305 284.79 139.287 285.055 139.199 285.222C138.978 285.823 137.45 286.114 136.417 286.114ZM136.187 285.788C137.176 285.84 138.757 285.514 138.96 285.081C138.96 285.081 139.031 284.94 138.801 284.746C138.71 284.666 138.603 284.606 138.488 284.57C138.372 284.533 138.251 284.521 138.13 284.534C137.369 284.746 136.691 285.187 136.187 285.796V285.788Z" fill="#263238"/>
<path d="M124.089 282.51L116.6 280.391C116.471 280.352 116.332 280.362 116.21 280.419C116.088 280.476 115.991 280.576 115.938 280.7L113.412 286.378C113.353 286.523 113.325 286.68 113.331 286.837C113.336 286.994 113.375 287.148 113.444 287.289C113.513 287.43 113.612 287.554 113.732 287.655C113.853 287.755 113.994 287.828 114.145 287.87C116.795 288.559 118.066 288.753 121.36 289.698C123.391 290.263 126.288 291.314 129.087 292.109C131.886 292.904 132.822 290.175 131.736 289.592C126.826 286.996 126.438 285.177 125.095 283.234C124.855 282.882 124.499 282.626 124.089 282.51Z" fill="#4CAF4F"/>
<path d="M135.941 285.001L129.547 280.585C129.439 280.506 129.305 280.47 129.172 280.483C129.038 280.496 128.914 280.558 128.823 280.656L124.585 285.213C124.481 285.33 124.404 285.469 124.358 285.619C124.313 285.769 124.3 285.926 124.32 286.082C124.34 286.237 124.393 286.386 124.475 286.52C124.557 286.653 124.667 286.767 124.796 286.855C127.048 288.365 128.214 288.975 131.031 290.926C132.797 292.127 136.214 294.794 138.599 296.454C140.983 298.114 142.758 295.836 141.91 294.935C138.113 290.882 137.283 288.339 136.656 286.034C136.547 285.616 136.294 285.25 135.941 285.001Z" fill="#4CAF4F"/>
<path d="M130.756 276.791L119.232 271.06L120.425 267.934L132.734 273.974L130.756 276.791Z" fill="#4CAF4F"/>
<path d="M115.771 168.774L114.8 171.317C114.703 171.511 114.932 171.714 115.259 171.714H144.471C144.727 171.714 144.939 171.591 144.957 171.432L145.204 168.906C145.204 168.738 145.001 168.588 144.727 168.588H116.23C116.145 168.58 116.058 168.593 115.978 168.625C115.898 168.657 115.827 168.708 115.771 168.774Z" fill="#4CAF4F"/>
<path opacity="0.4" d="M115.771 168.774L114.8 171.317C114.703 171.511 114.932 171.714 115.259 171.714H144.471C144.727 171.714 144.939 171.591 144.957 171.432L145.204 168.906C145.204 168.738 145.001 168.588 144.727 168.588H116.23C116.145 168.58 116.058 168.593 115.978 168.625C115.898 168.657 115.827 168.708 115.771 168.774Z" fill="white"/>
<path d="M120.371 171.96H119.602C119.452 171.96 119.337 171.881 119.346 171.784L119.708 168.508C119.708 168.419 119.85 168.34 120 168.34H120.768C120.918 168.34 121.033 168.419 121.024 168.508L120.662 171.784C120.653 171.881 120.521 171.96 120.371 171.96Z" fill="#4CAF4F"/>
<path d="M138.385 171.96H137.626C137.476 171.96 137.361 171.881 137.37 171.784L137.723 168.508C137.723 168.419 137.873 168.34 138.023 168.34H138.783C138.933 168.34 139.056 168.419 139.039 168.508L138.685 171.784C138.641 171.881 138.544 171.96 138.385 171.96Z" fill="#4CAF4F"/>
<g style="mix-blend-mode:multiply">
<path d="M119.7 321.508C132.766 321.508 143.358 320.741 143.358 319.795C143.358 318.849 132.766 318.082 119.7 318.082C106.635 318.082 96.043 318.849 96.043 319.795C96.043 320.741 106.635 321.508 119.7 321.508Z" fill="#F5F5F5"/>
</g>
<path d="M134.113 317.374C129.927 316.156 125.282 314.593 122.474 312.959C122.395 312.906 122.306 312.88 122.227 312.835V293.885H130.695C131.338 293.847 131.942 293.564 132.384 293.096C132.826 292.627 133.072 292.008 133.072 291.364C133.072 290.72 132.826 290.1 132.384 289.631C131.942 289.163 131.338 288.881 130.695 288.842H122.271V202.461H117.184V288.842H108.769C108.425 288.822 108.081 288.872 107.757 288.99C107.434 289.107 107.138 289.29 106.887 289.526C106.637 289.762 106.437 290.047 106.301 290.363C106.164 290.679 106.094 291.019 106.094 291.364C106.094 291.708 106.164 292.048 106.301 292.364C106.437 292.681 106.637 292.965 106.887 293.201C107.138 293.438 107.434 293.62 107.757 293.737C108.081 293.855 108.425 293.905 108.769 293.885H117.184V312.809C117.105 312.809 117.026 312.879 116.946 312.932C114.094 314.593 109.484 316.156 105.298 317.348C105.016 317.433 104.773 317.617 104.614 317.866C104.455 318.115 104.391 318.413 104.432 318.705C104.474 318.998 104.619 319.266 104.841 319.461C105.063 319.655 105.347 319.764 105.643 319.767H133.768C134.051 319.748 134.318 319.633 134.525 319.44C134.733 319.248 134.868 318.99 134.908 318.71C134.948 318.43 134.891 318.145 134.747 317.902C134.602 317.658 134.378 317.472 134.113 317.374Z" fill="#E0E0E0"/>
<path d="M135.41 193.668H104.008C101.482 193.668 99.4336 195.716 99.4336 198.242V207.576C99.4336 210.103 101.482 212.151 104.008 212.151H135.41C137.936 212.151 139.984 210.103 139.984 207.576V198.242C139.984 195.716 137.936 193.668 135.41 193.668Z" fill="#4CAF4F"/>
<path d="M103.717 212.156V213.763C103.717 215.088 105.156 216.165 106.922 216.165H132.531C134.297 216.165 135.737 215.088 135.737 213.763V212.156H103.717Z" fill="#4CAF4F"/>
<path opacity="0.3" d="M103.717 212.156V213.763C103.717 215.088 105.156 216.165 106.922 216.165H132.531C134.297 216.165 135.737 215.088 135.737 213.763V212.156H103.717Z" fill="white"/>
</svg>
