<svg width="32" height="32" viewBox="0 0 32 32" fill="none" xmlns="http://www.w3.org/2000/svg">
<path opacity="0.1" fill-rule="evenodd" clip-rule="evenodd" d="M0 16C0 7.16344 7.16344 0 16 0C24.8366 0 32 7.16344 32 16C32 24.8366 24.8366 32 16 32C7.16344 32 0 24.8366 0 16Z" fill="white"/>
<path fill-rule="evenodd" clip-rule="evenodd" d="M16.0009 7.46484C13.6834 7.46484 13.3925 7.47498 12.4823 7.5164C11.5739 7.558 10.9538 7.70182 10.4112 7.91285C9.84993 8.13081 9.37384 8.42236 8.89952 8.89686C8.42485 9.37117 8.13329 9.84727 7.91462 10.4083C7.70307 10.9511 7.55906 11.5714 7.51818 12.4795C7.47746 13.3897 7.4668 13.6807 7.4668 15.9983C7.4668 18.3158 7.47711 18.6058 7.51835 19.516C7.56013 20.4244 7.70395 21.0445 7.9148 21.5871C8.13294 22.1484 8.4245 22.6245 8.89899 23.0988C9.37313 23.5735 9.84922 23.8657 10.4101 24.0837C10.9531 24.2947 11.5733 24.4385 12.4816 24.4801C13.3918 24.5216 13.6825 24.5317 15.9999 24.5317C18.3176 24.5317 18.6075 24.5216 19.5178 24.4801C20.4262 24.4385 21.047 24.2947 21.59 24.0837C22.151 23.8657 22.6264 23.5735 23.1006 23.0988C23.5752 22.6245 23.8668 22.1484 24.0855 21.5873C24.2952 21.0445 24.4392 20.4243 24.4819 19.5162C24.5228 18.6059 24.5335 18.3158 24.5335 15.9983C24.5335 13.6807 24.5228 13.3899 24.4819 12.4797C24.4392 11.5712 24.2952 10.9511 24.0855 10.4085C23.8668 9.84727 23.5752 9.37117 23.1006 8.89686C22.6259 8.42219 22.1512 8.13063 21.5894 7.91285C21.0454 7.70182 20.425 7.558 19.5165 7.5164C18.6063 7.47498 18.3165 7.46484 15.9983 7.46484H16.0009ZM15.2354 9.00261C15.4626 9.00226 15.7161 9.00261 16.0009 9.00261C18.2793 9.00261 18.5494 9.01079 19.4491 9.05168C20.2811 9.08973 20.7327 9.22875 21.0335 9.34555C21.4317 9.50022 21.7156 9.68511 22.0141 9.98378C22.3128 10.2824 22.4977 10.5669 22.6527 10.9651C22.7695 11.2656 22.9087 11.7171 22.9466 12.5491C22.9875 13.4487 22.9963 13.7189 22.9963 15.9963C22.9963 18.2736 22.9875 18.5439 22.9466 19.4434C22.9085 20.2754 22.7695 20.727 22.6527 21.0275C22.498 21.4257 22.3128 21.7092 22.0141 22.0077C21.7154 22.3064 21.4319 22.4913 21.0335 22.646C20.733 22.7633 20.2811 22.902 19.4491 22.94C18.5495 22.9809 18.2793 22.9898 16.0009 22.9898C13.7223 22.9898 13.4522 22.9809 12.5527 22.94C11.7207 22.9016 11.2691 22.7626 10.9681 22.6458C10.5699 22.4911 10.2855 22.3062 9.98679 22.0075C9.68812 21.7089 9.50323 21.4251 9.3482 21.0267C9.2314 20.7263 9.0922 20.2747 9.05433 19.4427C9.01344 18.5432 9.00527 18.2729 9.00527 15.9942C9.00527 13.7154 9.01344 13.4466 9.05433 12.547C9.09238 11.715 9.2314 11.2634 9.3482 10.9626C9.50287 10.5644 9.68812 10.28 9.98679 9.98129C10.2855 9.68262 10.5699 9.49773 10.9681 9.34271C11.2689 9.22537 11.7207 9.0867 12.5527 9.04848C13.3399 9.01292 13.645 9.00226 15.2354 9.00048V9.00261ZM20.556 10.4195C19.9906 10.4195 19.532 10.8777 19.532 11.4432C19.532 12.0085 19.9906 12.4672 20.556 12.4672C21.1213 12.4672 21.58 12.0085 21.58 11.4432C21.58 10.8778 21.1213 10.4195 20.556 10.4195ZM16.0009 11.616C13.5808 11.616 11.6187 13.5781 11.6187 15.9982C11.6187 18.4184 13.5808 20.3796 16.0009 20.3796C18.4211 20.3796 20.3825 18.4184 20.3825 15.9982C20.3825 13.5781 18.4211 11.616 16.0009 11.616ZM16.0009 13.1538C17.5718 13.1538 18.8454 14.4272 18.8454 15.9982C18.8454 17.5691 17.5718 18.8427 16.0009 18.8427C14.4299 18.8427 13.1564 17.5691 13.1564 15.9982C13.1564 14.4272 14.4299 13.1538 16.0009 13.1538Z" fill="white"/>
</svg>
