<svg width="42" height="33" viewBox="0 0 42 33" fill="none" xmlns="http://www.w3.org/2000/svg">
<path d="M2.5 9V9.5H3H39H39.5V9V6.75C39.5 5.62283 39.0522 4.54183 38.2552 3.7448C37.4582 2.94777 36.3772 2.5 35.25 2.5H6.75C5.62283 2.5 4.54183 2.94777 3.7448 3.7448C2.94777 4.54183 2.5 5.62283 2.5 6.75V9ZM39.5 12V11.5H39H3H2.5V12V26.25C2.5 27.3772 2.94777 28.4582 3.7448 29.2552C4.54183 30.0522 5.62283 30.5 6.75 30.5H35.25C36.3772 30.5 37.4582 30.0522 38.2552 29.2552C39.0522 28.4582 39.5 27.3772 39.5 26.25V12ZM0.5 6.75C0.5 5.0924 1.15848 3.50268 2.33058 2.33058C3.50268 1.15848 5.0924 0.5 6.75 0.5H35.25C36.9076 0.5 38.4973 1.15848 39.6694 2.33058C40.8415 3.50268 41.5 5.0924 41.5 6.75V26.25C41.5 27.9076 40.8415 29.4973 39.6694 30.6694C38.4973 31.8415 36.9076 32.5 35.25 32.5H6.75C5.0924 32.5 3.50268 31.8415 2.33058 30.6694C1.15848 29.4973 0.5 27.9076 0.5 26.25V6.75ZM28.5 21.5H33C33.2652 21.5 33.5196 21.6054 33.7071 21.7929C33.8946 21.9804 34 22.2348 34 22.5C34 22.7652 33.8946 23.0196 33.7071 23.2071C33.5196 23.3946 33.2652 23.5 33 23.5H28.5C28.2348 23.5 27.9804 23.3946 27.7929 23.2071C27.6054 23.0196 27.5 22.7652 27.5 22.5C27.5 22.2348 27.6054 21.9804 27.7929 21.7929C27.9804 21.6054 28.2348 21.5 28.5 21.5Z" fill="#4CAF4F" stroke="#4CAF4F"/>
</svg>
