<svg width="33" height="30" viewBox="0 0 33 30" fill="none" xmlns="http://www.w3.org/2000/svg">
<path d="M16.9358 9.39528L16.9355 14.4182V14.4182V14.4766C16.9355 14.5932 16.9506 14.7062 16.9788 14.8139L16.931 15.6317L16.9284 15.6756C16.9172 15.8673 16.8426 16.0349 16.7164 16.1612L18.159 15.2163C18.0768 15.2028 17.9946 15.1736 17.9128 15.1291L17.5166 14.9133V14.4766V14.4182V9.39528M16.9358 9.39528V9.39525L17.2262 9.39527L17.5166 9.39528M16.9358 9.39528C16.9358 9.55571 17.0661 9.6857 17.2262 9.6857C17.3866 9.6857 17.5166 9.5554 17.5166 9.39528M16.9358 9.39528H17.2262H17.5166M11.3155 8.9463L11.3156 8.94634L11.3155 8.9463ZM11.3155 8.9463C11.1025 9.31737 10.5908 9.4559 10.2171 9.24127L11.3155 8.9463ZM9.88446 9.819L9.88384 9.81864C9.60947 9.66025 9.41164 9.4008 9.32978 9.09676L9.32966 9.09631L9.32963 9.09621L9.32922 9.09468C9.26265 8.84416 9.27948 8.58206 9.37528 8.34461V8.15004C9.20448 8.44503 9.15877 8.78924 9.24712 9.11836C9.335 9.44729 9.54633 9.72223 9.84177 9.89351L9.88446 9.819ZM17.1279 16.5724L17.188 16.6324L17.1279 16.5724L17.1272 16.5731C16.8764 16.8234 16.54 16.9615 16.1867 16.9615C16.1867 16.9615 16.1867 16.9615 16.1867 16.9615C15.7066 16.9615 15.2854 16.7064 15.0516 16.3244C15.0276 16.3367 15.0033 16.3485 14.9787 16.36L17.1279 16.5724ZM9.95171 8.48496C9.86995 8.62668 9.84878 8.78814 9.89096 8.94539C9.89097 8.94544 9.89098 8.94548 9.89099 8.94553L9.89103 8.94566L9.89119 8.94628C9.93297 9.10263 10.0314 9.2322 10.1742 9.31563C10.1743 9.31566 10.1743 9.3157 10.1744 9.31573L9.95171 8.48496Z" fill="#4CAF4F" stroke="#4CAF4F" stroke-width="1.33333"/>
<path d="M8.15711 21.7917C7.97853 21.8992 7.74764 21.8412 7.64091 21.6629C7.53396 21.4848 7.59191 21.2536 7.76979 21.1467L8.15711 21.7917ZM3.77871 17.427C3.79335 17.4006 3.80705 17.376 3.81973 17.3531C3.87098 17.2608 3.90568 17.1983 3.91962 17.1732L3.99541 17.2131C3.94859 17.2975 3.90265 17.3802 3.85758 17.4614C3.83118 17.4515 3.80483 17.4401 3.77871 17.427ZM14.1872 19.7211C14.3394 19.6296 14.4469 19.485 14.4897 19.3132C14.5326 19.1417 14.506 18.9634 14.4148 18.8112L14.1872 19.7211Z" fill="#4CAF4F" stroke="#4CAF4F" stroke-width="1.33333"/>
<path d="M19.8842 19.0937C19.7902 19.0354 19.7047 18.9664 19.629 18.8884L18.9097 18.512L18.9097 18.512L18.8696 18.491C18.7558 18.4315 18.6398 18.4032 18.528 18.403L19.8842 19.0937ZM18.2032 17.8624C18.2033 17.8623 18.2034 17.8623 18.2036 17.8623L18.259 18.0845L18.259 18.0846L18.3441 18.426L18.344 18.426L18.2032 17.8624ZM22.4187 24.786C22.4185 24.7859 22.4184 24.7858 22.4182 24.7858L22.4187 24.786ZM17.8765 21.1876L17.8779 21.1884L17.8765 21.1876Z" fill="#4CAF4F" stroke="#4CAF4F" stroke-width="1.33333"/>
</svg>
