<svg width="32" height="32" viewBox="0 0 32 32" fill="none" xmlns="http://www.w3.org/2000/svg">
<path opacity="0.1" fill-rule="evenodd" clip-rule="evenodd" d="M0 16C0 7.16344 7.16344 0 16 0C24.8366 0 32 7.16344 32 16C32 24.8366 24.8366 32 16 32C7.16344 32 0 24.8366 0 16Z" fill="white"/>
<path fill-rule="evenodd" clip-rule="evenodd" d="M24.5335 15.9863C24.5335 16.5634 24.4747 17.1397 24.3593 17.7015C24.2468 18.2499 24.0801 18.7883 23.8618 19.303C23.6485 19.8086 23.3839 20.2958 23.0747 20.7501C22.7701 21.2016 22.4192 21.6252 22.0338 22.0113C21.6475 22.3958 21.2225 22.7457 20.7712 23.0515C20.3154 23.3586 19.8275 23.6228 19.3216 23.8371C18.8061 24.0543 18.2665 24.2207 17.7186 24.333C17.1561 24.4487 16.5777 24.5078 15.9997 24.5078C15.4214 24.5078 14.843 24.4487 14.2813 24.333C13.7326 24.2207 13.1929 24.0543 12.6779 23.8371C12.1721 23.6228 11.6837 23.3586 11.2278 23.0515C10.7766 22.7457 10.3516 22.3958 9.96611 22.0113C9.58027 21.6252 9.2294 21.2016 8.92439 20.7501C8.61687 20.2958 8.35184 19.8085 8.13768 19.303C7.9193 18.7883 7.75224 18.2499 7.63931 17.7015C7.52515 17.1397 7.4668 16.5634 7.4668 15.9863C7.4668 15.4088 7.52511 14.8313 7.63934 14.2708C7.75227 13.7224 7.91934 13.1831 8.13771 12.6693C8.35187 12.1633 8.6169 11.6757 8.92442 11.2213C9.22943 10.7694 9.5803 10.3467 9.96614 9.96012C10.3516 9.57563 10.7766 9.22657 11.2279 8.92116C11.6837 8.61282 12.1721 8.34864 12.6779 8.13392C13.193 7.91626 13.7326 7.74944 14.2814 7.63794C14.8431 7.52311 15.4214 7.46484 15.9998 7.46484C16.5777 7.46484 17.1561 7.52311 17.7186 7.63794C18.2665 7.74947 18.8061 7.9163 19.3216 8.13392C19.8275 8.34861 20.3154 8.61282 20.7713 8.92116C21.2225 9.22657 21.6476 9.57563 22.0338 9.96012C22.4193 10.3467 22.7701 10.7694 23.0747 11.2213C23.3839 11.6757 23.6485 12.1634 23.8618 12.6693C24.0801 13.1831 24.2468 13.7224 24.3593 14.2708C24.4747 14.8313 24.5335 15.4088 24.5335 15.9863ZM12.8904 9.40422C10.8582 10.3625 9.34143 12.2324 8.86848 14.4859C9.0606 14.4876 12.0974 14.5259 15.5963 13.5976C14.335 11.3598 12.9875 9.53366 12.8904 9.40422ZM16.2001 14.7181C12.4479 15.8399 8.84724 15.7591 8.71808 15.7542C8.71597 15.8324 8.71223 15.9081 8.71223 15.9863C8.71223 17.8558 9.41851 19.5601 10.5794 20.8487C10.5769 20.845 12.5712 17.312 16.5039 16.0421C16.5989 16.0105 16.6956 15.9822 16.7914 15.9547C16.6085 15.5412 16.4089 15.1267 16.2001 14.7181ZM20.8125 10.5248C19.5295 9.39506 17.8448 8.70981 15.9997 8.70981C15.4076 8.70981 14.833 8.78138 14.2825 8.91369C14.3917 9.06017 15.7605 10.8735 17.0068 13.1586C19.7566 12.1292 20.7945 10.5514 20.8125 10.5248ZM17.2882 17.1605C17.2719 17.1659 17.2557 17.1705 17.2398 17.1763C12.9401 18.6731 11.536 21.6896 11.5208 21.7225C12.7579 22.6833 14.3097 23.2629 15.9998 23.2629C17.009 23.2629 17.9703 23.0577 18.8449 22.6862C18.737 22.0504 18.3136 19.8218 17.2882 17.1605ZM20.072 22.0213C21.7083 20.9187 22.8705 19.1678 23.1946 17.1397C23.0446 17.0914 21.0058 16.4469 18.6536 16.8235C19.6095 19.4465 19.9978 21.5827 20.072 22.0213ZM17.5678 14.2429C17.7369 14.59 17.9007 14.9431 18.0519 15.2981C18.1057 15.4255 18.1582 15.5503 18.2095 15.6751C20.7129 15.3605 23.1793 15.8898 23.2847 15.9114C23.2681 14.1863 22.6501 12.6031 21.6276 11.3636C21.6138 11.3831 20.445 13.0695 17.5678 14.2429Z" fill="white"/>
</svg>
