<svg width="191" height="30" viewBox="0 0 191 30" fill="none" xmlns="http://www.w3.org/2000/svg">
<path d="M23.2261 16.239L16.5611 27.6538L9.89623 16.239H23.2261ZM25.0116 15.2188H8.10352L16.5611 29.6728L25.0116 15.2188Z" fill="white"/>
<path d="M34.8131 2.0404L41.478 13.4552H28.1482L34.8131 2.0404ZM34.8131 0L26.3555 14.454H43.2707L34.8131 0Z" fill="white"/>
<path d="M0 0L7.09143 12.7846L14.8406 0.321025L0 0Z" fill="#4CAF4F"/>
<path d="M16.5603 1.12109L23.9987 13.8344H9.10742L16.5603 1.12109Z" fill="#4CAF4F"/>
<path d="M25.9151 16.6094L33.3607 29.6723H18.1152L25.6837 16.6094H25.9151Z" fill="#4CAF4F"/>
<path d="M27.5273 15.8164L34.8139 28.6795L42.2017 15.8164H27.5273Z" fill="#4CAF4F"/>
<path d="M74.22 2.0625V27.2385H69.6224L58.6694 11.3929H58.485V27.2385H53.1621V2.0625H57.8334L68.7004 17.8959H68.9217V2.0625H74.22Z" fill="white"/>
<path d="M87.1245 27.6073C85.1823 27.6073 83.5104 27.2139 82.109 26.4272C80.7158 25.6322 79.6422 24.5095 78.8882 23.0589C78.1343 21.6001 77.7573 19.875 77.7573 17.8836C77.7573 15.9413 78.1343 14.2366 78.8882 12.7697C79.6422 11.3027 80.7035 10.1595 82.0721 9.33994C83.4489 8.52041 85.0634 8.11065 86.9156 8.11065C88.1613 8.11065 89.3209 8.31143 90.3945 8.713C91.4763 9.10638 92.4187 9.70054 93.2219 10.4955C94.0332 11.2904 94.6642 12.2903 95.115 13.495C95.5657 14.6915 95.7911 16.0929 95.7911 17.6992V19.1375H79.8471V15.8921H90.8616C90.8616 15.1381 90.6977 14.4702 90.3699 13.8883C90.0421 13.3065 89.5872 12.8516 89.0054 12.5238C88.4317 12.1878 87.7638 12.0198 87.0016 12.0198C86.2067 12.0198 85.5019 12.2042 84.8872 12.573C84.2808 12.9336 83.8054 13.4212 83.4612 14.0359C83.117 14.6423 82.9408 15.3184 82.9326 16.0642V19.1497C82.9326 20.084 83.1047 20.8912 83.4489 21.5715C83.8013 22.2517 84.2972 22.7762 84.9364 23.145C85.5756 23.5138 86.3337 23.6981 87.2106 23.6981C87.7925 23.6981 88.3252 23.6162 88.8087 23.4523C89.2922 23.2884 89.7061 23.0425 90.0503 22.7147C90.3945 22.3869 90.6567 21.9853 90.837 21.51L95.6805 21.8296C95.4346 22.9933 94.9306 24.0096 94.1684 24.8783C93.4145 25.7388 92.4392 26.4108 91.2427 26.8943C90.0544 27.3697 88.6817 27.6073 87.1245 27.6073Z" fill="white"/>
<path d="M103.247 8.35651L106.713 14.9578L110.266 8.35651H115.638L110.168 17.7975L115.786 27.2385H110.438L106.713 20.711L103.05 27.2385H97.6412L103.247 17.7975L97.8379 8.35651H103.247Z" fill="white"/>
<path d="M126.603 27.6073C124.669 27.6073 123.006 27.1975 121.613 26.378C120.227 25.5503 119.162 24.4029 118.416 22.936C117.679 21.469 117.31 19.7808 117.31 17.8713C117.31 15.9372 117.683 14.2407 118.429 12.782C119.183 11.315 120.252 10.1718 121.637 9.35224C123.022 8.52451 124.669 8.11065 126.579 8.11065C128.226 8.11065 129.668 8.40978 130.906 9.00803C132.143 9.60629 133.123 10.4463 133.844 11.5281C134.565 12.6099 134.963 13.8802 135.036 15.3389H130.095C129.955 14.3965 129.587 13.6384 128.988 13.0647C128.398 12.4829 127.624 12.1919 126.665 12.1919C125.854 12.1919 125.145 12.4132 124.538 12.8557C123.94 13.2901 123.473 13.9252 123.137 14.7612C122.801 15.5971 122.633 16.6092 122.633 17.7975C122.633 19.0022 122.797 20.0266 123.125 20.8708C123.461 21.7149 123.932 22.3582 124.538 22.8008C125.145 23.2433 125.854 23.4646 126.665 23.4646C127.263 23.4646 127.8 23.3416 128.275 23.0958C128.759 22.8499 129.156 22.4934 129.468 22.0263C129.787 21.551 129.996 20.9814 130.095 20.3176H135.036C134.954 21.76 134.561 23.0302 133.856 24.1284C133.16 25.2184 132.197 26.0707 130.967 26.6853C129.738 27.3 128.283 27.6073 126.603 27.6073Z" fill="white"/>
<path d="M146.994 27.6073C145.052 27.6073 143.38 27.2139 141.979 26.4272C140.586 25.6322 139.512 24.5095 138.758 23.0589C138.004 21.6001 137.627 19.875 137.627 17.8836C137.627 15.9413 138.004 14.2366 138.758 12.7697C139.512 11.3027 140.573 10.1595 141.942 9.33994C143.319 8.52041 144.933 8.11065 146.785 8.11065C148.031 8.11065 149.191 8.31143 150.264 8.713C151.346 9.10638 152.289 9.70054 153.092 10.4955C153.903 11.2904 154.534 12.2903 154.985 13.495C155.436 14.6915 155.661 16.0929 155.661 17.6992V19.1375H139.717V15.8921H150.731C150.731 15.1381 150.568 14.4702 150.24 13.8883C149.912 13.3065 149.457 12.8516 148.875 12.5238C148.302 12.1878 147.634 12.0198 146.872 12.0198C146.077 12.0198 145.372 12.2042 144.757 12.573C144.151 12.9336 143.675 13.4212 143.331 14.0359C142.987 14.6423 142.811 15.3184 142.803 16.0642V19.1497C142.803 20.084 142.975 20.8912 143.319 21.5715C143.671 22.2517 144.167 22.7762 144.806 23.145C145.446 23.5138 146.204 23.6981 147.08 23.6981C147.662 23.6981 148.195 23.6162 148.679 23.4523C149.162 23.2884 149.576 23.0425 149.92 22.7147C150.264 22.3869 150.527 21.9853 150.707 21.51L155.55 21.8296C155.304 22.9933 154.8 24.0096 154.038 24.8783C153.284 25.7388 152.309 26.4108 151.113 26.8943C149.924 27.3697 148.552 27.6073 146.994 27.6073Z" fill="white"/>
<path d="M164.315 16.3224V27.2385H159.078V8.35651H164.069V11.6879H164.291C164.709 10.5897 165.409 9.72103 166.393 9.08179C167.376 8.43436 168.569 8.11065 169.97 8.11065C171.281 8.11065 172.425 8.39748 173.4 8.97116C174.375 9.54483 175.133 10.3644 175.674 11.4298C176.215 12.4869 176.485 13.749 176.485 15.216V27.2385H171.248V16.1503C171.257 14.9947 170.962 14.0932 170.363 13.4458C169.765 12.7902 168.941 12.4624 167.892 12.4624C167.188 12.4624 166.565 12.614 166.024 12.9172C165.491 13.2204 165.073 13.663 164.77 14.2448C164.475 14.8185 164.323 15.511 164.315 16.3224Z" fill="white"/>
<path d="M190.656 8.35651V12.2903H179.285V8.35651H190.656ZM181.867 3.83269H187.103V21.4362C187.103 21.9198 187.177 22.2967 187.325 22.5672C187.472 22.8294 187.677 23.0138 187.939 23.1204C188.21 23.2269 188.521 23.2802 188.874 23.2802C189.119 23.2802 189.365 23.2597 189.611 23.2187C189.857 23.1695 190.045 23.1327 190.177 23.1081L191 27.005C190.738 27.0869 190.369 27.1812 189.894 27.2877C189.419 27.4024 188.841 27.4721 188.161 27.4967C186.898 27.5459 185.792 27.3778 184.841 26.9927C183.899 26.6075 183.165 26.0092 182.641 25.1979C182.116 24.3866 181.858 23.3621 181.867 22.1246V3.83269Z" fill="white"/>
</svg>
