<svg width="442" height="434" viewBox="0 0 442 434" fill="none" xmlns="http://www.w3.org/2000/svg">
<path d="M376.37 433.132C376.37 433.277 304.602 433.401 216.101 433.401C127.6 433.401 55.8008 433.277 55.8008 433.132C55.8008 432.987 127.559 432.863 216.101 432.863C304.643 432.863 376.37 432.998 376.37 433.132Z" fill="#263238"/>
<path d="M306.44 306.604C290.472 295.452 286.855 274.751 287.485 256.137C287.588 253.036 287.247 249.75 288.725 247.032C290.203 244.313 293.655 242.443 296.435 243.745C298.74 244.83 299.743 247.517 301.035 249.739C302.758 252.699 305.285 255.111 308.321 256.695C310.295 257.729 312.745 258.349 314.698 257.274C317.385 255.796 317.695 252.106 317.674 249.006C317.674 243.239 317.64 237.478 317.571 231.725C317.385 228.636 317.699 225.537 318.501 222.547C319.462 219.612 321.602 216.894 324.527 216.067C327.452 215.24 331.1 216.946 331.761 219.964C331.875 221.242 331.906 222.526 331.854 223.808C331.937 225.1 332.537 226.516 333.746 226.909C334.955 227.302 336.216 226.402 337.146 225.493C340.329 222.392 342.5 218.351 344.515 214.362C346.53 210.372 348.505 206.269 351.398 202.869C354.292 199.469 358.292 196.771 362.767 196.513C367.242 196.254 371.904 199.004 373.02 203.344C374.136 207.685 371.604 212.119 368.886 215.643C364.784 220.875 359.949 225.487 354.53 229.338C353.472 229.915 352.628 230.817 352.122 231.911C351.45 233.978 353.403 236.045 355.44 236.696C357.744 237.461 360.245 237.223 362.674 237.513C365.103 237.802 367.687 238.856 368.607 241.13C369.868 244.293 367.222 247.6 364.628 249.77C359.419 254.111 353.504 257.527 347.14 259.868C344.867 260.695 342.479 261.429 340.639 263.02C338.8 264.612 337.704 267.392 338.81 269.573C339.916 271.754 342.758 272.446 345.146 272.002C347.533 271.557 349.652 270.276 351.926 269.418C356.173 267.816 361.651 268.105 364.328 271.774C365.157 273.038 365.682 274.477 365.861 275.978C366.041 277.479 365.87 279.001 365.361 280.425C364.327 283.258 362.735 285.855 360.679 288.063C353.91 296.15 345.115 302.296 335.193 305.87C325.343 309.281 316.217 310.211 306.43 306.625" fill="#4CAF4F"/>
<path d="M368.473 199.066C368.473 199.066 368.38 199.17 368.173 199.356L367.253 200.172C366.447 200.896 365.259 201.95 363.76 203.345C359.511 207.29 355.566 211.55 351.957 216.089C349.652 218.951 347.265 222.197 344.722 225.721C342.18 229.245 339.555 233.049 336.95 237.09C334.174 241.351 331.631 245.761 329.333 250.298C328.134 252.665 327.08 255.135 325.995 257.657L322.791 265.357C318.568 275.055 314.89 284.982 311.774 295.091C309.264 303.362 307.534 311.85 306.606 320.444C306.005 326.243 305.908 332.084 306.317 337.9C306.482 339.967 306.637 341.548 306.782 342.623C306.844 343.14 306.885 343.553 306.926 343.853V344.277C306.882 344.142 306.851 344.004 306.833 343.863C306.782 343.564 306.72 343.161 306.637 342.644C306.451 341.61 306.255 339.977 306.069 337.91C305.57 332.083 305.604 326.223 306.172 320.402C307.042 311.772 308.734 303.245 311.226 294.936C314.316 284.799 317.984 274.847 322.212 265.129L325.499 257.461C326.584 254.949 327.649 252.458 328.858 250.081C331.171 245.53 333.735 241.11 336.537 236.842C339.183 232.708 341.849 228.966 344.361 225.473C346.872 221.98 349.301 218.714 351.595 215.861C355.24 211.335 359.239 207.105 363.553 203.211C365.083 201.836 366.302 200.803 367.129 200.11L368.09 199.335C368.208 199.233 368.336 199.142 368.473 199.066Z" fill="#263238"/>
<path d="M328.992 250.059C328.847 249.633 328.746 249.193 328.693 248.747C328.527 247.889 328.341 246.679 328.124 245.108C327.68 242.008 327.225 237.76 326.739 233.058C326.254 228.355 325.706 224.097 325.251 221.027C325.013 219.498 324.807 218.268 324.662 217.41C324.549 216.971 324.49 216.52 324.486 216.066C324.664 216.48 324.793 216.914 324.869 217.358C325.096 218.206 325.354 219.425 325.644 220.965C326.233 224.066 326.812 228.283 327.297 232.996C327.783 237.708 328.197 241.843 328.517 245.057C328.672 246.504 328.806 247.734 328.91 248.716C328.99 249.159 329.018 249.61 328.992 250.059Z" fill="#263238"/>
<path d="M368.762 242.64C368.259 242.75 367.747 242.812 367.232 242.826C366.199 242.919 364.731 243.043 362.912 243.25C359.274 243.643 354.272 244.366 348.784 245.4C343.296 246.433 338.366 247.601 334.821 248.5C333.054 248.955 331.628 249.369 330.687 249.648C330.185 249.826 329.665 249.951 329.137 250.02C329.614 249.78 330.112 249.582 330.625 249.431C331.596 249.09 333.002 248.614 334.759 248.108C338.283 247.074 343.213 245.844 348.722 244.79C353.388 243.898 358.097 243.242 362.83 242.826C364.659 242.671 366.137 242.609 367.17 242.589C367.701 242.553 368.235 242.57 368.762 242.64Z" fill="#263238"/>
<path d="M311.731 294.211C311.621 294.061 311.531 293.898 311.462 293.725L310.78 292.289C310.191 291.038 309.395 289.188 308.445 286.925C306.522 282.377 304.073 276.011 301.468 268.941C298.864 261.872 296.466 255.505 294.647 250.906C293.758 248.674 293.024 246.844 292.477 245.48L291.898 244.002C291.818 243.832 291.762 243.651 291.732 243.465C291.843 243.614 291.933 243.778 292.001 243.951L292.683 245.387C293.262 246.638 294.068 248.488 295.019 250.751C296.941 255.299 299.391 261.665 301.995 268.735C304.6 275.804 306.998 282.17 308.817 286.77C309.705 289.002 310.439 290.831 310.977 292.196C311.214 292.785 311.411 293.229 311.566 293.674C311.646 293.844 311.702 294.025 311.731 294.211Z" fill="#263238"/>
<path d="M364.524 277.191C364.358 277.286 364.181 277.359 363.996 277.408L362.467 277.925L356.813 279.755C352.039 281.305 345.445 283.517 338.21 285.956C330.975 288.395 324.35 290.565 319.544 292.012C317.147 292.746 315.193 293.304 313.839 293.676L312.279 294.079C312.097 294.137 311.91 294.175 311.721 294.193C311.886 294.098 312.063 294.025 312.248 293.976L313.777 293.459L319.431 291.63C324.206 290.079 330.8 287.868 338.034 285.429C345.269 282.989 351.884 280.819 356.689 279.372C359.098 278.638 361.041 278.08 362.405 277.708L363.965 277.305C364.147 277.247 364.334 277.209 364.524 277.191Z" fill="#263238"/>
<path d="M342.987 26.4875L337.664 28.3892L335.38 21.4335C331.184 8.60747 317.81 1.79653 305.522 6.12701C293.233 10.4575 286.691 24.5238 290.887 37.3498L293.171 44.3055L287.828 46.2175C285.79 47.0078 284.136 48.5529 283.208 50.5316C282.28 52.5103 282.151 54.7704 282.846 56.8422L297.657 102.1C297.964 103.126 298.474 104.079 299.158 104.904C299.841 105.728 300.683 106.407 301.633 106.899C302.584 107.392 303.624 107.689 304.691 107.771C305.759 107.854 306.832 107.722 307.847 107.382L363.006 87.6516C365.071 86.8627 366.749 85.3039 367.688 83.3031C368.626 81.3023 368.753 79.0155 368.04 76.9236L353.219 31.6654C352.903 30.6427 352.385 29.694 351.695 28.8759C351.005 28.0579 350.157 27.3872 349.202 26.9039C348.247 26.4207 347.205 26.1347 346.137 26.0632C345.069 25.9916 343.998 26.1359 342.987 26.4875ZM300.943 33.7222C299.812 30.3872 300.015 26.7438 301.51 23.5552C303.005 20.3667 305.676 17.8804 308.963 16.6173C310.587 16.0619 312.305 15.8392 314.016 15.9624C315.727 16.0857 317.396 16.5524 318.923 17.3346C320.45 18.1169 321.804 19.1987 322.904 20.5156C324.003 21.8324 324.827 23.3573 325.324 24.9992L327.598 31.9548L303.217 40.6778L300.943 33.7222ZM331.949 73.885L335.732 85.4398C335.801 85.6715 335.779 85.9211 335.669 86.1366C335.559 86.3522 335.371 86.5172 335.143 86.5974L329.841 88.4887C329.63 88.5472 329.404 88.5218 329.211 88.4178C329.019 88.3137 328.874 88.1391 328.807 87.9306L324.993 76.4275C322.89 76.3129 320.873 75.5586 319.21 74.2657C317.548 72.9727 316.32 71.2028 315.692 69.1928C314.793 66.5355 314.957 63.6335 316.149 61.0944C317.342 58.5553 319.47 56.576 322.089 55.5709C323.382 55.1291 324.751 54.9522 326.114 55.0506C327.477 55.149 328.806 55.5209 330.022 56.1439C331.238 56.7669 332.317 57.6284 333.193 58.677C334.069 59.7257 334.725 60.9399 335.122 62.2475C335.787 64.2893 335.842 66.4807 335.28 68.5532C334.718 70.6258 333.564 72.4895 331.959 73.916L331.949 73.885Z" fill="#4CAF4F"/>
<path d="M337.427 28.2654C337.427 28.4101 327.557 32.1204 315.279 36.5336C303 40.9468 292.985 44.4918 292.934 44.3884C292.882 44.2851 302.804 40.5437 315.093 36.1202C327.381 31.6967 337.375 28.131 337.427 28.2654Z" fill="#263238"/>
<path d="M349.147 30.168C349.193 30.2577 349.231 30.351 349.261 30.447C349.343 30.6537 349.436 30.9224 349.56 31.2532C349.829 32.0076 350.201 33.0515 350.666 34.3537L354.635 45.9086C356.289 50.8075 358.263 56.6159 360.454 63.0651C361.487 66.3 362.707 69.6693 363.844 73.2143C364.452 75.0411 364.715 76.9653 364.619 78.8884C364.531 79.8885 364.247 80.8615 363.782 81.7513C363.285 82.6381 362.622 83.4207 361.828 84.056C360.232 85.2216 358.459 86.1252 356.578 86.7329L351.255 88.6449L341.179 92.2519L324.115 98.329L312.591 102.38L309.491 103.414L308.664 103.683C308.575 103.722 308.481 103.746 308.385 103.755C308.385 103.755 308.467 103.755 308.643 103.631L309.449 103.311L312.55 102.143L324.012 97.926L341.044 91.7248L351.1 88.0868L356.423 86.1644C358.251 85.5815 359.972 84.7054 361.518 83.5703C362.257 82.9807 362.874 82.2543 363.337 81.4309C363.775 80.608 364.039 79.7039 364.113 78.7747C364.208 76.9218 363.955 75.0674 363.368 73.3074C362.252 69.7934 361.074 66.3931 360.009 63.1581C357.86 56.6986 355.875 50.8695 354.304 45.9706C352.733 41.0717 351.41 37.1339 350.501 34.3641C350.067 33.0102 349.736 31.956 349.467 31.1912L349.219 30.3643C349.188 30.3017 349.164 30.2359 349.147 30.168Z" fill="#263238"/>
<path d="M320.042 15.9162C320.042 15.9162 319.494 15.6475 318.481 15.234C317.038 14.6793 315.511 14.3719 313.965 14.3245C311.674 14.246 309.393 14.6766 307.288 15.5854C304.729 16.7171 302.54 18.5476 300.974 20.8668C299.397 23.1793 298.55 25.9122 298.545 28.7112C298.566 31.0054 298.914 33.2848 299.578 35.4808C300.116 37.3618 300.674 38.8605 301.046 39.9043C301.265 40.4345 301.445 40.9804 301.583 41.5373C301.29 41.0416 301.044 40.519 300.849 39.9767C300.426 38.9431 299.816 37.4755 299.217 35.5842C298.481 33.3651 298.08 31.0486 298.028 28.7112C298 25.8064 298.866 22.9633 300.508 20.567C302.13 18.1632 304.408 16.2761 307.071 15.1307C309.242 14.2169 311.593 13.8138 313.944 13.9525C315.524 14.033 317.075 14.4007 318.523 15.0377C318.91 15.2162 319.283 15.4235 319.639 15.6578C319.786 15.7224 319.922 15.8096 320.042 15.9162Z" fill="#263238"/>
<path d="M320.518 56.3572C320.683 56.2572 320.856 56.1708 321.035 56.0988C321.552 55.8653 322.088 55.6752 322.637 55.5303C323.508 55.2732 324.406 55.1206 325.313 55.0756C326.547 55.0093 327.782 55.1957 328.941 55.6234C331.587 56.5535 334.016 59.251 335.215 62.858C335.79 64.7937 335.79 66.8548 335.215 68.7905C334.577 70.8914 333.434 72.8041 331.887 74.3612L331.949 74.0821C333.323 77.8545 334.822 81.9473 336.372 86.2157L336.465 86.4741L336.207 86.5671L333.84 87.3526L328.672 89.0786L328.414 89.1613L328.331 88.9029C326.915 84.6241 325.365 80.6347 324.197 76.7176L324.425 76.8933C322.404 76.7255 320.478 75.9671 318.885 74.7126C317.444 73.6027 316.262 72.1919 315.423 70.5785C314.665 69.1477 314.288 67.5462 314.327 65.9276C314.375 64.2734 314.788 62.6502 315.537 61.1743C316.285 59.6985 317.351 58.4064 318.657 57.3907C319.195 56.9541 319.799 56.6053 320.446 56.3572C319.862 56.7035 319.296 57.0795 318.751 57.4837C317.315 58.6979 316.216 60.2602 315.557 62.0209C314.991 63.3486 314.727 64.785 314.782 66.2271C314.838 67.6691 315.212 69.081 315.877 70.3614C316.703 71.9136 317.856 73.2677 319.257 74.3302C320.776 75.5226 322.613 76.2415 324.538 76.3972H324.714L324.766 76.5523C325.903 80.397 327.463 84.4174 328.9 88.7169L328.559 88.5515L333.726 86.8255L336.083 86.0297L335.917 86.3811C334.377 82.1126 332.889 78.0095 331.525 74.2372V74.0821L331.649 73.9581C333.151 72.4656 334.272 70.6326 334.915 68.6148C335.463 66.7631 335.463 64.7923 334.915 62.9407C333.788 59.4681 331.463 56.8326 328.941 55.9024C327.825 55.472 326.633 55.2716 325.437 55.3133C324.545 55.3337 323.657 55.4551 322.792 55.675C321.252 56.0574 320.528 56.4088 320.518 56.3572Z" fill="#263238"/>
<path d="M288.57 354.78L185.331 354.304C179.369 354.271 173.664 351.874 169.469 347.638C165.273 343.401 162.931 337.673 162.955 331.711L164.051 72.906C164.063 69.9522 164.657 67.0298 165.799 64.3058C166.942 61.5818 168.61 59.1097 170.708 57.0307C172.806 54.9516 175.293 53.3065 178.028 52.1893C180.762 51.0722 183.69 50.5049 186.644 50.5198L289.872 50.9952C295.834 51.0253 301.541 53.4205 305.738 57.6546C309.935 61.8888 312.28 67.6158 312.258 73.5778L311.163 332.373C311.151 335.328 310.557 338.251 309.415 340.976C308.273 343.701 306.605 346.175 304.507 348.255C302.409 350.336 299.922 351.983 297.188 353.103C294.453 354.222 291.525 354.792 288.57 354.78Z" fill="#455A64"/>
<path d="M289.717 59.8946H269.708C269.055 59.9067 268.411 60.0474 267.813 60.3084C267.214 60.5695 266.673 60.9459 266.22 61.4162C265.767 61.8865 265.411 62.4414 265.173 63.0493C264.934 63.6572 264.818 64.3061 264.83 64.9589V68.5866C264.842 69.239 264.726 69.8874 264.487 70.4946C264.249 71.1019 263.893 71.6561 263.439 72.1256C262.986 72.5951 262.445 72.9705 261.847 73.2305C261.248 73.4904 260.604 73.6298 259.952 73.6405L220.947 73.4648C219.627 73.4297 218.375 72.8722 217.467 71.9149C216.558 70.9577 216.066 69.6788 216.099 68.3592V64.7315C216.133 63.4137 215.642 62.1364 214.736 61.1794C213.829 60.2224 212.58 59.6638 211.262 59.6259H204.224L186.706 59.5432C182.539 59.5184 178.532 61.1457 175.563 64.0688C172.593 66.9919 170.903 70.9725 170.862 75.1392L169.828 327.754C169.819 329.821 170.216 331.87 170.999 333.783C171.781 335.696 172.932 337.437 174.387 338.905C175.842 340.374 177.572 341.541 179.478 342.341C181.384 343.141 183.429 343.557 185.497 343.567L288.518 344.042C290.587 344.052 292.637 343.654 294.552 342.871C296.466 342.088 298.208 340.936 299.677 339.48C301.147 338.024 302.315 336.293 303.115 334.386C303.915 332.478 304.332 330.432 304.342 328.364L305.375 75.7489C305.4 71.5705 303.765 67.5533 300.828 64.5803C297.892 61.6074 293.896 59.922 289.717 59.8946Z" fill="white"/>
<path d="M275.858 310.337L199.253 310.006C198.457 310.006 197.816 309.138 197.826 308.084L197.909 288.043C197.909 287.01 198.56 286.121 199.356 286.121L275.961 286.472C276.402 286.549 276.796 286.792 277.062 287.152C277.328 287.513 277.444 287.961 277.387 288.405L277.315 308.425C277.315 309.489 276.653 310.347 275.858 310.337Z" fill="#4CAF4F"/>
<path d="M222.543 300.127C222.12 300.127 221.714 300.059 221.323 299.924C220.939 299.783 220.64 299.604 220.429 299.387L220.665 298.923C220.865 299.119 221.134 299.284 221.47 299.419C221.811 299.55 222.169 299.615 222.543 299.615C222.901 299.615 223.191 299.571 223.413 299.485C223.641 299.392 223.806 299.27 223.909 299.119C224.018 298.967 224.072 298.799 224.072 298.614C224.072 298.392 224.007 298.213 223.877 298.078C223.752 297.942 223.587 297.837 223.381 297.761C223.175 297.679 222.947 297.609 222.698 297.549C222.448 297.49 222.199 297.427 221.95 297.362C221.7 297.292 221.47 297.2 221.258 297.086C221.052 296.972 220.884 296.823 220.754 296.639C220.63 296.449 220.567 296.202 220.567 295.899C220.567 295.617 220.64 295.359 220.787 295.126C220.939 294.888 221.169 294.698 221.478 294.557C221.787 294.411 222.183 294.337 222.665 294.337C222.985 294.337 223.302 294.384 223.617 294.476C223.931 294.562 224.202 294.684 224.43 294.842L224.226 295.321C223.982 295.159 223.722 295.039 223.446 294.964C223.175 294.888 222.912 294.85 222.657 294.85C222.316 294.85 222.034 294.896 221.811 294.988C221.589 295.08 221.424 295.205 221.315 295.362C221.212 295.514 221.161 295.687 221.161 295.882C221.161 296.105 221.223 296.284 221.348 296.419C221.478 296.555 221.646 296.66 221.852 296.736C222.063 296.812 222.294 296.88 222.543 296.939C222.793 296.999 223.039 297.064 223.283 297.135C223.532 297.205 223.76 297.297 223.966 297.411C224.178 297.519 224.346 297.666 224.47 297.85C224.6 298.034 224.665 298.276 224.665 298.574C224.665 298.85 224.59 299.108 224.438 299.346C224.286 299.579 224.053 299.769 223.738 299.915C223.429 300.056 223.031 300.127 222.543 300.127ZM225.976 300.078V294.386H226.578V300.078H225.976ZM228.43 300.078V294.386H228.926L232.854 299.33H232.593V294.386H233.187V300.078H232.691L228.772 295.134H229.032V300.078H228.43ZM237.541 300.127C237.107 300.127 236.706 300.056 236.338 299.915C235.974 299.769 235.657 299.566 235.386 299.306C235.121 299.045 234.912 298.739 234.76 298.387C234.614 298.034 234.541 297.65 234.541 297.232C234.541 296.815 234.614 296.43 234.76 296.078C234.912 295.725 235.123 295.419 235.394 295.159C235.665 294.898 235.983 294.698 236.346 294.557C236.714 294.411 237.116 294.337 237.549 294.337C237.983 294.337 238.379 294.405 238.736 294.541C239.1 294.676 239.409 294.882 239.663 295.159L239.289 295.541C239.051 295.302 238.788 295.132 238.501 295.029C238.213 294.926 237.904 294.874 237.574 294.874C237.221 294.874 236.896 294.934 236.598 295.053C236.305 295.167 236.048 295.332 235.825 295.549C235.609 295.76 235.438 296.01 235.313 296.297C235.194 296.579 235.134 296.891 235.134 297.232C235.134 297.568 235.194 297.88 235.313 298.167C235.438 298.455 235.609 298.707 235.825 298.923C236.048 299.135 236.305 299.3 236.598 299.419C236.896 299.533 237.219 299.59 237.565 299.59C237.891 299.59 238.197 299.541 238.484 299.444C238.777 299.346 239.045 299.181 239.289 298.948L239.631 299.403C239.36 299.642 239.043 299.823 238.679 299.948C238.316 300.067 237.937 300.127 237.541 300.127ZM239.054 299.33V297.232H239.631V299.403L239.054 299.33ZM245.755 300.127C245.029 300.127 244.457 299.918 244.039 299.501C243.622 299.083 243.413 298.465 243.413 297.647V294.386H244.015V297.622C244.015 298.295 244.167 298.791 244.47 299.111C244.774 299.43 245.202 299.59 245.755 299.59C246.313 299.59 246.744 299.43 247.048 299.111C247.351 298.791 247.503 298.295 247.503 297.622V294.386H248.089V297.647C248.089 298.465 247.88 299.083 247.463 299.501C247.051 299.918 246.481 300.127 245.755 300.127ZM249.902 300.078V294.386H252.032C252.515 294.386 252.929 294.465 253.276 294.622C253.623 294.774 253.889 294.996 254.073 295.289C254.263 295.576 254.358 295.926 254.358 296.338C254.358 296.739 254.263 297.086 254.073 297.379C253.889 297.666 253.623 297.888 253.276 298.045C252.929 298.203 252.515 298.281 252.032 298.281H250.235L250.504 297.997V300.078H249.902ZM250.504 298.045L250.235 297.753H252.016C252.585 297.753 253.016 297.631 253.309 297.387C253.607 297.137 253.756 296.788 253.756 296.338C253.756 295.882 253.607 295.53 253.309 295.281C253.016 295.031 252.585 294.907 252.016 294.907H250.235L250.504 294.622V298.045Z" fill="#E8E8E3"/>
<path d="M214.533 134.152L187.951 134.031L187.929 138.909L214.511 139.03L214.533 134.152Z" fill="#4CAF4F"/>
<path opacity="0.1" d="M214.533 134.152L187.951 134.031L187.929 138.909L214.511 139.03L214.533 134.152Z" fill="black"/>
<path d="M292.456 164.105C292.665 164.084 292.87 164.036 293.066 163.961C293.352 163.849 293.6 163.659 293.783 163.412C293.966 163.165 294.076 162.872 294.099 162.565C294.099 160.922 294.099 158.524 294.099 155.444C294.099 153.905 294.099 152.179 294.099 150.277C294.099 149.812 294.099 149.326 294.099 148.84C294.167 148.369 294.064 147.889 293.81 147.486C293.668 147.293 293.482 147.136 293.269 147.026C293.056 146.917 292.82 146.859 292.58 146.856H290.968H276.033L189.589 146.535C189.368 146.532 189.149 146.581 188.951 146.68C188.753 146.779 188.582 146.925 188.452 147.104C188.203 147.508 188.107 147.989 188.183 148.458C188.183 149.491 188.183 150.525 188.183 151.558C188.183 153.625 188.183 155.693 188.183 157.76C188.183 158.793 188.183 159.827 188.183 160.86C188.141 161.341 188.141 161.826 188.183 162.307C188.238 162.513 188.339 162.705 188.478 162.866C188.618 163.027 188.793 163.154 188.99 163.237C189.193 163.318 189.411 163.357 189.63 163.351H194.891L217.846 163.475L256.706 163.713L282.906 163.919L290.027 164.002H291.877C292.301 164.002 292.508 164.002 292.508 164.002H291.877H290.027H282.906H256.706L217.846 163.878L194.891 163.785H189.63C189.341 163.797 189.052 163.747 188.783 163.64C188.511 163.524 188.269 163.347 188.075 163.124C187.882 162.9 187.742 162.635 187.667 162.348C187.607 162.077 187.586 161.799 187.605 161.522V160.757C187.605 159.723 187.605 158.69 187.605 157.656C187.605 155.589 187.605 153.522 187.605 151.455C187.605 150.422 187.605 149.388 187.605 148.354C187.585 148.079 187.585 147.803 187.605 147.528C187.643 147.224 187.761 146.935 187.946 146.69C188.124 146.441 188.36 146.238 188.634 146.1C188.907 145.961 189.21 145.891 189.517 145.895L275.961 146.37L290.895 146.473H292.508C292.792 146.474 293.071 146.542 293.323 146.674C293.575 146.805 293.792 146.995 293.955 147.228C294.246 147.677 294.363 148.217 294.285 148.747C294.285 149.233 294.285 149.719 294.285 150.184C294.285 152.065 294.285 153.791 294.285 155.351C294.285 158.452 294.213 160.829 294.192 162.483C294.167 162.801 294.051 163.105 293.859 163.359C293.667 163.614 293.406 163.808 293.107 163.919C292.911 164.041 292.686 164.105 292.456 164.105Z" fill="#E0E0E0"/>
<path d="M244.553 151.723H195.936V156.281H244.553V151.723Z" fill="#4CAF4F"/>
<path opacity="0.2" d="M244.553 151.723H195.936V156.281H244.553V151.723Z" fill="white"/>
<path d="M214.352 178.656L187.77 178.535L187.747 183.413L214.329 183.534L214.352 178.656Z" fill="#4CAF4F"/>
<path opacity="0.1" d="M214.352 178.656L187.77 178.535L187.747 183.413L214.329 183.534L214.352 178.656Z" fill="black"/>
<path d="M291.785 208.609C291.994 208.583 292.201 208.545 292.405 208.495C292.694 208.403 292.959 208.25 293.184 208.047C293.409 207.844 293.587 207.595 293.707 207.317C293.87 206.9 293.934 206.45 293.893 206.004C293.893 205.508 293.893 204.971 293.893 204.371C293.893 203.172 293.893 201.808 293.893 200.237V193.674C293.943 193.199 293.838 192.721 293.594 192.31C293.339 191.889 292.938 191.576 292.467 191.432C291.952 191.34 291.428 191.312 290.907 191.349H276.034L189.89 191.028C189.426 191.03 188.979 191.199 188.631 191.505C188.283 191.811 188.058 192.233 187.998 192.692C187.998 193.674 187.998 194.76 187.998 195.793C187.998 197.86 187.998 199.927 187.998 201.994C187.998 203.028 187.998 204.061 187.998 205.095C187.96 205.578 187.981 206.064 188.06 206.542C188.189 206.961 188.455 207.325 188.815 207.575C189.197 207.818 189.645 207.933 190.096 207.906H191.533H194.52L217.392 208.02L256.118 208.257L282.225 208.464L289.325 208.547H282.225H256.118L217.371 208.505L194.499 208.423H190.003C189.444 208.456 188.89 208.307 188.422 207.999C187.952 207.673 187.609 207.195 187.451 206.645C187.358 206.12 187.33 205.585 187.368 205.053C187.368 204.02 187.368 202.986 187.368 201.953C187.368 199.886 187.368 197.819 187.368 195.752C187.368 194.718 187.368 193.685 187.368 192.651C187.443 192.06 187.731 191.517 188.179 191.123C188.626 190.729 189.201 190.512 189.797 190.512L275.941 190.987L290.814 191.101C291.367 191.067 291.923 191.105 292.467 191.215C293.004 191.39 293.457 191.758 293.738 192.248C294.006 192.703 294.122 193.232 294.069 193.757C294.069 194.243 294.069 194.718 294.069 195.194C294.069 197.064 294.069 198.78 294.069 200.361C294.069 201.943 294.069 203.276 294.069 204.495C294.069 205.084 294.069 205.632 294.069 206.139C294.107 206.601 294.032 207.065 293.852 207.493C293.718 207.778 293.524 208.031 293.283 208.234C293.042 208.437 292.76 208.586 292.457 208.671C292.231 208.689 292.004 208.668 291.785 208.609Z" fill="#E0E0E0"/>
<path d="M214.15 225.089L187.568 224.969L187.546 229.847L214.128 229.968L214.15 225.089Z" fill="#4CAF4F"/>
<path opacity="0.1" d="M214.15 225.089L187.568 224.969L187.546 229.847L214.128 229.968L214.15 225.089Z" fill="black"/>
<path d="M291.577 255.024C291.786 255 291.993 254.962 292.197 254.911C292.484 254.819 292.749 254.668 292.974 254.467C293.198 254.265 293.377 254.019 293.499 253.743C293.661 253.325 293.725 252.876 293.685 252.43C293.685 251.924 293.685 251.397 293.685 250.787C293.685 249.598 293.685 248.224 293.685 246.653V240.09C293.735 239.615 293.629 239.136 293.385 238.726C293.124 238.312 292.725 238.005 292.259 237.857C291.745 237.762 291.22 237.731 290.698 237.764H275.826L189.681 237.444C189.218 237.445 188.771 237.615 188.423 237.921C188.075 238.227 187.85 238.649 187.79 239.108C187.79 240.142 187.79 241.175 187.79 242.209C187.79 244.276 187.79 246.343 187.79 248.41C187.79 249.443 187.79 250.477 187.79 251.51C187.752 251.99 187.772 252.472 187.852 252.947C187.976 253.369 188.243 253.734 188.607 253.981C188.986 254.228 189.436 254.344 189.888 254.311H194.384L217.256 254.435L255.982 254.673L282.089 254.88L289.189 254.962H282.089H255.982L217.256 254.849L194.384 254.756H189.888C189.329 254.793 188.772 254.644 188.307 254.332C187.837 254.006 187.493 253.528 187.335 252.978C187.243 252.453 187.215 251.918 187.253 251.386C187.253 250.353 187.253 249.319 187.253 248.286C187.253 246.219 187.253 244.152 187.253 242.085C187.253 241.051 187.253 240.018 187.253 238.932C187.326 238.342 187.612 237.799 188.057 237.405C188.503 237.011 189.076 236.794 189.671 236.793L275.816 237.268L290.688 237.382C291.242 237.348 291.798 237.386 292.342 237.496C292.879 237.671 293.331 238.039 293.613 238.529C293.88 238.985 293.996 239.513 293.944 240.038C293.944 240.524 293.944 241.01 293.944 241.475C293.944 243.346 293.944 245.061 293.944 246.642C293.944 248.224 293.944 249.557 293.944 250.777C293.944 251.366 293.944 251.913 293.944 252.42C293.983 252.882 293.909 253.347 293.727 253.774C293.592 254.059 293.398 254.312 293.158 254.515C292.917 254.719 292.635 254.868 292.331 254.952C292.089 255.035 291.83 255.06 291.577 255.024Z" fill="#E0E0E0"/>
<path d="M243.515 197.514L194.898 197.293L194.878 201.851L243.494 202.071L243.515 197.514Z" fill="#4CAF4F"/>
<path opacity="0.2" d="M243.515 197.514L194.898 197.293L194.878 201.851L243.494 202.071L243.515 197.514Z" fill="white"/>
<path d="M199.293 246.59C199.263 247.005 199.111 247.403 198.857 247.733C198.602 248.063 198.257 248.312 197.862 248.447C197.468 248.583 197.043 248.6 196.639 248.496C196.235 248.392 195.871 248.171 195.591 247.862C195.312 247.553 195.129 247.169 195.066 246.757C195.002 246.345 195.061 245.923 195.236 245.545C195.41 245.166 195.691 244.847 196.045 244.626C196.399 244.406 196.81 244.294 197.226 244.305C197.802 244.338 198.342 244.595 198.729 245.023C199.116 245.451 199.319 246.013 199.293 246.59Z" fill="#4CAF4F"/>
<path d="M205.878 246.621C205.898 246.912 205.858 247.205 205.761 247.48C205.663 247.756 205.51 248.008 205.311 248.221C205.112 248.435 204.871 248.605 204.603 248.722C204.335 248.838 204.046 248.898 203.754 248.898C203.462 248.898 203.173 248.838 202.905 248.722C202.637 248.605 202.396 248.435 202.197 248.221C201.998 248.008 201.845 247.756 201.747 247.48C201.65 247.205 201.61 246.912 201.63 246.621C201.61 246.33 201.65 246.037 201.747 245.762C201.845 245.487 201.998 245.234 202.197 245.021C202.396 244.807 202.637 244.637 202.905 244.52C203.173 244.404 203.462 244.344 203.754 244.344C204.046 244.344 204.335 244.404 204.603 244.52C204.871 244.637 205.112 244.807 205.311 245.021C205.51 245.234 205.663 245.487 205.761 245.762C205.858 246.037 205.898 246.33 205.878 246.621Z" fill="#4CAF4F"/>
<path d="M212.471 246.652C212.441 247.068 212.289 247.465 212.034 247.796C211.78 248.126 211.434 248.374 211.04 248.51C210.646 248.645 210.221 248.662 209.817 248.558C209.413 248.454 209.049 248.234 208.769 247.925C208.489 247.616 208.307 247.231 208.243 246.819C208.18 246.407 208.239 245.986 208.413 245.607C208.587 245.228 208.869 244.909 209.223 244.689C209.577 244.468 209.987 244.357 210.404 244.368C210.979 244.403 211.517 244.661 211.904 245.088C212.29 245.515 212.494 246.077 212.471 246.652Z" fill="#4CAF4F"/>
<path d="M219.055 246.683C219.025 247.099 218.873 247.497 218.618 247.827C218.364 248.157 218.018 248.405 217.624 248.541C217.23 248.676 216.805 248.693 216.401 248.589C215.997 248.485 215.633 248.265 215.353 247.956C215.073 247.647 214.891 247.263 214.827 246.851C214.764 246.439 214.823 246.017 214.997 245.638C215.171 245.26 215.453 244.94 215.807 244.72C216.161 244.5 216.571 244.388 216.988 244.399C217.563 244.434 218.101 244.692 218.488 245.119C218.874 245.546 219.078 246.108 219.055 246.683Z" fill="#4CAF4F"/>
<path d="M225.638 246.704C225.609 247.121 225.459 247.519 225.206 247.851C224.953 248.183 224.607 248.433 224.213 248.57C223.819 248.707 223.393 248.725 222.989 248.622C222.584 248.519 222.219 248.3 221.938 247.991C221.658 247.682 221.474 247.298 221.41 246.885C221.346 246.473 221.405 246.051 221.578 245.671C221.752 245.292 222.034 244.972 222.388 244.752C222.742 244.531 223.154 244.419 223.571 244.43C224.144 244.465 224.681 244.722 225.067 245.147C225.453 245.572 225.658 246.131 225.638 246.704Z" fill="#4CAF4F"/>
<path d="M232.232 246.735C232.204 247.149 232.055 247.546 231.804 247.877C231.553 248.207 231.211 248.458 230.82 248.596C230.428 248.735 230.005 248.757 229.602 248.658C229.199 248.56 228.833 248.345 228.55 248.041C228.267 247.738 228.079 247.358 228.009 246.949C227.939 246.539 227.99 246.119 228.156 245.738C228.322 245.358 228.596 245.034 228.944 244.807C229.291 244.58 229.698 244.46 230.113 244.461C230.695 244.482 231.245 244.734 231.642 245.16C232.039 245.586 232.251 246.153 232.232 246.735Z" fill="#4CAF4F"/>
<path d="M238.815 246.766C238.836 247.057 238.796 247.349 238.698 247.625C238.601 247.9 238.448 248.152 238.249 248.366C238.049 248.58 237.808 248.75 237.54 248.866C237.273 248.983 236.984 249.043 236.692 249.043C236.399 249.043 236.11 248.983 235.843 248.866C235.575 248.75 235.334 248.58 235.135 248.366C234.935 248.152 234.782 247.9 234.685 247.625C234.587 247.349 234.547 247.057 234.568 246.766C234.547 246.474 234.587 246.182 234.685 245.906C234.782 245.631 234.935 245.379 235.135 245.165C235.334 244.952 235.575 244.781 235.843 244.665C236.11 244.548 236.399 244.488 236.692 244.488C236.984 244.488 237.273 244.548 237.54 244.665C237.808 244.781 238.049 244.952 238.249 245.165C238.448 245.379 238.601 245.631 238.698 245.906C238.796 246.182 238.836 246.474 238.815 246.766Z" fill="#4CAF4F"/>
<path d="M245.4 246.797C245.371 247.211 245.223 247.608 244.972 247.939C244.721 248.27 244.379 248.52 243.988 248.659C243.596 248.798 243.173 248.819 242.77 248.721C242.367 248.622 242.001 248.408 241.718 248.104C241.435 247.8 241.247 247.42 241.177 247.011C241.107 246.602 241.158 246.181 241.324 245.801C241.49 245.42 241.764 245.097 242.112 244.87C242.459 244.643 242.866 244.522 243.281 244.523C243.863 244.545 244.413 244.796 244.81 245.223C245.207 245.649 245.419 246.215 245.4 246.797Z" fill="#4CAF4F"/>
<path d="M251.984 246.829C251.955 247.246 251.805 247.644 251.552 247.976C251.298 248.308 250.953 248.558 250.559 248.695C250.165 248.832 249.739 248.85 249.335 248.747C248.93 248.644 248.565 248.425 248.284 248.116C248.003 247.807 247.82 247.423 247.756 247.01C247.692 246.598 247.75 246.176 247.924 245.796C248.098 245.417 248.38 245.097 248.734 244.877C249.088 244.656 249.499 244.544 249.917 244.555C250.49 244.59 251.026 244.847 251.412 245.272C251.799 245.697 252.004 246.256 251.984 246.829Z" fill="#4CAF4F"/>
<g opacity="0.2">
<path d="M199.293 246.59C199.263 247.005 199.111 247.403 198.857 247.733C198.602 248.063 198.257 248.312 197.862 248.447C197.468 248.583 197.043 248.6 196.639 248.496C196.235 248.392 195.871 248.171 195.591 247.862C195.312 247.553 195.129 247.169 195.066 246.757C195.002 246.345 195.061 245.923 195.236 245.545C195.41 245.166 195.691 244.847 196.045 244.626C196.399 244.406 196.81 244.294 197.226 244.305C197.802 244.338 198.342 244.595 198.729 245.023C199.116 245.451 199.319 246.013 199.293 246.59Z" fill="white"/>
<path d="M205.878 246.621C205.898 246.912 205.858 247.205 205.761 247.48C205.663 247.756 205.51 248.008 205.311 248.221C205.112 248.435 204.871 248.605 204.603 248.722C204.335 248.838 204.046 248.898 203.754 248.898C203.462 248.898 203.173 248.838 202.905 248.722C202.637 248.605 202.396 248.435 202.197 248.221C201.998 248.008 201.845 247.756 201.747 247.48C201.65 247.205 201.61 246.912 201.63 246.621C201.61 246.33 201.65 246.037 201.747 245.762C201.845 245.487 201.998 245.234 202.197 245.021C202.396 244.807 202.637 244.637 202.905 244.52C203.173 244.404 203.462 244.344 203.754 244.344C204.046 244.344 204.335 244.404 204.603 244.52C204.871 244.637 205.112 244.807 205.311 245.021C205.51 245.234 205.663 245.487 205.761 245.762C205.858 246.037 205.898 246.33 205.878 246.621Z" fill="white"/>
<path d="M212.471 246.652C212.441 247.068 212.289 247.465 212.034 247.796C211.78 248.126 211.434 248.374 211.04 248.51C210.646 248.645 210.221 248.662 209.817 248.558C209.413 248.454 209.049 248.234 208.769 247.925C208.489 247.616 208.307 247.231 208.243 246.819C208.18 246.407 208.239 245.986 208.413 245.607C208.587 245.228 208.869 244.909 209.223 244.689C209.577 244.468 209.987 244.357 210.404 244.368C210.979 244.403 211.517 244.661 211.904 245.088C212.29 245.515 212.494 246.077 212.471 246.652Z" fill="white"/>
<path d="M219.055 246.683C219.025 247.099 218.873 247.497 218.618 247.827C218.364 248.157 218.018 248.405 217.624 248.541C217.23 248.676 216.805 248.693 216.401 248.589C215.997 248.485 215.633 248.265 215.353 247.956C215.073 247.647 214.891 247.263 214.827 246.851C214.764 246.439 214.823 246.017 214.997 245.638C215.171 245.26 215.453 244.94 215.807 244.72C216.161 244.5 216.571 244.388 216.988 244.399C217.563 244.434 218.101 244.692 218.488 245.119C218.874 245.546 219.078 246.108 219.055 246.683Z" fill="white"/>
<path d="M225.638 246.704C225.609 247.121 225.459 247.519 225.206 247.851C224.953 248.183 224.607 248.433 224.213 248.57C223.819 248.707 223.393 248.725 222.989 248.622C222.584 248.519 222.219 248.3 221.938 247.991C221.658 247.682 221.474 247.298 221.41 246.885C221.346 246.473 221.405 246.051 221.578 245.671C221.752 245.292 222.034 244.972 222.388 244.752C222.742 244.531 223.154 244.419 223.571 244.43C224.144 244.465 224.681 244.722 225.067 245.147C225.453 245.572 225.658 246.131 225.638 246.704Z" fill="white"/>
<path d="M232.232 246.735C232.204 247.149 232.055 247.546 231.804 247.877C231.553 248.207 231.211 248.458 230.82 248.596C230.428 248.735 230.005 248.757 229.602 248.658C229.199 248.56 228.833 248.345 228.55 248.041C228.267 247.738 228.079 247.358 228.009 246.949C227.939 246.539 227.99 246.119 228.156 245.738C228.322 245.358 228.596 245.034 228.944 244.807C229.291 244.58 229.698 244.46 230.113 244.461C230.695 244.482 231.245 244.734 231.642 245.16C232.039 245.586 232.251 246.153 232.232 246.735Z" fill="white"/>
<path d="M238.815 246.766C238.836 247.057 238.796 247.349 238.698 247.625C238.601 247.9 238.448 248.152 238.249 248.366C238.049 248.58 237.808 248.75 237.54 248.866C237.273 248.983 236.984 249.043 236.692 249.043C236.399 249.043 236.11 248.983 235.843 248.866C235.575 248.75 235.334 248.58 235.135 248.366C234.935 248.152 234.782 247.9 234.685 247.625C234.587 247.349 234.547 247.057 234.568 246.766C234.547 246.474 234.587 246.182 234.685 245.906C234.782 245.631 234.935 245.379 235.135 245.165C235.334 244.952 235.575 244.781 235.843 244.665C236.11 244.548 236.399 244.488 236.692 244.488C236.984 244.488 237.273 244.548 237.54 244.665C237.808 244.781 238.049 244.952 238.249 245.165C238.448 245.379 238.601 245.631 238.698 245.906C238.796 246.182 238.836 246.474 238.815 246.766Z" fill="white"/>
<path d="M245.4 246.797C245.371 247.211 245.223 247.608 244.972 247.939C244.721 248.27 244.379 248.52 243.988 248.659C243.596 248.798 243.173 248.819 242.77 248.721C242.367 248.622 242.001 248.408 241.718 248.104C241.435 247.8 241.247 247.42 241.177 247.011C241.107 246.602 241.158 246.181 241.324 245.801C241.49 245.42 241.764 245.097 242.112 244.87C242.459 244.643 242.866 244.522 243.281 244.523C243.863 244.545 244.413 244.796 244.81 245.223C245.207 245.649 245.419 246.215 245.4 246.797Z" fill="white"/>
<path d="M251.982 246.829C251.953 247.246 251.803 247.644 251.55 247.976C251.296 248.308 250.951 248.558 250.557 248.695C250.163 248.832 249.737 248.85 249.333 248.747C248.928 248.644 248.563 248.425 248.282 248.116C248.001 247.807 247.818 247.423 247.754 247.01C247.69 246.598 247.748 246.176 247.922 245.796C248.096 245.417 248.378 245.097 248.732 244.877C249.086 244.656 249.497 244.544 249.915 244.555C250.488 244.59 251.024 244.847 251.41 245.272C251.797 245.697 252.002 246.256 251.982 246.829Z" fill="white"/>
</g>
<path d="M242.631 97.6265C243.349 97.3104 243.958 96.7901 244.382 96.1303C244.807 95.4706 245.028 94.7006 245.018 93.9162C245.045 93.4062 244.968 92.8962 244.791 92.4171C244.614 91.938 244.342 91.4999 243.99 91.1295C243.639 90.7591 243.216 90.4641 242.746 90.2626C242.277 90.061 241.772 89.957 241.261 89.957C240.751 89.957 240.245 90.061 239.776 90.2626C239.307 90.4641 238.884 90.7591 238.532 91.1295C238.181 91.4999 237.908 91.938 237.732 92.4171C237.555 92.8962 237.478 93.4062 237.504 93.9162C237.489 94.7085 237.708 95.4877 238.135 96.1554C238.562 96.8231 239.177 97.3494 239.902 97.6679C234.114 98.536 234.373 104.82 234.373 104.82L248.057 104.882C248.057 104.882 248.377 98.4844 242.631 97.6265Z" fill="#4CAF4F"/>
<path opacity="0.1" d="M242.631 97.6265C243.349 97.3104 243.958 96.7901 244.382 96.1303C244.807 95.4706 245.028 94.7006 245.018 93.9162C245.045 93.4062 244.968 92.8962 244.791 92.4171C244.614 91.938 244.342 91.4999 243.99 91.1295C243.639 90.7591 243.216 90.4641 242.746 90.2626C242.277 90.061 241.772 89.957 241.261 89.957C240.751 89.957 240.245 90.061 239.776 90.2626C239.307 90.4641 238.884 90.7591 238.532 91.1295C238.181 91.4999 237.908 91.938 237.732 92.4171C237.555 92.8962 237.478 93.4062 237.504 93.9162C237.489 94.7085 237.708 95.4877 238.135 96.1554C238.562 96.8231 239.177 97.3494 239.902 97.6679C234.114 98.536 234.373 104.82 234.373 104.82L248.057 104.882C248.057 104.882 248.377 98.4844 242.631 97.6265Z" fill="black"/>
<path d="M264.865 108.936L216.094 108.715L216.067 114.544L264.839 114.765L264.865 108.936Z" fill="#4CAF4F"/>
<path opacity="0.2" d="M264.865 108.936L216.094 108.715L216.067 114.544L264.839 114.765L264.865 108.936Z" fill="white"/>
<path d="M85.5661 139.145H85.0803L83.6747 139.248C82.9141 139.294 82.1577 139.394 81.4113 139.548C80.9279 139.616 80.4484 139.709 79.9747 139.827L78.3728 140.271C75.6461 141.108 73.0736 142.382 70.7557 144.044C67.6932 146.266 65.136 149.112 63.2523 152.394C62.1451 154.286 61.264 156.302 60.6271 158.399C59.9579 160.679 59.5726 163.032 59.4799 165.407C59.4183 166.654 59.439 167.903 59.5419 169.148C59.5419 169.778 59.7176 170.409 59.8003 171.05C59.8698 171.696 59.9908 172.335 60.162 172.962C61.0914 177.109 62.9771 180.982 65.6688 184.271C68.3604 187.56 71.7835 190.175 75.6649 191.906C78.4741 193.118 81.4852 193.795 84.5429 193.901C87.7011 194.075 90.8624 193.621 93.8446 192.568L94.7542 192.227H94.8782L94.9815 192.289L108.014 198.903L107.632 199.234C106.237 194.914 104.893 190.728 103.591 186.707V186.552L103.704 186.439C106.866 183.254 109.213 179.355 110.546 175.07C111.754 171.153 112.107 167.022 111.58 162.957C111.112 159.344 109.95 155.856 108.159 152.684C106.615 149.959 104.624 147.513 102.268 145.449C100.324 143.816 98.1731 142.446 95.8704 141.377C94.128 140.626 92.3133 140.054 90.4547 139.672L88.3876 139.331L86.889 139.217L85.9795 139.155H85.6695C85.7725 139.144 85.8765 139.144 85.9795 139.155H86.8993L88.398 139.217L90.465 139.517C92.3468 139.871 94.1862 140.422 95.953 141.16C98.2954 142.217 100.485 143.583 102.464 145.222C104.863 147.276 106.897 149.723 108.479 152.456C110.321 155.663 111.518 159.198 112.004 162.864C112.574 166.992 112.246 171.194 111.043 175.184C109.7 179.557 107.317 183.54 104.097 186.79L104.159 186.521C105.461 190.542 106.815 194.728 108.221 199.037L108.417 199.668L107.828 199.368L94.7955 192.764H95.0229L94.0927 193.105C91.053 194.175 87.8332 194.638 84.6153 194.469C81.4916 194.35 78.4176 193.649 75.5512 192.402C70.0836 190.061 65.5345 185.991 62.6011 180.816C61.2513 178.427 60.2655 175.849 59.6763 173.168C59.5149 172.525 59.3941 171.873 59.3145 171.215C59.2318 170.564 59.0975 169.923 59.0665 169.282C58.7868 165.605 59.1754 161.907 60.2137 158.368C60.8664 156.242 61.7721 154.202 62.9112 152.291C64.8399 148.979 67.4503 146.115 70.5696 143.889C72.9257 142.222 75.5415 140.958 78.3107 140.147L79.9334 139.734C80.411 139.623 80.8939 139.537 81.3803 139.475C82.1344 139.336 82.8979 139.253 83.6644 139.227L85.0803 139.176C85.2413 139.154 85.4037 139.144 85.5661 139.145Z" fill="#4CAF4F"/>
<path d="M91.4579 163.248H89.5459L85.4118 157.44V153.626C85.4118 153.626 82.4559 153.44 82.8073 158.432C83.1587 163.424 82.8073 162.152 82.8073 162.152C82.8073 162.152 76.5338 162.152 76.017 162.721C75.5003 163.289 75.4692 169.346 75.3969 172.725C75.3573 173.54 75.5911 174.345 76.0611 175.011C76.5311 175.678 77.2104 176.168 77.991 176.405C78.2099 176.465 78.4358 176.497 78.6628 176.498C80.2338 176.498 88.223 175.227 88.223 175.227H91.5199L91.4579 163.248Z" fill="#4CAF4F"/>
<path d="M96.9246 162.223L95.7464 175.286H92.4805V162.491L96.9246 162.223Z" fill="#4CAF4F"/>
<path d="M135.877 428.181V419.344L120.033 419.23L119.898 432.594L120.88 432.666C125.252 432.945 143.122 433.359 146.057 432.449C149.323 431.436 135.877 428.181 135.877 428.181Z" fill="#4CAF4F"/>
<path d="M146.43 431.624C146.43 431.769 140.498 431.893 133.191 431.893C125.884 431.893 119.951 431.769 119.951 431.624C119.951 431.48 125.884 431.355 133.191 431.355C140.498 431.355 146.43 431.48 146.43 431.624Z" fill="#263238"/>
<path d="M136.155 429.991C136.021 429.919 136.155 429.453 136.476 428.957C136.796 428.461 137.23 428.255 137.333 428.358C137.437 428.461 137.22 428.854 136.91 429.278C136.6 429.702 136.29 430.063 136.155 429.991Z" fill="#263238"/>
<path d="M137.169 430.568C137.025 430.568 137.097 429.989 137.407 429.441C137.717 428.893 138.13 428.563 138.244 428.645C138.358 428.728 138.172 429.193 137.882 429.679C137.593 430.165 137.304 430.619 137.169 430.568Z" fill="#263238"/>
<path d="M124.725 431.582C124.663 431.582 124.425 431.396 124.084 431.003C123.668 430.498 123.204 430.034 122.699 429.618C122.203 429.221 121.611 428.961 120.983 428.864C120.498 428.802 120.187 428.864 120.156 428.802C120.125 428.74 120.425 428.523 120.994 428.481C121.744 428.465 122.476 428.714 123.061 429.184C123.609 429.631 124.071 430.174 124.425 430.786C124.663 431.241 124.787 431.54 124.725 431.582Z" fill="#263238"/>
<path d="M136.208 428.326C136.281 428.45 136.012 428.761 135.557 428.926C135.102 429.091 134.699 429.029 134.679 428.926C134.658 428.823 134.978 428.605 135.371 428.461C135.764 428.316 136.126 428.202 136.208 428.326Z" fill="#263238"/>
<path d="M135.96 427.466C135.96 427.621 135.547 427.745 135.01 427.755C134.472 427.766 134.048 427.642 134.059 427.497C134.069 427.352 134.493 427.218 135.01 427.208C135.526 427.197 135.94 427.321 135.96 427.466Z" fill="#263238"/>
<path d="M174.892 428.181V419.344L159.048 419.23L158.914 432.46L159.896 432.532C164.268 432.811 182.148 433.359 185.073 432.449C188.339 431.436 174.892 428.181 174.892 428.181Z" fill="#4CAF4F"/>
<path d="M185.445 431.644C185.445 431.788 179.523 431.912 172.206 431.912C164.888 431.912 158.977 431.788 158.977 431.644C158.977 431.499 164.899 431.375 172.206 431.375C179.513 431.375 185.445 431.499 185.445 431.644Z" fill="#263238"/>
<path d="M175.172 429.991C175.048 429.919 175.172 429.453 175.493 428.957C175.813 428.461 176.247 428.255 176.351 428.358C176.454 428.461 176.237 428.854 175.927 429.278C175.617 429.702 175.307 430.063 175.172 429.991Z" fill="#263238"/>
<path d="M176.184 430.568C176.049 430.568 176.111 429.989 176.432 429.441C176.752 428.893 177.155 428.563 177.269 428.645C177.383 428.728 177.186 429.193 176.897 429.679C176.608 430.165 176.329 430.619 176.184 430.568Z" fill="#263238"/>
<path d="M163.74 431.582C163.678 431.582 163.451 431.396 163.1 431.003C162.683 430.498 162.219 430.034 161.715 429.618C161.218 429.221 160.627 428.961 159.999 428.864C159.524 428.802 159.203 428.864 159.172 428.802C159.141 428.74 159.441 428.523 160.009 428.481C160.759 428.465 161.491 428.714 162.076 429.184C162.627 429.628 163.09 430.171 163.441 430.786C163.678 431.241 163.802 431.54 163.74 431.582Z" fill="#263238"/>
<path d="M175.224 428.326C175.296 428.45 175.028 428.761 174.573 428.926C174.118 429.091 173.715 429.029 173.694 428.926C173.674 428.823 173.994 428.605 174.387 428.461C174.78 428.316 175.141 428.202 175.224 428.326Z" fill="#263238"/>
<path d="M174.997 427.466C174.997 427.621 174.584 427.745 174.046 427.755C173.509 427.766 173.095 427.642 173.106 427.497C173.116 427.352 173.529 427.218 174.046 427.208C174.563 427.197 174.997 427.321 174.997 427.466Z" fill="#263238"/>
<path d="M233.266 165.768C232.853 165.344 231.83 165.551 231.83 165.551C231.932 164.956 231.932 164.348 231.83 163.752C231.644 163.174 230.341 163.287 230.341 163.287C230.281 162.8 230.281 162.307 230.341 161.82C230.352 161.712 230.329 161.603 230.275 161.509C230.221 161.414 230.14 161.339 230.042 161.293C229.426 161.041 228.764 160.922 228.099 160.941C227.303 160.373 230.527 155.856 231.726 154.409C232.925 152.962 232.708 151.836 231.644 151.836C230.91 151.836 227.148 156.177 225.99 157.634C224.833 159.091 221.763 163.143 221.66 159.908C221.556 156.673 220.254 154.234 219.438 153.82C218.621 153.407 217.753 154.378 218.197 155.278C218.588 156.299 218.831 157.371 218.921 158.461C219.033 159.329 218.995 160.21 218.807 161.065C218.465 162.656 217.998 164.218 217.412 165.737H217.329C217.329 165.737 194.778 187.369 193.145 188.909C191.688 190.293 162.377 187.265 156.496 186.645C154.498 186.353 152.48 186.214 150.46 186.232C147.907 186.345 147.453 186.707 144.91 186.738C138.489 186.809 132.083 187.373 125.749 188.423C122.88 188.91 120.201 190.177 118.003 192.083C115.805 193.989 114.172 196.463 113.284 199.233C107.362 217.734 93.9469 261.524 91.5801 286.122C89.7917 289.365 88.1771 292.701 86.7432 296.116C85.0793 300.643 85.4823 300.798 86.0404 300.901C87.5494 301.18 89.265 293.057 89.9058 295.021C90.5466 296.984 86.6502 304.705 88.2315 304.932C90.2986 305.222 91.9419 296.664 92.1382 295.982C92.3346 295.3 93.3578 295.517 93.1718 296.158C92.872 297.067 89.9678 306.71 91.9936 307.02C93.1098 307.185 93.2338 305.149 93.2338 305.149C93.2338 305.149 95.3008 295.92 96.2413 296.106C97.1819 296.292 96.1793 301.739 95.7039 303.558C95.2285 305.377 95.8899 306.296 96.8615 305.852C97.5229 305.542 99.1042 300.013 99.5383 298.214C99.9724 296.416 101.058 291.434 102.515 294.318C103.972 297.201 106.184 298.876 107.093 298.917C107.298 298.893 107.491 298.809 107.648 298.675C107.805 298.54 107.917 298.362 107.972 298.163C108.026 297.964 108.02 297.754 107.954 297.558C107.887 297.363 107.764 297.192 107.6 297.067C106.818 296.303 106.146 295.433 105.605 294.483C105.123 293.743 104.773 292.925 104.572 292.065C104.155 290.35 103.913 288.598 103.848 286.835L103.683 285.802C105.998 274.34 112.664 240.699 122.286 219.212L126.234 227.335L127.95 233.35L117.429 259.323L162.304 258.734L155.607 232.957L163.741 206.086C172.536 206.282 195.119 206.613 198.881 204.908C203.614 202.84 228.099 171.917 228.099 171.917C229.695 170.677 231.223 169.352 232.677 167.949C232.677 167.949 234.165 166.698 233.266 165.768Z" fill="#FFBE9D"/>
<path d="M115.454 240.129C116.756 235.685 123.443 213.712 123.443 213.712C123.443 213.712 126.73 231.623 125.861 233.783C125.063 235.632 124.119 237.416 123.04 239.116C115.454 250.661 116.446 256.438 116.446 256.438L162.283 255.043C162.386 248.635 158.593 233.732 157.808 231.354C157.022 228.977 159.637 221.195 159.637 221.195C159.637 221.195 164.805 215.934 164.619 213.226C164.52 210.794 164.22 208.374 163.719 205.992L191.625 207.025L190.746 188.112L150.666 184.102C149.271 188.039 136.651 186.107 136.651 186.107C123.029 186.561 122.182 189.063 116.518 193.465C110.855 197.868 101.48 235.654 101.48 235.654L115.454 240.129Z" fill="#4CAF4F"/>
<path d="M142.553 235.655C141.759 235.797 140.95 235.839 140.145 235.779C138.646 235.779 136.589 235.676 134.326 235.448C132.063 235.221 130.016 234.901 128.559 234.611C127.755 234.508 126.968 234.306 126.213 234.012C127.021 234.012 127.827 234.088 128.621 234.239C130.089 234.425 132.125 234.684 134.378 234.911C136.631 235.138 138.677 235.293 140.155 235.397C140.961 235.407 141.764 235.493 142.553 235.655Z" fill="#263238"/>
<path d="M145.696 231.758C144.901 232.147 144.061 232.435 143.195 232.616C139.071 233.699 134.817 234.204 130.555 234.114C129.673 234.143 128.791 234.06 127.93 233.866C128.8 233.756 129.678 233.711 130.555 233.732C132.177 233.68 134.41 233.566 136.87 233.277C139.329 232.988 141.521 232.574 143.071 232.244C143.932 232.014 144.81 231.851 145.696 231.758Z" fill="#263238"/>
<path d="M161.115 214.375C161.094 215.163 160.987 215.946 160.795 216.711C160.526 218.147 160.113 220.111 159.585 222.261C159.058 224.411 158.552 226.395 158.097 227.738C157.914 228.508 157.644 229.253 157.291 229.961C157.349 229.175 157.494 228.398 157.725 227.645C158.118 226.033 158.562 224.173 159.058 222.137C159.554 220.101 160.03 218.24 160.423 216.628C160.562 215.852 160.795 215.096 161.115 214.375Z" fill="#263238"/>
<path d="M115.941 237.497C113.55 237.128 111.19 236.579 108.882 235.854C106.523 235.303 104.208 234.577 101.957 233.684C104.347 234.059 106.706 234.608 109.016 235.327C111.375 235.876 113.69 236.602 115.941 237.497Z" fill="#263238"/>
<path d="M164.217 205.765C163.827 205.832 163.429 205.832 163.039 205.765C161.959 205.655 160.899 205.401 159.886 205.011C158.196 204.375 156.657 203.393 155.368 202.128C154.079 200.862 153.07 199.341 152.404 197.662C151.668 195.815 151.353 193.828 151.484 191.844C151.53 190.207 152.019 188.614 152.9 187.234C153.519 186.304 154.444 185.621 155.515 185.301C155.801 185.222 156.096 185.184 156.393 185.188C156.6 185.188 156.703 185.188 156.703 185.188C156.703 185.188 156.269 185.188 155.577 185.467C154.595 185.83 153.762 186.51 153.21 187.399C151.804 189.611 151.411 193.652 152.91 197.425C153.608 199.203 154.7 200.801 156.104 202.096C157.254 203.156 158.579 204.01 160.021 204.618C161.373 205.153 162.78 205.537 164.217 205.765Z" fill="#263238"/>
<path d="M188.309 206.653C188.05 203.484 187.967 200.303 188.061 197.124C187.98 193.948 188.076 190.771 188.35 187.605C188.609 190.771 188.691 193.949 188.598 197.124C188.685 200.304 188.588 203.485 188.309 206.653Z" fill="#263238"/>
<path d="M150.398 185.259C150.512 182.954 150.75 180.35 150.75 180.35C150.75 180.35 156.455 179.719 156.796 173.828C157.137 167.937 156.796 154.346 156.796 154.346L146.46 149.055L134.988 158.077L136.756 187.533L147.277 188.205C148.081 188.227 148.861 187.929 149.446 187.377C150.032 186.825 150.374 186.063 150.398 185.259Z" fill="#FFBE9D"/>
<path d="M151.421 169.169C151.421 169.169 151.421 169.283 151.328 169.417C151.251 169.515 151.152 169.592 151.038 169.642C150.925 169.693 150.801 169.715 150.677 169.707C150.016 169.707 149.375 168.942 149.147 168.053C149.039 167.622 149.039 167.171 149.147 166.74C149.169 166.552 149.236 166.373 149.345 166.217C149.453 166.062 149.598 165.936 149.768 165.852C149.907 165.794 150.063 165.794 150.202 165.852C150.305 165.903 150.388 165.986 150.439 166.089C150.512 166.265 150.439 166.379 150.439 166.368C150.439 166.358 150.439 166.265 150.336 166.162C150.282 166.088 150.203 166.036 150.113 166.017C150.023 165.998 149.93 166.013 149.85 166.058C149.723 166.135 149.618 166.242 149.544 166.371C149.47 166.499 149.43 166.644 149.427 166.792C149.34 167.177 149.34 167.576 149.427 167.96C149.633 168.766 150.191 169.417 150.687 169.479C150.784 169.492 150.883 169.486 150.977 169.459C151.072 169.432 151.159 169.386 151.235 169.324C151.359 169.242 151.401 169.159 151.421 169.169Z" fill="#EB996E"/>
<path d="M160.341 151.165C159.545 148.457 156.662 147.114 154.036 146.369C150.037 145.233 145.717 144.736 141.81 146.173C137.903 147.61 133.211 150.131 133.211 154.441C130.906 154.255 129.583 156.271 128.674 158.772C128.092 160.296 127.744 161.898 127.64 163.526C127.351 169.169 125.77 176.962 122.111 181.096C120.044 183.401 117.181 184.992 116.003 187.865C114.969 190.356 115.507 193.312 114.545 195.834C113.688 198.056 111.796 199.637 110.411 201.57C109 203.763 108.17 206.278 107.998 208.879C107.826 211.481 108.319 214.084 109.429 216.442C110.548 218.741 112.123 220.788 114.058 222.458C115.993 224.128 118.247 225.387 120.685 226.158C125.512 227.626 130.66 227.677 135.516 226.302C139.16 225.431 142.559 223.746 145.458 221.372C148.425 218.95 150.462 215.576 151.225 211.823C151.959 207.606 150.781 203.317 149.902 199.121C147.153 185.86 147.939 185.168 151.411 172.859C151.494 172.642 151.535 172.414 151.597 172.197C151.659 171.98 151.69 171.877 151.732 171.711C151.83 171.225 151.882 170.73 151.887 170.234C151.38 170.422 150.829 170.462 150.3 170.349C149.771 170.235 149.285 169.973 148.9 169.593C148.514 169.187 148.245 168.685 148.121 168.139C147.997 167.594 148.023 167.024 148.197 166.492C148.441 165.91 148.804 165.386 149.264 164.953C149.723 164.521 150.268 164.189 150.864 163.981C152.011 163.505 153.241 163.257 154.367 162.73C156.755 161.593 158.408 159.237 159.535 156.767C160.461 155.055 160.747 153.069 160.341 151.165Z" fill="#263238"/>
<path d="M151.836 169.449C152.054 169.772 152.234 170.119 152.373 170.483C152.683 171.134 153.096 172.054 153.551 173.118L153.634 173.315H153.417L152.383 173.408C151.67 173.408 151.071 173.542 150.368 173.532C150.307 173.518 150.25 173.489 150.203 173.447C150.156 173.406 150.12 173.353 150.099 173.294C150.068 173.2 150.068 173.099 150.099 173.005C150.123 172.865 150.154 172.727 150.192 172.591L150.378 171.857C150.472 171.368 150.617 170.89 150.812 170.431C150.793 170.93 150.72 171.426 150.595 171.909L150.451 172.643C150.399 172.891 150.306 173.273 150.451 173.242C150.967 173.242 151.701 173.129 152.383 173.087L153.417 172.994L153.283 173.222C152.838 172.188 152.466 171.217 152.249 170.545C152.059 170.202 151.919 169.833 151.836 169.449Z" fill="#4CAF4F"/>
<path d="M116.447 256.438L162.284 255.043L182.231 332.909L178.562 422.226H154.325L157.292 334.811L139.567 280.602L142.295 425.689L117.801 426.05L115.227 289.676C115.113 285.883 113.873 277.336 114.338 273.574L116.447 256.438Z" fill="#263238"/>
<path d="M145.665 281.709C144.915 281.756 144.162 281.711 143.423 281.575C142.038 281.409 140.146 281.12 138.069 280.707C135.992 280.293 134.131 279.818 132.788 279.435C132.07 279.277 131.375 279.027 130.721 278.691C130.721 278.536 134.09 279.342 138.224 280.179C142.358 281.017 145.686 281.554 145.665 281.709Z" fill="#455A64"/>
<path d="M178.315 417.327C178.315 417.472 172.827 417.596 166.057 417.596C159.287 417.596 153.789 417.472 153.789 417.327C153.789 417.183 159.277 417.059 166.057 417.059C172.837 417.059 178.315 417.172 178.315 417.327Z" fill="#455A64"/>
<path d="M142.078 421.917C142.078 422.072 136.745 422.186 130.171 422.186C123.598 422.186 118.275 422.072 118.275 421.917C118.275 421.762 123.608 421.648 130.171 421.648C136.734 421.648 142.078 421.772 142.078 421.917Z" fill="#455A64"/>
<path d="M138.915 421.547C138.771 421.547 138.13 389.849 137.479 350.751C136.828 311.653 136.445 279.934 136.58 279.934C136.714 279.934 137.375 311.622 138.016 350.741C138.657 389.859 139.07 421.547 138.915 421.547Z" fill="#455A64"/>
<path d="M175.057 417.33C175.046 417.189 175.046 417.048 175.057 416.907V415.667C175.057 414.55 175.14 412.948 175.202 410.912C175.347 406.778 175.553 400.773 175.812 393.415C176.37 378.615 177.155 358.213 178.013 335.692C178.013 335.475 178.013 335.268 178.013 335.082V335.155C172.587 313.451 167.678 293.752 164.112 279.499L159.978 262.643C159.503 260.669 159.141 259.129 158.883 258.054C158.759 257.547 158.676 257.155 158.604 256.855C158.563 256.72 158.539 256.582 158.531 256.441C158.585 256.572 158.626 256.707 158.655 256.844C158.738 257.134 158.841 257.527 158.986 258.023C159.265 259.056 159.668 260.627 160.185 262.591C161.218 266.58 162.676 272.327 164.495 279.406C168.091 293.648 173.052 313.296 178.551 335.031V335.103C178.551 335.289 178.551 335.506 178.551 335.713C177.631 358.233 176.794 378.625 176.184 393.425C175.863 400.794 175.595 406.757 175.409 410.912C175.305 412.979 175.223 414.55 175.171 415.667C175.171 416.194 175.109 416.607 175.099 416.907C175.1 417.049 175.086 417.191 175.057 417.33Z" fill="#455A64"/>
<path d="M167.152 333.262C165.411 333.834 163.617 334.232 161.798 334.45C159.566 334.833 157.664 335.101 156.806 335.143V334.936C157.085 335.019 157.23 335.07 157.23 335.112C157.23 335.153 157.054 335.112 156.765 335.112H156.145L156.765 334.926C157.571 334.688 159.472 334.295 161.705 333.892C163.495 333.504 165.32 333.293 167.152 333.262Z" fill="#455A64"/>
<path d="M166.728 336.228C165.116 336.302 163.501 336.23 161.902 336.011C160.287 335.978 158.679 335.802 157.096 335.484C160.326 335.221 163.577 335.472 166.728 336.228Z" fill="#455A64"/>
<path opacity="0.2" d="M116.25 258.082C116.793 258.779 117.477 259.353 118.257 259.768C119.037 260.183 119.895 260.429 120.777 260.49C122.623 260.708 124.49 260.674 126.327 260.386C138.161 259.074 150.697 257.864 162.283 255.043C147.287 255.88 131.443 255.601 116.446 256.438L116.291 257.72" fill="black"/>
<g opacity="0.2">
<path d="M131.701 279.219L140.155 312.023L139.566 280.604L131.701 279.219Z" fill="black"/>
</g>
</svg>
